<svg width="24" height="24" viewBox="0 0 24 24" fill="none" xmlns="http://www.w3.org/2000/svg">
<g id="loader">
<path id="Combined Shape" fill-rule="evenodd" clip-rule="evenodd" d="M10.9091 5.45455V1.09091C10.9091 0.488417 11.3975 0 12 0C12.6025 0 13.0909 0.488417 13.0909 1.09091V5.45455C13.0909 6.05704 12.6025 6.54545 12 6.54545C11.3975 6.54545 10.9091 6.05704 10.9091 5.45455ZM10.9091 22.9091V18.5455C10.9091 17.943 11.3975 17.4545 12 17.4545C12.6025 17.4545 13.0909 17.943 13.0909 18.5455V22.9091C13.0909 23.5116 12.6025 24 12 24C11.3975 24 10.9091 23.5116 10.9091 22.9091ZM3.51588 5.05866L6.60316 8.14594C7.02918 8.57196 7.71991 8.57196 8.14594 8.14594C8.57196 7.71991 8.57196 7.02918 8.14594 6.60316L5.05866 3.51588C4.63264 3.08986 3.94191 3.08986 3.51588 3.51588C3.08986 3.94191 3.08986 4.63264 3.51588 5.05866ZM18.9413 20.4841L15.8541 17.3968C15.428 16.9708 15.428 16.2801 15.8541 15.8541C16.2801 15.428 16.9708 15.428 17.3968 15.8541L20.4841 18.9413C20.9101 19.3674 20.9101 20.0581 20.4841 20.4841C20.0581 20.9101 19.3674 20.9101 18.9413 20.4841ZM1.09091 13.0909H5.45455C6.05704 13.0909 6.54545 12.6025 6.54545 12C6.54545 11.3975 6.05704 10.9091 5.45455 10.9091H1.09091C0.488417 10.9091 0 11.3975 0 12C0 12.6025 0.488417 13.0909 1.09091 13.0909ZM22.9091 13.0909H18.5455C17.943 13.0909 17.4545 12.6025 17.4545 12C17.4545 11.3975 17.943 10.9091 18.5455 10.9091H22.9091C23.5116 10.9091 24 11.3975 24 12C24 12.6025 23.5116 13.0909 22.9091 13.0909ZM5.05866 20.4841L8.14594 17.3968C8.57196 16.9708 8.57196 16.2801 8.14594 15.8541C7.71991 15.428 7.02918 15.428 6.60316 15.8541L3.51588 18.9413C3.08986 19.3674 3.08986 20.0581 3.51588 20.4841C3.94191 20.9101 4.63264 20.9101 5.05866 20.4841ZM20.4841 5.05866L17.3968 8.14594C16.9708 8.57196 16.2801 8.57196 15.8541 8.14594C15.428 7.71991 15.428 7.02918 15.8541 6.60316L18.9413 3.51588C19.3674 3.08986 20.0581 3.08986 20.4841 3.51588C20.9101 3.94191 20.9101 4.63264 20.4841 5.05866Z" fill="#50E3C2"/>
<mask id="mask0" mask-type="alpha" maskUnits="userSpaceOnUse" x="0" y="0" width="24" height="24">
<path id="Combined Shape_2" fill-rule="evenodd" clip-rule="evenodd" d="M10.9091 5.45455V1.09091C10.9091 0.488417 11.3975 0 12 0C12.6025 0 13.0909 0.488417 13.0909 1.09091V5.45455C13.0909 6.05704 12.6025 6.54545 12 6.54545C11.3975 6.54545 10.9091 6.05704 10.9091 5.45455ZM10.9091 22.9091V18.5455C10.9091 17.943 11.3975 17.4545 12 17.4545C12.6025 17.4545 13.0909 17.943 13.0909 18.5455V22.9091C13.0909 23.5116 12.6025 24 12 24C11.3975 24 10.9091 23.5116 10.9091 22.9091ZM3.51588 5.05866L6.60316 8.14594C7.02918 8.57196 7.71991 8.57196 8.14594 8.14594C8.57196 7.71991 8.57196 7.02918 8.14594 6.60316L5.05866 3.51588C4.63264 3.08986 3.94191 3.08986 3.51588 3.51588C3.08986 3.94191 3.08986 4.63264 3.51588 5.05866ZM18.9413 20.4841L15.8541 17.3968C15.428 16.9708 15.428 16.2801 15.8541 15.8541C16.2801 15.428 16.9708 15.428 17.3968 15.8541L20.4841 18.9413C20.9101 19.3674 20.9101 20.0581 20.4841 20.4841C20.0581 20.9101 19.3674 20.9101 18.9413 20.4841ZM1.09091 13.0909H5.45455C6.05704 13.0909 6.54545 12.6025 6.54545 12C6.54545 11.3975 6.05704 10.9091 5.45455 10.9091H1.09091C0.488417 10.9091 0 11.3975 0 12C0 12.6025 0.488417 13.0909 1.09091 13.0909ZM22.9091 13.0909H18.5455C17.943 13.0909 17.4545 12.6025 17.4545 12C17.4545 11.3975 17.943 10.9091 18.5455 10.9091H22.9091C23.5116 10.9091 24 11.3975 24 12C24 12.6025 23.5116 13.0909 22.9091 13.0909ZM5.05866 20.4841L8.14594 17.3968C8.57196 16.9708 8.57196 16.2801 8.14594 15.8541C7.71991 15.428 7.02918 15.428 6.60316 15.8541L3.51588 18.9413C3.08986 19.3674 3.08986 20.0581 3.51588 20.4841C3.94191 20.9101 4.63264 20.9101 5.05866 20.4841ZM20.4841 5.05866L17.3968 8.14594C16.9708 8.57196 16.2801 8.57196 15.8541 8.14594C15.428 7.71991 15.428 7.02918 15.8541 6.60316L18.9413 3.51588C19.3674 3.08986 20.0581 3.08986 20.4841 3.51588C20.9101 3.94191 20.9101 4.63264 20.4841 5.05866Z" fill="white"/>
</mask>
<g mask="url(#mask0)">
</g>
</g>
</svg>
