<svg width="24" height="22" viewBox="0 0 24 22" fill="none" xmlns="http://www.w3.org/2000/svg">
<path id="icon-mis-gifos" fill-rule="evenodd" clip-rule="evenodd" d="M7.2011 0V2.19924H4.80179V4.40101H4.7989H2.39945V8.79823H0V10.9975V11.0024V13.2018H2.39945V17.599H4.7989V19.8008H4.80179H7.2011V22H16.7988V19.8008H19.1985V17.6014V17.599H19.2011H21.6007V13.2018H24V8.79823H21.6007V4.40101H19.2011H19.1985V2.19924H16.7988V0H7.2011ZM14.5714 10.7719H16.894V8.64286H14.5714V10.7719ZM6.85714 10.7719H9.17972V8.64286H6.85714V10.7719ZM10.0458 15.4856H12.4977H14.9492H17.4006V13.3571H19.8525V15.4868H17.4006V17.6152H14.9492H12.4977H10.0458H7.59433V15.4868H5.14286V13.3571H7.59433V15.4856H10.0458Z" fill="#50E3C2"/>
</svg>
