<svg width="18" height="18" viewBox="0 0 18 18" fill="none" xmlns="http://www.w3.org/2000/svg">
<path id="icon-max" fill-rule="evenodd" clip-rule="evenodd" d="M11.5001 0.666748H16.5H16.5001C16.6131 0.666748 16.7208 0.689236 16.8191 0.72998C16.9151 0.769723 17.0053 0.8282 17.0839 0.905411L17.0948 0.91629C17.2539 1.0783 17.3334 1.28919 17.3334 1.50008V1.50098V6.50008C17.3334 6.96032 16.9603 7.33341 16.5001 7.33341C16.0398 7.33341 15.6667 6.96032 15.6667 6.50008V3.51193L11.256 7.92267C10.9306 8.24811 10.4029 8.24811 10.0775 7.92267C9.75206 7.59723 9.75206 7.0696 10.0775 6.74416L14.4882 2.33341H11.5001C11.0398 2.33341 10.6667 1.96032 10.6667 1.50008C10.6667 1.03984 11.0398 0.666748 11.5001 0.666748ZM1.50008 10.6667C1.96032 10.6667 2.33341 11.0398 2.33341 11.5001V14.4882L6.74416 10.0775C7.0696 9.75206 7.59723 9.75206 7.92267 10.0775C8.24811 10.4029 8.24811 10.9306 7.92267 11.256L3.51193 15.6667H6.50008C6.96032 15.6667 7.33341 16.0398 7.33341 16.5001C7.33341 16.9603 6.96032 17.3334 6.50008 17.3334H1.50098C1.49811 17.3334 1.49525 17.3334 1.49239 17.3334C1.49495 17.3334 1.49751 17.3334 1.50008 17.3334M0.91629 17.0948C0.914463 17.093 0.912641 17.0912 0.910826 17.0893C0.909011 17.0875 0.907206 17.0857 0.905411 17.0839C0.909004 17.0875 0.912631 17.0912 0.91629 17.0948ZM0.72998 16.8191C0.687811 16.7171 0.666734 16.6086 0.666748 16.5V16.5001C0.666748 16.6131 0.689236 16.7208 0.72998 16.8191ZM0.666748 16.5V11.5001C0.666748 11.0398 1.03984 10.6667 1.50008 10.6667" fill="#572EE5"/>
</svg>
