<svg width="20" height="10" viewBox="0 0 20 10" fill="none" xmlns="http://www.w3.org/2000/svg">
<path fill-rule="evenodd" clip-rule="evenodd" d="M7.5 8.33333H5C4.11594 8.33333 3.2681 7.98214 2.64298 7.35702C2.01786 6.7319 1.66667 5.88406 1.66667 5C1.66667 3.15905 3.15905 1.66667 5 1.66667H7.5C7.96024 1.66667 8.33333 1.29357 8.33333 0.833333C8.33333 0.373096 7.96024 0 7.5 0H5C2.23858 0 0 2.23858 0 5C0 6.32608 0.526784 7.59785 1.46447 8.53553C2.40215 9.47322 3.67392 10 5 10H7.5C7.96024 10 8.33333 9.6269 8.33333 9.16667C8.33333 8.70643 7.96024 8.33333 7.5 8.33333ZM12.5 1.66667H15C15.8841 1.66667 16.7319 2.01786 17.357 2.64298C17.9821 3.2681 18.3333 4.11594 18.3333 5C18.3333 6.84095 16.841 8.33333 15 8.33333H12.5C12.0398 8.33333 11.6667 8.70643 11.6667 9.16667C11.6667 9.6269 12.0398 10 12.5 10H15C17.7614 10 20 7.76142 20 5C20 3.67392 19.4732 2.40215 18.5355 1.46447C17.5979 0.526784 16.3261 0 15 0H12.5C12.0398 0 11.6667 0.373096 11.6667 0.833333C11.6667 1.29357 12.0398 1.66667 12.5 1.66667ZM13.3333 5.83333H6.66667C6.20643 5.83333 5.83333 5.46024 5.83333 5C5.83333 4.53976 6.20643 4.16667 6.66667 4.16667H13.3333C13.7936 4.16667 14.1667 4.53976 14.1667 5C14.1667 5.46024 13.7936 5.83333 13.3333 5.83333Z" fill="#572EE5"/>
</svg>
