<svg width="76" height="69" viewBox="0 0 76 69" fill="none" xmlns="http://www.w3.org/2000/svg">
<path fill-rule="evenodd" clip-rule="evenodd" d="M22.8035 0V6.89763H15.2052V13.8032H15.1969H7.59826V27.5945H0V34.4921V34.5075V41.4055H7.59826V55.1968H15.1969V62.1024H15.2052H22.8035V69H53.1965V62.1024H60.7952V55.2044V55.1968H60.8035H68.4022V41.4055H76V27.5945H68.4022V13.8032H60.8035H60.7952V6.89763H53.1965V0H22.8035ZM45 35H53V28H45V35ZM23 35H31V28H23V35ZM23 48.004V48H30.5H38H45.5H53V48.004V55H45.5H38H30.5H23V48.004Z" fill="#50E3C2"/>
</svg>
