<svg width="17" height="19" viewBox="0 0 17 19" fill="none" xmlns="http://www.w3.org/2000/svg">
<path fill-rule="evenodd" clip-rule="evenodd" d="M4.16667 3.33333H2.5H0.833333C0.373096 3.33333 0 3.70643 0 4.16667C0 4.6269 0.373096 5 0.833333 5H1.66667V15.8333C1.66667 17.214 2.78595 18.3333 4.16667 18.3333H12.5C13.8807 18.3333 15 17.214 15 15.8333V5H15.8333C16.2936 5 16.6667 4.6269 16.6667 4.16667C16.6667 3.70643 16.2936 3.33333 15.8333 3.33333H14.1667H12.5V2.5C12.5 1.11929 11.3807 0 10 0H6.66667C5.28595 0 4.16667 1.11929 4.16667 2.5V3.33333ZM5.83333 3.33333H10.8333V2.5C10.8333 2.03976 10.4602 1.66667 10 1.66667H6.66667C6.20643 1.66667 5.83333 2.03976 5.83333 2.5V3.33333ZM11.6667 5H5H3.33333V15.8333C3.33333 16.2936 3.70643 16.6667 4.16667 16.6667H12.5C12.9602 16.6667 13.3333 16.2936 13.3333 15.8333V5H11.6667ZM5.83333 8.33333V13.3333C5.83333 13.7936 6.20643 14.1667 6.66667 14.1667C7.1269 14.1667 7.5 13.7936 7.5 13.3333V8.33333C7.5 7.8731 7.1269 7.5 6.66667 7.5C6.20643 7.5 5.83333 7.8731 5.83333 8.33333ZM9.16667 13.3333V8.33333C9.16667 7.8731 9.53976 7.5 10 7.5C10.4602 7.5 10.8333 7.8731 10.8333 8.33333V13.3333C10.8333 13.7936 10.4602 14.1667 10 14.1667C9.53976 14.1667 9.16667 13.7936 9.16667 13.3333Z" fill="#572EE5"/>
</svg>
