<svg width="18" height="16" viewBox="0 0 18 16" fill="none" xmlns="http://www.w3.org/2000/svg">
<path id="icon-fav-hover" fill-rule="evenodd" clip-rule="evenodd" d="M12.8901 0C11.5348 0 10.2351 0.538542 9.27701 1.49709L8.99979 1.7743L8.72244 1.49696C6.72706 -0.498425 3.49191 -0.498425 1.49653 1.49696C-0.498845 3.49234 -0.498845 6.72748 1.49653 8.72286L8.44406 15.6704C8.75098 15.9773 9.2486 15.9773 9.55552 15.6704L16.503 8.72287C17.4615 7.7649 18 6.46518 18 5.10991C18 3.75464 17.4615 2.45492 16.5032 1.49709C15.5451 0.538542 14.2454 0 12.8901 0ZM14.5585 8.44448L8.99979 14.0032L2.60799 7.61141C1.22645 6.22987 1.22645 3.98995 2.60799 2.60841C3.98953 1.22687 6.22945 1.22687 7.61099 2.60841L8.44406 3.44149C8.75098 3.74841 9.2486 3.74841 9.55552 3.44149L10.3886 2.60841C11.052 1.94468 11.9518 1.57184 12.8901 1.57184C13.8284 1.57184 14.7282 1.94468 15.3917 2.60854C16.0553 3.27184 16.4282 4.17165 16.4282 5.10991C16.4282 6.04817 16.0553 6.94798 15.3917 7.61128L14.5585 8.44448Z" fill="#572EE5"/>
</svg>
