<svg width="18" height="20" viewBox="0 0 18 20" fill="none" xmlns="http://www.w3.org/2000/svg">
<path id="icon-download" fill-rule="evenodd" clip-rule="evenodd" d="M8.16675 11.3214V1.66659C8.16675 1.20635 8.53984 0.833252 9.00008 0.833252C9.46032 0.833252 9.83342 1.20635 9.83342 1.66659V11.3214L11.7442 9.41066C12.0696 9.08523 12.5972 9.08523 12.9227 9.41066C13.2481 9.7361 13.2481 10.2637 12.9227 10.5892L9.59008 13.9218L9.58934 13.9225C9.58752 13.9243 9.5857 13.9261 9.58387 13.9279C9.58595 13.9259 9.58802 13.9238 9.59008 13.9218M9.31907 14.1034C9.01774 14.228 8.6581 14.1683 8.4126 13.9243C8.412 13.9237 8.41142 13.9231 8.41083 13.9225M8.41038 13.9221C8.41112 13.9228 8.41186 13.9235 8.4126 13.9243C8.56326 14.074 8.77086 14.1666 9.00008 14.1666C9.11307 14.1666 9.22081 14.1441 9.31907 14.1034M8.16675 11.3214L6.256 9.41066C5.93057 9.08523 5.40293 9.08523 5.07749 9.41066C4.75206 9.7361 4.75206 10.2637 5.07749 10.5892L8.41038 13.9221M0.666748 14.1666V16.6666C0.666748 18.0473 1.78604 19.1666 3.16675 19.1666H14.8334C16.2141 19.1666 17.3334 18.0473 17.3334 16.6666V14.1666C17.3334 13.7063 16.9603 13.3333 16.5001 13.3333C16.0398 13.3333 15.6667 13.7063 15.6667 14.1666V16.6666C15.6667 17.1268 15.2937 17.4999 14.8334 17.4999H3.16675C2.70651 17.4999 2.33341 17.1268 2.33341 16.6666V14.1666C2.33341 13.7063 1.96032 13.3333 1.50008 13.3333C1.03984 13.3333 0.666748 13.7063 0.666748 14.1666Z" fill="#572EE5"/>
</svg>
