<svg width="123" height="162" viewBox="0 0 123 162" fill="none" xmlns="http://www.w3.org/2000/svg">
<path fill-rule="evenodd" clip-rule="evenodd" d="M103.13 96.8506C103.13 101.557 99.2774 105.407 94.5682 105.407H18.0346C13.3254 105.407 9.47266 101.557 9.47266 96.8506V66.6143C9.47266 61.9086 13.3254 58.0583 18.0346 58.0583H94.5682C99.2774 58.0583 103.13 61.9086 103.13 66.6143V96.8506Z" fill="#37383C"/>
<mask id="mask0" mask-type="alpha" maskUnits="userSpaceOnUse" x="8" y="57" width="96" height="50">
<path fill-rule="evenodd" clip-rule="evenodd" d="M18.0357 57.3679C12.9338 57.3679 8.7832 61.5159 8.7832 66.6141V96.8511C8.7832 101.949 12.9338 106.098 18.0357 106.098H94.5687C99.6706 106.098 103.822 101.949 103.822 96.8511V66.6141C103.822 61.5159 99.6706 57.3679 94.5687 57.3679H18.0357ZM10.1645 96.8511V66.6141C10.1645 62.2772 13.6962 58.7484 18.0358 58.7484H94.5687C98.9083 58.7484 102.441 62.2772 102.441 66.6141V96.8511C102.441 101.189 98.9083 104.717 94.5687 104.717H18.0358C13.6962 104.717 10.1645 101.189 10.1645 96.8511Z" fill="white"/>
</mask>
<g mask="url(#mask0)">
<path fill-rule="evenodd" clip-rule="evenodd" d="M18.0357 57.3679C12.9338 57.3679 8.7832 61.5159 8.7832 66.6141V96.8511C8.7832 101.949 12.9338 106.098 18.0357 106.098H94.5687C99.6706 106.098 103.822 101.949 103.822 96.8511V66.6141C103.822 61.5159 99.6706 57.3679 94.5687 57.3679H18.0357ZM10.1645 96.8511V66.6141C10.1645 62.2772 13.6962 58.7484 18.0358 58.7484H94.5687C98.9083 58.7484 102.441 62.2772 102.441 66.6141V96.8511C102.441 101.189 98.9083 104.717 94.5687 104.717H18.0358C13.6962 104.717 10.1645 101.189 10.1645 96.8511Z" fill="url(#paint0_linear)"/>
</g>
<path fill-rule="evenodd" clip-rule="evenodd" d="M111.914 32.4219C111.914 49.5926 97.9863 63.5137 80.806 63.5137C63.6264 63.5137 49.6992 49.5926 49.6992 32.4219C49.6992 15.2506 63.6264 1.33008 80.806 1.33008C97.9863 1.33008 111.914 15.2506 111.914 32.4219Z" fill="#37383C"/>
<mask id="mask1" mask-type="alpha" maskUnits="userSpaceOnUse" x="49" y="0" width="64" height="65">
<path fill-rule="evenodd" clip-rule="evenodd" d="M80.8072 0.640381C63.2739 0.640381 49.0098 14.8977 49.0098 32.4225C49.0098 49.9473 63.2739 64.2039 80.8072 64.2039C98.3405 64.2039 112.605 49.9473 112.605 32.4225C112.605 14.8977 98.3405 0.640381 80.8072 0.640381ZM50.391 32.4225C50.391 15.659 64.0364 2.0209 80.8073 2.0209C97.5788 2.0209 111.224 15.659 111.224 32.4225C111.224 49.1853 97.5788 62.8234 80.8073 62.8234C64.0364 62.8234 50.391 49.1853 50.391 32.4225Z" fill="white"/>
</mask>
<g mask="url(#mask1)">
<path fill-rule="evenodd" clip-rule="evenodd" d="M80.8072 0.640381C63.2739 0.640381 49.0098 14.8977 49.0098 32.4225C49.0098 49.9473 63.2739 64.2039 80.8072 64.2039C98.3405 64.2039 112.605 49.9473 112.605 32.4225C112.605 14.8977 98.3405 0.640381 80.8072 0.640381ZM50.391 32.4225C50.391 15.659 64.0364 2.0209 80.8073 2.0209C97.5788 2.0209 111.224 15.659 111.224 32.4225C111.224 49.1853 97.5788 62.8234 80.8073 62.8234C64.0364 62.8234 50.391 49.1853 50.391 32.4225Z" fill="url(#paint1_linear)"/>
</g>
<path fill-rule="evenodd" clip-rule="evenodd" d="M45.2104 41.2654C45.2104 53.5531 35.2435 63.5138 22.9499 63.5138C10.6563 63.5138 0.691406 53.5531 0.691406 41.2654C0.691406 28.9771 10.6563 19.0164 22.9499 19.0164C35.2435 19.0164 45.2104 28.9771 45.2104 41.2654Z" fill="#37383C"/>
<mask id="mask2" mask-type="alpha" maskUnits="userSpaceOnUse" x="0" y="18" width="46" height="47">
<path fill-rule="evenodd" clip-rule="evenodd" d="M0 41.2653C0 53.9135 10.2955 64.204 22.9497 64.204C35.6053 64.204 45.9008 53.9135 45.9008 41.2653C45.9008 28.6172 35.6053 18.3267 22.9497 18.3267C10.2955 18.3267 0 28.6172 0 41.2653ZM1.38127 41.2653C1.38127 29.3785 11.0566 19.7072 22.9498 19.7072C34.8424 19.7072 44.519 29.3785 44.519 41.2653C44.519 53.1522 34.8424 62.8235 22.9498 62.8235C11.0566 62.8235 1.38127 53.1522 1.38127 41.2653Z" fill="white"/>
</mask>
<g mask="url(#mask2)">
<path fill-rule="evenodd" clip-rule="evenodd" d="M0 41.2653C0 53.9135 10.2955 64.204 22.9497 64.204C35.6053 64.204 45.9008 53.9135 45.9008 41.2653C45.9008 28.6172 35.6053 18.3267 22.9497 18.3267C10.2955 18.3267 0 28.6172 0 41.2653ZM1.38127 41.2653C1.38127 29.3785 11.0566 19.7072 22.9498 19.7072C34.8424 19.7072 44.519 29.3785 44.519 41.2653C44.519 53.1522 34.8424 62.8235 22.9498 62.8235C11.0566 62.8235 1.38127 53.1522 1.38127 41.2653Z" fill="url(#paint2_linear)"/>
</g>
<path fill-rule="evenodd" clip-rule="evenodd" d="M86.3371 32.4216C86.3371 35.4746 83.8617 37.9488 80.8072 37.9488C77.7534 37.9488 75.2773 35.4746 75.2773 32.4216C75.2773 29.3692 77.7534 26.895 80.8072 26.895C83.8617 26.895 86.3371 29.3692 86.3371 32.4216Z" fill="#37383C"/>
<mask id="mask3" mask-type="alpha" maskUnits="userSpaceOnUse" x="74" y="26" width="13" height="13">
<path fill-rule="evenodd" clip-rule="evenodd" d="M74.9727 32.4218C74.9727 35.6375 77.5903 38.2538 80.8075 38.2538C84.0247 38.2538 86.6423 35.6375 86.6423 32.4218C86.6423 29.2062 84.0247 26.5898 80.8075 26.5898C77.5903 26.5898 74.9727 29.2062 74.9727 32.4218ZM75.5831 32.4218C75.5831 29.5423 77.9265 27.2001 80.8074 27.2001C83.6883 27.2001 86.0324 29.5423 86.0324 32.4218C86.0324 35.3013 83.6883 37.6443 80.8074 37.6443C77.9265 37.6443 75.5831 35.3013 75.5831 32.4218Z" fill="white"/>
</mask>
<g mask="url(#mask3)">
<path fill-rule="evenodd" clip-rule="evenodd" d="M74.9727 32.4218C74.9727 35.6375 77.5903 38.2538 80.8075 38.2538C84.0247 38.2538 86.6423 35.6375 86.6423 32.4218C86.6423 29.2062 84.0247 26.5898 80.8075 26.5898C77.5903 26.5898 74.9727 29.2062 74.9727 32.4218ZM75.5831 32.4218C75.5831 29.5423 77.9265 27.2001 80.8074 27.2001C83.6883 27.2001 86.0324 29.5423 86.0324 32.4218C86.0324 35.3013 83.6883 37.6443 80.8074 37.6443C77.9265 37.6443 75.5831 35.3013 75.5831 32.4218Z" fill="url(#paint3_linear)"/>
</g>
<path fill-rule="evenodd" clip-rule="evenodd" d="M41.0195 105.407V105.699C41.0195 109.555 44.1464 112.681 48.0043 112.681H64.5965C68.4562 112.681 71.5831 109.555 71.5831 105.699V105.407H41.0195Z" fill="#37383C"/>
<mask id="mask4" mask-type="alpha" maskUnits="userSpaceOnUse" x="40" y="104" width="33" height="10">
<path fill-rule="evenodd" clip-rule="evenodd" d="M41.0194 104.717C40.6375 104.717 40.3281 105.026 40.3281 105.408V105.699C40.3281 109.929 43.7728 113.371 48.0041 113.371H64.5956C68.8289 113.371 72.2735 109.929 72.2735 105.699V105.408C72.2735 105.026 71.9641 104.717 71.5829 104.717H41.0194ZM41.7222 106.098H70.8796C70.6733 109.382 67.9334 111.991 64.5957 111.991H48.0042C44.6684 111.991 41.9285 109.382 41.7222 106.098Z" fill="white"/>
</mask>
<g mask="url(#mask4)">
<path fill-rule="evenodd" clip-rule="evenodd" d="M41.0194 104.717C40.6375 104.717 40.3281 105.026 40.3281 105.408V105.699C40.3281 109.929 43.7728 113.371 48.0041 113.371H64.5956C68.8289 113.371 72.2735 109.929 72.2735 105.699V105.408C72.2735 105.026 71.9641 104.717 71.5829 104.717H41.0194ZM41.7222 106.098H70.8796C70.6733 109.382 67.9334 111.991 64.5957 111.991H48.0042C44.6684 111.991 41.9285 109.382 41.7222 106.098Z" fill="url(#paint4_linear)"/>
</g>
<mask id="mask5" mask-type="alpha" maskUnits="userSpaceOnUse" x="55" y="111" width="2" height="50">
<path fill-rule="evenodd" clip-rule="evenodd" d="M55.6113 112.681V160.176C55.6113 160.557 55.9201 160.866 56.3019 160.866C56.6837 160.866 56.9925 160.557 56.9925 160.176V112.681C56.9925 112.299 56.6837 111.991 56.3019 111.991C55.9201 111.991 55.6113 112.299 55.6113 112.681Z" fill="white"/>
</mask>
<g mask="url(#mask5)">
<path fill-rule="evenodd" clip-rule="evenodd" d="M55.6113 112.681V160.176C55.6113 160.557 55.9201 160.866 56.3019 160.866C56.6837 160.866 56.9925 160.557 56.9925 160.176V112.681C56.9925 112.299 56.6837 111.991 56.3019 111.991C55.9201 111.991 55.6113 112.299 55.6113 112.681Z" fill="url(#paint5_linear)"/>
</g>
<mask id="mask6" mask-type="alpha" maskUnits="userSpaceOnUse" x="7" y="111" width="50" height="51">
<path fill-rule="evenodd" clip-rule="evenodd" d="M55.8123 112.192L7.73596 160.249C7.46562 160.518 7.46562 160.955 7.73596 161.225C7.87049 161.36 8.0473 161.427 8.22412 161.427C8.40093 161.427 8.57774 161.36 8.71227 161.225L56.7886 113.169C57.0583 112.899 57.0583 112.463 56.7886 112.192C56.6541 112.058 56.4773 111.991 56.3005 111.991C56.1236 111.991 55.9468 112.058 55.8123 112.192Z" fill="white"/>
</mask>
<g mask="url(#mask6)">
<path fill-rule="evenodd" clip-rule="evenodd" d="M55.8123 112.192L7.73596 160.249C7.46562 160.518 7.46562 160.955 7.73596 161.225C7.87049 161.36 8.0473 161.427 8.22412 161.427C8.40093 161.427 8.57774 161.36 8.71227 161.225L56.7886 113.169C57.0583 112.899 57.0583 112.463 56.7886 112.192C56.6541 112.058 56.4773 111.991 56.3005 111.991C56.1236 111.991 55.9468 112.058 55.8123 112.192Z" fill="url(#paint6_linear)"/>
</g>
<mask id="mask7" mask-type="alpha" maskUnits="userSpaceOnUse" x="55" y="111" width="51" height="51">
<path fill-rule="evenodd" clip-rule="evenodd" d="M55.8136 112.192C55.5439 112.463 55.5439 112.899 55.8136 113.169L103.89 161.225C104.025 161.36 104.202 161.427 104.379 161.427C104.555 161.427 104.732 161.36 104.867 161.225C105.137 160.955 105.137 160.518 104.867 160.249L56.7899 112.192C56.6554 112.058 56.4786 111.991 56.3018 111.991C56.1249 111.991 55.9481 112.058 55.8136 112.192Z" fill="white"/>
</mask>
<g mask="url(#mask7)">
<path fill-rule="evenodd" clip-rule="evenodd" d="M55.8136 112.192C55.5439 112.463 55.5439 112.899 55.8136 113.169L103.89 161.225C104.025 161.36 104.202 161.427 104.379 161.427C104.555 161.427 104.732 161.36 104.867 161.225C105.137 160.955 105.137 160.518 104.867 160.249L56.7899 112.192C56.6554 112.058 56.4786 111.991 56.3018 111.991C56.1249 111.991 55.9481 112.058 55.8136 112.192Z" fill="url(#paint7_linear)"/>
</g>
<mask id="mask8" mask-type="alpha" maskUnits="userSpaceOnUse" x="17" y="92" width="28" height="7">
<path fill-rule="evenodd" clip-rule="evenodd" d="M18.259 92.0264C17.8765 92.0264 17.5684 92.335 17.5684 92.7166V97.8488C17.5684 98.2298 17.8765 98.539 18.259 98.539H43.7296C44.1114 98.539 44.4208 98.2298 44.4208 97.8488V92.7166C44.4208 92.335 44.1114 92.0264 43.7296 92.0264H18.259ZM18.9496 97.1579H43.0391V93.4069H18.9496V97.1579Z" fill="white"/>
</mask>
<g mask="url(#mask8)">
<path fill-rule="evenodd" clip-rule="evenodd" d="M18.259 92.0264C17.8765 92.0264 17.5684 92.335 17.5684 92.7166V97.8488C17.5684 98.2298 17.8765 98.539 18.259 98.539H43.7296C44.1114 98.539 44.4208 98.2298 44.4208 97.8488V92.7166C44.4208 92.335 44.1114 92.0264 43.7296 92.0264H18.259ZM18.9496 97.1579H43.0391V93.4069H18.9496V97.1579Z" fill="url(#paint8_linear)"/>
</g>
<mask id="mask9" mask-type="alpha" maskUnits="userSpaceOnUse" x="47" y="92" width="7" height="7">
<path fill-rule="evenodd" clip-rule="evenodd" d="M48.0109 92.0264C47.6291 92.0264 47.3203 92.335 47.3203 92.7166V97.8488C47.3203 98.2298 47.6291 98.539 48.0109 98.539H53.2557C53.6375 98.539 53.9463 98.2298 53.9463 97.8488V92.7166C53.9463 92.335 53.6375 92.0264 53.2557 92.0264H48.0109ZM48.7016 97.1579H52.5652V93.4069H48.7016V97.1579Z" fill="white"/>
</mask>
<g mask="url(#mask9)">
<path fill-rule="evenodd" clip-rule="evenodd" d="M48.0109 92.0264C47.6291 92.0264 47.3203 92.335 47.3203 92.7166V97.8488C47.3203 98.2298 47.6291 98.539 48.0109 98.539H53.2557C53.6375 98.539 53.9463 98.2298 53.9463 97.8488V92.7166C53.9463 92.335 53.6375 92.0264 53.2557 92.0264H48.0109ZM48.7016 97.1579H52.5652V93.4069H48.7016V97.1579Z" fill="url(#paint9_linear)"/>
</g>
<mask id="mask10" mask-type="alpha" maskUnits="userSpaceOnUse" x="17" y="84" width="28" height="2">
<path fill-rule="evenodd" clip-rule="evenodd" d="M18.259 84.3232C17.8765 84.3232 17.5684 84.6312 17.5684 85.0135C17.5684 85.3945 17.8765 85.7038 18.259 85.7038H43.7296C44.1114 85.7038 44.4208 85.3945 44.4208 85.0135C44.4208 84.6312 44.1114 84.3232 43.7296 84.3232H18.259Z" fill="white"/>
</mask>
<g mask="url(#mask10)">
<path fill-rule="evenodd" clip-rule="evenodd" d="M18.259 84.3232C17.8765 84.3232 17.5684 84.6312 17.5684 85.0135C17.5684 85.3945 17.8765 85.7038 18.259 85.7038H43.7296C44.1114 85.7038 44.4208 85.3945 44.4208 85.0135C44.4208 84.6312 44.1114 84.3232 43.7296 84.3232H18.259Z" fill="url(#paint10_linear)"/>
</g>
<mask id="mask11" mask-type="alpha" maskUnits="userSpaceOnUse" x="17" y="77" width="37" height="2">
<path fill-rule="evenodd" clip-rule="evenodd" d="M18.259 77.3342C17.8765 77.3342 17.5684 77.6435 17.5684 78.0245C17.5684 78.4061 17.8765 78.7154 18.259 78.7154H53.255C53.6368 78.7154 53.9456 78.4061 53.9456 78.0245C53.9456 77.6435 53.6368 77.3342 53.255 77.3342H18.259Z" fill="white"/>
</mask>
<g mask="url(#mask11)">
<path fill-rule="evenodd" clip-rule="evenodd" d="M18.259 77.3342C17.8765 77.3342 17.5684 77.6435 17.5684 78.0245C17.5684 78.4061 17.8765 78.7154 18.259 78.7154H53.255C53.6368 78.7154 53.9456 78.4061 53.9456 78.0245C53.9456 77.6435 53.6368 77.3342 53.255 77.3342H18.259Z" fill="url(#paint11_linear)"/>
</g>
<path fill-rule="evenodd" clip-rule="evenodd" d="M105.873 73.5483V89.9174L117.448 96.5972V66.8679L105.873 73.5483Z" fill="#37383C"/>
<mask id="mask12" mask-type="alpha" maskUnits="userSpaceOnUse" x="105" y="66" width="14" height="32">
<path fill-rule="evenodd" clip-rule="evenodd" d="M117.102 66.2695L105.526 72.95C105.314 73.0742 105.182 73.3015 105.182 73.548V89.9177C105.182 90.1642 105.314 90.3915 105.526 90.5151L117.102 97.1955C117.207 97.2564 117.328 97.2877 117.447 97.2877C117.565 97.2877 117.685 97.2564 117.792 97.1955C118.005 97.0719 118.138 96.844 118.138 96.5975V66.8676C118.138 66.6211 118.005 66.3938 117.792 66.2695C117.685 66.2087 117.566 66.178 117.446 66.178C117.327 66.178 117.208 66.2087 117.102 66.2695ZM106.562 89.5188V73.9463L116.757 68.0643V95.4014L106.562 89.5188Z" fill="white"/>
</mask>
<g mask="url(#mask12)">
<path fill-rule="evenodd" clip-rule="evenodd" d="M117.102 66.2695L105.526 72.95C105.314 73.0742 105.182 73.3015 105.182 73.548V89.9177C105.182 90.1642 105.314 90.3915 105.526 90.5151L117.102 97.1955C117.207 97.2564 117.328 97.2877 117.447 97.2877C117.565 97.2877 117.685 97.2564 117.792 97.1955C118.005 97.0719 118.138 96.844 118.138 96.5975V66.8676C118.138 66.6211 118.005 66.3938 117.792 66.2695C117.685 66.2087 117.566 66.178 117.446 66.178C117.327 66.178 117.208 66.2087 117.102 66.2695ZM106.562 89.5188V73.9463L116.757 68.0643V95.4014L106.562 89.5188Z" fill="url(#paint12_linear)"/>
</g>
<path fill-rule="evenodd" clip-rule="evenodd" d="M117.447 64.9683V98.4953L122.282 101.286V62.1785L117.447 64.9683Z" fill="#37383C"/>
<mask id="mask13" mask-type="alpha" maskUnits="userSpaceOnUse" x="116" y="61" width="7" height="41">
<path fill-rule="evenodd" clip-rule="evenodd" d="M121.937 61.5805L117.103 64.371C116.89 64.4933 116.758 64.7219 116.758 64.9684V98.4954C116.758 98.7419 116.89 98.9705 117.103 99.0934L121.937 101.885C122.044 101.946 122.165 101.977 122.283 101.977C122.402 101.977 122.522 101.946 122.629 101.885C122.841 101.761 122.974 101.534 122.974 101.286V62.1785C122.974 61.932 122.841 61.7041 122.629 61.5805C122.522 61.519 122.402 61.4883 122.283 61.4883C122.163 61.4883 122.044 61.519 121.937 61.5805ZM118.139 98.0971V65.3673L121.592 63.3753V100.09L118.139 98.0971Z" fill="white"/>
</mask>
<g mask="url(#mask13)">
<path fill-rule="evenodd" clip-rule="evenodd" d="M121.937 61.5805L117.103 64.371C116.89 64.4933 116.758 64.7219 116.758 64.9684V98.4954C116.758 98.7419 116.89 98.9705 117.103 99.0934L121.937 101.885C122.044 101.946 122.165 101.977 122.283 101.977C122.402 101.977 122.522 101.946 122.629 101.885C122.841 101.761 122.974 101.534 122.974 101.286V62.1785C122.974 61.932 122.841 61.7041 122.629 61.5805C122.522 61.519 122.402 61.4883 122.283 61.4883C122.163 61.4883 122.044 61.519 121.937 61.5805ZM118.139 98.0971V65.3673L121.592 63.3753V100.09L118.139 98.0971Z" fill="url(#paint13_linear)"/>
</g>
<path fill-rule="evenodd" clip-rule="evenodd" d="M84.7324 8.38599V23.6223C86.9054 24.5815 88.6498 26.3257 89.6089 28.497H104.853C103.205 18.1924 95.0414 10.0329 84.7324 8.38599Z" fill="#37383C"/>
<mask id="mask14" mask-type="alpha" maskUnits="userSpaceOnUse" x="84" y="7" width="22" height="23">
<path fill-rule="evenodd" clip-rule="evenodd" d="M84.3987 7.99306C84.2834 8.09231 84.2168 8.2351 84.2168 8.38621V23.6232C84.2168 23.8274 84.3379 24.0119 84.5249 24.0951C86.5884 25.0063 88.2265 26.6435 89.1381 28.706C89.2194 28.893 89.4059 29.0134 89.6096 29.0134H104.855C105.006 29.0134 105.149 28.9474 105.249 28.8328C105.346 28.7169 105.388 28.5645 105.365 28.4159C103.671 17.8238 95.413 9.56952 84.8158 7.87588C84.7895 7.87204 84.7633 7.87012 84.737 7.87012C84.614 7.87012 84.4935 7.91302 84.3987 7.99306ZM85.2502 23.2928V8.999C94.9191 10.7944 102.445 18.3175 104.241 27.9812H89.9415C88.9504 25.9296 87.304 24.2821 85.2502 23.2928Z" fill="white"/>
</mask>
<g mask="url(#mask14)">
<path fill-rule="evenodd" clip-rule="evenodd" d="M84.3987 7.99306C84.2834 8.09231 84.2168 8.2351 84.2168 8.38621V23.6232C84.2168 23.8274 84.3379 24.0119 84.5249 24.0951C86.5884 25.0063 88.2265 26.6435 89.1381 28.706C89.2194 28.893 89.4059 29.0134 89.6096 29.0134H104.855C105.006 29.0134 105.149 28.9474 105.249 28.8328C105.346 28.7169 105.388 28.5645 105.365 28.4159C103.671 17.8238 95.413 9.56952 84.8158 7.87588C84.7895 7.87204 84.7633 7.87012 84.737 7.87012C84.614 7.87012 84.4935 7.91302 84.3987 7.99306ZM85.2502 23.2928V8.999C94.9191 10.7944 102.445 18.3175 104.241 27.9812H89.9415C88.9504 25.9296 87.304 24.2821 85.2502 23.2928Z" fill="url(#paint14_linear)"/>
</g>
<path fill-rule="evenodd" clip-rule="evenodd" d="M76.8818 8.38599C66.5716 10.0329 58.4081 18.1924 56.7598 28.497H72.0034C72.9644 26.3257 74.7082 24.5815 76.8818 23.6223V8.38599Z" fill="#37383C"/>
<mask id="mask15" mask-type="alpha" maskUnits="userSpaceOnUse" x="56" y="7" width="22" height="23">
<path fill-rule="evenodd" clip-rule="evenodd" d="M76.7998 7.87588C66.202 9.56952 57.943 17.8238 56.2486 28.4159C56.2249 28.5645 56.2678 28.7169 56.3658 28.8328C56.4645 28.9474 56.6073 29.0134 56.7598 29.0134H72.0028C72.2078 29.0134 72.3923 28.893 72.4756 28.706C73.3879 26.6429 75.0272 25.0056 77.09 24.0951C77.2771 24.0119 77.3975 23.8274 77.3975 23.6232V8.38621C77.3975 8.2351 77.3316 8.09231 77.2162 7.99306C77.1214 7.91302 77.001 7.87012 76.878 7.87012C76.8524 7.87012 76.8261 7.87204 76.7998 7.87588ZM76.3648 8.999V23.2928C74.3116 24.2808 72.6639 25.9277 71.6729 27.9812H57.3728C59.1691 18.3162 66.6952 10.7944 76.3648 8.999Z" fill="white"/>
</mask>
<g mask="url(#mask15)">
<path fill-rule="evenodd" clip-rule="evenodd" d="M76.7998 7.87588C66.202 9.56952 57.943 17.8238 56.2486 28.4159C56.2249 28.5645 56.2678 28.7169 56.3658 28.8328C56.4645 28.9474 56.6073 29.0134 56.7598 29.0134H72.0028C72.2078 29.0134 72.3923 28.893 72.4756 28.706C73.3879 26.6429 75.0272 25.0056 77.09 24.0951C77.2771 24.0119 77.3975 23.8274 77.3975 23.6232V8.38621C77.3975 8.2351 77.3316 8.09231 77.2162 7.99306C77.1214 7.91302 77.001 7.87012 76.878 7.87012C76.8524 7.87012 76.8261 7.87204 76.7998 7.87588ZM76.3648 8.999V23.2928C74.3116 24.2808 72.6639 25.9277 71.6729 27.9812H57.3728C59.1691 18.3162 66.6952 10.7944 76.3648 8.999Z" fill="url(#paint15_linear)"/>
</g>
<path fill-rule="evenodd" clip-rule="evenodd" d="M72.0034 36.345H56.7598C58.4075 46.6509 66.5716 54.8091 76.8818 56.4573V41.2203C74.7082 40.2605 72.9644 38.5169 72.0034 36.345Z" fill="#37383C"/>
<mask id="mask16" mask-type="alpha" maskUnits="userSpaceOnUse" x="56" y="35" width="22" height="22">
<path fill-rule="evenodd" clip-rule="evenodd" d="M56.7598 35.8289C56.6073 35.8289 56.4645 35.8955 56.3658 36.0101C56.2678 36.1253 56.2249 36.2777 56.2486 36.4269C57.943 47.0177 66.2007 55.2727 76.7998 56.9676C76.8267 56.9715 76.8536 56.974 76.8812 56.974C77.0029 56.974 77.1227 56.9305 77.2162 56.8511C77.3316 56.7525 77.3975 56.609 77.3975 56.4566V41.2203C77.3975 41.0154 77.2771 40.8304 77.09 40.7478C75.0272 39.8372 73.3879 38.1999 72.4756 36.1362C72.3923 35.9499 72.2078 35.8289 72.0028 35.8289H56.7598ZM57.3728 36.8611H71.6729C72.6639 38.9139 74.3116 40.5608 76.3648 41.5501V55.8439C66.6952 54.0478 59.1691 46.5247 57.3728 36.8611Z" fill="white"/>
</mask>
<g mask="url(#mask16)">
<path fill-rule="evenodd" clip-rule="evenodd" d="M56.7598 35.8289C56.6073 35.8289 56.4645 35.8955 56.3658 36.0101C56.2678 36.1253 56.2249 36.2777 56.2486 36.4269C57.943 47.0177 66.2007 55.2727 76.7998 56.9676C76.8267 56.9715 76.8536 56.974 76.8812 56.974C77.0029 56.974 77.1227 56.9305 77.2162 56.8511C77.3316 56.7525 77.3975 56.609 77.3975 56.4566V41.2203C77.3975 41.0154 77.2771 40.8304 77.09 40.7478C75.0272 39.8372 73.3879 38.1999 72.4756 36.1362C72.3923 35.9499 72.2078 35.8289 72.0028 35.8289H56.7598ZM57.3728 36.8611H71.6729C72.6639 38.9139 74.3116 40.5608 76.3648 41.5501V55.8439C66.6952 54.0478 59.1691 46.5247 57.3728 36.8611Z" fill="url(#paint16_linear)"/>
</g>
<path fill-rule="evenodd" clip-rule="evenodd" d="M84.7324 56.4571C95.0414 54.8089 103.205 46.6506 104.853 36.3447H89.6089C88.6498 38.5167 86.9054 40.2609 84.7324 41.2201V56.4571Z" fill="#37383C"/>
<mask id="mask17" mask-type="alpha" maskUnits="userSpaceOnUse" x="84" y="35" width="22" height="22">
<path fill-rule="evenodd" clip-rule="evenodd" d="M89.6096 35.8289C89.4059 35.8289 89.2194 35.9499 89.1381 36.1362C88.2265 38.1993 86.5884 39.836 84.5249 40.7478C84.3379 40.8304 84.2168 41.0154 84.2168 41.2203V56.4566C84.2168 56.609 84.2834 56.7525 84.3987 56.8511C84.4929 56.9305 84.6114 56.974 84.7338 56.974C84.7607 56.974 84.7876 56.9715 84.8158 56.9676C95.413 55.2727 103.671 47.0177 105.365 36.4269C105.388 36.2777 105.346 36.1253 105.249 36.0101C105.149 35.8955 105.006 35.8289 104.855 35.8289H89.6096ZM85.2502 41.5501C87.304 40.5602 88.9504 38.9133 89.9415 36.8611H104.241C102.446 46.5247 94.9191 54.0478 85.2502 55.8439V41.5501Z" fill="white"/>
</mask>
<g mask="url(#mask17)">
<path fill-rule="evenodd" clip-rule="evenodd" d="M89.6096 35.8289C89.4059 35.8289 89.2194 35.9499 89.1381 36.1362C88.2265 38.1993 86.5884 39.836 84.5249 40.7478C84.3379 40.8304 84.2168 41.0154 84.2168 41.2203V56.4566C84.2168 56.609 84.2834 56.7525 84.3987 56.8511C84.4929 56.9305 84.6114 56.974 84.7338 56.974C84.7607 56.974 84.7876 56.9715 84.8158 56.9676C95.413 55.2727 103.671 47.0177 105.365 36.4269C105.388 36.2777 105.346 36.1253 105.249 36.0101C105.149 35.8955 105.006 35.8289 104.855 35.8289H89.6096ZM85.2502 41.5501C87.304 40.5602 88.9504 38.9133 89.9415 36.8611H104.241C102.446 46.5247 94.9191 54.0478 85.2502 55.8439V41.5501Z" fill="url(#paint17_linear)"/>
</g>
<path fill-rule="evenodd" clip-rule="evenodd" d="M25.9258 24.3933V35.1653C27.462 35.8434 28.6958 37.0761 29.3736 38.6115H40.1515C38.9862 31.3267 33.2142 25.5574 25.9258 24.3933Z" fill="#37383C"/>
<mask id="mask18" mask-type="alpha" maskUnits="userSpaceOnUse" x="25" y="24" width="16" height="15">
<path fill-rule="evenodd" clip-rule="evenodd" d="M25.6887 24.115C25.6073 24.1854 25.5605 24.286 25.5605 24.3935V35.1656C25.5605 35.3103 25.6458 35.4409 25.7777 35.4992C27.2371 36.1433 28.3953 37.301 29.0391 38.7597C29.0968 38.8909 29.2288 38.9767 29.3729 38.9767H40.1508C40.2578 38.9767 40.3596 38.93 40.4295 38.8487C40.498 38.7674 40.5288 38.6591 40.5115 38.5541C39.3135 31.0656 33.4761 25.2304 25.9834 24.0324C25.9648 24.0298 25.9462 24.0286 25.9276 24.0286C25.8405 24.0286 25.7559 24.0587 25.6887 24.115ZM26.2908 34.9325V24.827C33.1263 26.0961 38.4473 31.4146 39.717 38.2468H29.6073C28.9071 36.7965 27.7425 35.6317 26.2908 34.9325Z" fill="white"/>
</mask>
<g mask="url(#mask18)">
<path fill-rule="evenodd" clip-rule="evenodd" d="M25.6887 24.115C25.6073 24.1854 25.5605 24.286 25.5605 24.3935V35.1656C25.5605 35.3103 25.6458 35.4409 25.7777 35.4992C27.2371 36.1433 28.3953 37.301 29.0391 38.7597C29.0968 38.8909 29.2288 38.9767 29.3729 38.9767H40.1508C40.2578 38.9767 40.3596 38.93 40.4295 38.8487C40.498 38.7674 40.5288 38.6591 40.5115 38.5541C39.3135 31.0656 33.4761 25.2304 25.9834 24.0324C25.9648 24.0298 25.9462 24.0286 25.9276 24.0286C25.8405 24.0286 25.7559 24.0587 25.6887 24.115ZM26.2908 34.9325V24.827C33.1263 26.0961 38.4473 31.4146 39.717 38.2468H29.6073C28.9071 36.7965 27.7425 35.6317 26.2908 34.9325Z" fill="url(#paint18_linear)"/>
</g>
<path fill-rule="evenodd" clip-rule="evenodd" d="M20.3748 24.3933C13.0858 25.5574 7.31373 31.3267 6.14844 38.6115H16.9263C17.6054 37.0761 18.8379 35.8434 20.3748 35.1653V24.3933Z" fill="#37383C"/>
<mask id="mask19" mask-type="alpha" maskUnits="userSpaceOnUse" x="5" y="24" width="16" height="15">
<path fill-rule="evenodd" clip-rule="evenodd" d="M20.3168 24.0324C12.8254 25.2304 6.98543 31.0656 5.78746 38.5541C5.77145 38.6591 5.80091 38.7674 5.87074 38.8487C5.94057 38.93 6.04179 38.9767 6.14813 38.9767H16.926C17.0701 38.9767 17.2015 38.8909 17.2598 38.7597C17.9049 37.3004 19.0638 36.1427 20.5225 35.4992C20.6544 35.4409 20.7403 35.3103 20.7403 35.1656V24.3935C20.7403 24.286 20.6929 24.1854 20.6115 24.115C20.5443 24.0587 20.4591 24.0286 20.3726 24.0286C20.354 24.0286 20.3354 24.0298 20.3168 24.0324ZM20.0087 24.827V34.9325C18.5584 35.6311 17.3931 36.7958 16.6922 38.2468H6.58251C7.85223 31.4146 13.1733 26.0961 20.0087 24.827Z" fill="white"/>
</mask>
<g mask="url(#mask19)">
<path fill-rule="evenodd" clip-rule="evenodd" d="M20.3168 24.0324C12.8254 25.2304 6.98543 31.0656 5.78746 38.5541C5.77145 38.6591 5.80091 38.7674 5.87074 38.8487C5.94057 38.93 6.04179 38.9767 6.14813 38.9767H16.926C17.0701 38.9767 17.2015 38.8909 17.2598 38.7597C17.9049 37.3004 19.0638 36.1427 20.5225 35.4992C20.6544 35.4409 20.7403 35.3103 20.7403 35.1656V24.3935C20.7403 24.286 20.6929 24.1854 20.6115 24.115C20.5443 24.0587 20.4591 24.0286 20.3726 24.0286C20.354 24.0286 20.3354 24.0298 20.3168 24.0324ZM20.0087 24.827V34.9325C18.5584 35.6311 17.3931 36.7958 16.6922 38.2468H6.58251C7.85223 31.4146 13.1733 26.0961 20.0087 24.827Z" fill="url(#paint19_linear)"/>
</g>
<path fill-rule="evenodd" clip-rule="evenodd" d="M16.9257 44.1599H6.14844C7.31373 51.4454 13.0851 57.214 20.3742 58.3788V47.6067C18.8373 46.928 17.6047 45.6954 16.9257 44.1599Z" fill="#37383C"/>
<mask id="mask20" mask-type="alpha" maskUnits="userSpaceOnUse" x="5" y="43" width="16" height="16">
<path fill-rule="evenodd" clip-rule="evenodd" d="M6.14813 43.7944C6.04179 43.7944 5.94057 43.8418 5.87074 43.9231C5.80091 44.0045 5.77145 44.112 5.78746 44.2177C6.98543 51.7055 12.8241 57.542 20.3168 58.7401C20.3361 58.7426 20.3553 58.7445 20.3745 58.7445C20.461 58.7445 20.5455 58.7132 20.6115 58.6575C20.6929 58.5877 20.7403 58.4865 20.7403 58.3783V47.6069C20.7403 47.4615 20.6544 47.3315 20.5225 47.2726C19.0638 46.6285 17.9049 45.4714 17.2598 44.0121C17.2015 43.8809 17.0701 43.7944 16.926 43.7944H6.14813ZM6.58251 44.5244H16.6922C17.3931 45.9766 18.5584 47.1414 20.0087 47.8393V57.9461C13.1733 56.6757 7.85223 51.3572 6.58251 44.5244Z" fill="white"/>
</mask>
<g mask="url(#mask20)">
<path fill-rule="evenodd" clip-rule="evenodd" d="M6.14813 43.7944C6.04179 43.7944 5.94057 43.8418 5.87074 43.9231C5.80091 44.0045 5.77145 44.112 5.78746 44.2177C6.98543 51.7055 12.8241 57.542 20.3168 58.7401C20.3361 58.7426 20.3553 58.7445 20.3745 58.7445C20.461 58.7445 20.5455 58.7132 20.6115 58.6575C20.6929 58.5877 20.7403 58.4865 20.7403 58.3783V47.6069C20.7403 47.4615 20.6544 47.3315 20.5225 47.2726C19.0638 46.6285 17.9049 45.4714 17.2598 44.0121C17.2015 43.8809 17.0701 43.7944 16.926 43.7944H6.14813ZM6.58251 44.5244H16.6922C17.3931 45.9766 18.5584 47.1414 20.0087 47.8393V57.9461C13.1733 56.6757 7.85223 51.3572 6.58251 44.5244Z" fill="url(#paint20_linear)"/>
</g>
<path fill-rule="evenodd" clip-rule="evenodd" d="M25.9258 58.379C33.2142 57.2143 38.9862 51.4457 40.1515 44.1602H29.3736C28.6958 45.6956 27.462 46.9282 25.9258 47.607V58.379Z" fill="#37383C"/>
<mask id="mask21" mask-type="alpha" maskUnits="userSpaceOnUse" x="25" y="43" width="16" height="16">
<path fill-rule="evenodd" clip-rule="evenodd" d="M29.3729 43.7944C29.2288 43.7944 29.0968 43.8809 29.0391 44.0121C28.3953 45.4708 27.2371 46.6278 25.7777 47.2726C25.6458 47.3315 25.5605 47.4615 25.5605 47.6069V58.3783C25.5605 58.4865 25.6073 58.5877 25.6887 58.6575C25.7553 58.7132 25.8392 58.7445 25.9251 58.7445C25.9449 58.7445 25.9641 58.7426 25.9834 58.7401C33.4761 57.542 39.3135 51.7055 40.5115 44.2177C40.5288 44.112 40.498 44.0045 40.4295 43.9231C40.3596 43.8418 40.2578 43.7944 40.1508 43.7944H29.3729ZM26.2908 47.8393C27.7425 47.1401 28.9071 45.976 29.6073 44.5244H39.717C38.4473 51.3572 33.1263 56.6757 26.2908 57.9461V47.8393Z" fill="white"/>
</mask>
<g mask="url(#mask21)">
<path fill-rule="evenodd" clip-rule="evenodd" d="M29.3729 43.7944C29.2288 43.7944 29.0968 43.8809 29.0391 44.0121C28.3953 45.4708 27.2371 46.6278 25.7777 47.2726C25.6458 47.3315 25.5605 47.4615 25.5605 47.6069V58.3783C25.5605 58.4865 25.6073 58.5877 25.6887 58.6575C25.7553 58.7132 25.8392 58.7445 25.9251 58.7445C25.9449 58.7445 25.9641 58.7426 25.9834 58.7401C33.4761 57.542 39.3135 51.7055 40.5115 44.2177C40.5288 44.112 40.498 44.0045 40.4295 43.9231C40.3596 43.8418 40.2578 43.7944 40.1508 43.7944H29.3729ZM26.2908 47.8393C27.7425 47.1401 28.9071 45.976 29.6073 44.5244H39.717C38.4473 51.3572 33.1263 56.6757 26.2908 57.9461V47.8393Z" fill="url(#paint21_linear)"/>
</g>
<defs>
<linearGradient id="paint0_linear" x1="8.78288" y1="106.098" x2="103.822" y2="106.098" gradientUnits="userSpaceOnUse">
<stop stop-color="#7C72FF"/>
<stop offset="1" stop-color="#6D64F4"/>
</linearGradient>
<linearGradient id="paint1_linear" x1="49.0094" y1="64.2038" x2="112.605" y2="64.2038" gradientUnits="userSpaceOnUse">
<stop stop-color="#7C72FF"/>
<stop offset="1" stop-color="#6D64F4"/>
</linearGradient>
<linearGradient id="paint2_linear" x1="0" y1="64.2038" x2="45.9005" y2="64.2038" gradientUnits="userSpaceOnUse">
<stop stop-color="#7C72FF"/>
<stop offset="1" stop-color="#6D64F4"/>
</linearGradient>
<linearGradient id="paint3_linear" x1="74.9727" y1="38.2537" x2="86.6423" y2="38.2537" gradientUnits="userSpaceOnUse">
<stop stop-color="#7C72FF"/>
<stop offset="1" stop-color="#6D64F4"/>
</linearGradient>
<linearGradient id="paint4_linear" x1="40.3286" y1="113.371" x2="72.2735" y2="113.371" gradientUnits="userSpaceOnUse">
<stop stop-color="#7C72FF"/>
<stop offset="1" stop-color="#6D64F4"/>
</linearGradient>
<linearGradient id="paint5_linear" x1="55.6111" y1="160.868" x2="56.9924" y2="160.868" gradientUnits="userSpaceOnUse">
<stop stop-color="#7C72FF"/>
<stop offset="1" stop-color="#6D64F4"/>
</linearGradient>
<linearGradient id="paint6_linear" x1="7.5333" y1="161.427" x2="56.9913" y2="161.427" gradientUnits="userSpaceOnUse">
<stop stop-color="#7C72FF"/>
<stop offset="1" stop-color="#6D64F4"/>
</linearGradient>
<linearGradient id="paint7_linear" x1="55.6111" y1="161.427" x2="105.069" y2="161.427" gradientUnits="userSpaceOnUse">
<stop stop-color="#7C72FF"/>
<stop offset="1" stop-color="#6D64F4"/>
</linearGradient>
<linearGradient id="paint8_linear" x1="17.5683" y1="98.5388" x2="44.4204" y2="98.5388" gradientUnits="userSpaceOnUse">
<stop stop-color="#7C72FF"/>
<stop offset="1" stop-color="#6D64F4"/>
</linearGradient>
<linearGradient id="paint9_linear" x1="47.3202" y1="98.539" x2="53.9466" y2="98.539" gradientUnits="userSpaceOnUse">
<stop stop-color="#7C72FF"/>
<stop offset="1" stop-color="#6D64F4"/>
</linearGradient>
<linearGradient id="paint10_linear" x1="17.5683" y1="85.7035" x2="44.4204" y2="85.7035" gradientUnits="userSpaceOnUse">
<stop stop-color="#7C72FF"/>
<stop offset="1" stop-color="#6D64F4"/>
</linearGradient>
<linearGradient id="paint11_linear" x1="17.5683" y1="78.7151" x2="53.9459" y2="78.7151" gradientUnits="userSpaceOnUse">
<stop stop-color="#7C72FF"/>
<stop offset="1" stop-color="#6D64F4"/>
</linearGradient>
<linearGradient id="paint12_linear" x1="105.181" y1="97.2878" x2="118.137" y2="97.2878" gradientUnits="userSpaceOnUse">
<stop stop-color="#7C72FF"/>
<stop offset="1" stop-color="#6D64F4"/>
</linearGradient>
<linearGradient id="paint13_linear" x1="116.757" y1="101.978" x2="122.974" y2="101.978" gradientUnits="userSpaceOnUse">
<stop stop-color="#7C72FF"/>
<stop offset="1" stop-color="#6D64F4"/>
</linearGradient>
<linearGradient id="paint14_linear" x1="84.2169" y1="29.0135" x2="105.371" y2="29.0135" gradientUnits="userSpaceOnUse">
<stop stop-color="#7C72FF"/>
<stop offset="1" stop-color="#6D64F4"/>
</linearGradient>
<linearGradient id="paint15_linear" x1="56.2422" y1="29.0136" x2="77.3979" y2="29.0136" gradientUnits="userSpaceOnUse">
<stop stop-color="#7C72FF"/>
<stop offset="1" stop-color="#6D64F4"/>
</linearGradient>
<linearGradient id="paint16_linear" x1="56.2422" y1="56.9739" x2="77.3979" y2="56.9739" gradientUnits="userSpaceOnUse">
<stop stop-color="#7C72FF"/>
<stop offset="1" stop-color="#6D64F4"/>
</linearGradient>
<linearGradient id="paint17_linear" x1="84.2169" y1="56.9738" x2="105.371" y2="56.9738" gradientUnits="userSpaceOnUse">
<stop stop-color="#7C72FF"/>
<stop offset="1" stop-color="#6D64F4"/>
</linearGradient>
<linearGradient id="paint18_linear" x1="25.5603" y1="38.977" x2="40.5164" y2="38.977" gradientUnits="userSpaceOnUse">
<stop stop-color="#7C72FF"/>
<stop offset="1" stop-color="#6D64F4"/>
</linearGradient>
<linearGradient id="paint19_linear" x1="5.7832" y1="38.9766" x2="20.74" y2="38.9766" gradientUnits="userSpaceOnUse">
<stop stop-color="#7C72FF"/>
<stop offset="1" stop-color="#6D64F4"/>
</linearGradient>
<linearGradient id="paint20_linear" x1="5.7832" y1="58.7444" x2="20.74" y2="58.7444" gradientUnits="userSpaceOnUse">
<stop stop-color="#7C72FF"/>
<stop offset="1" stop-color="#6D64F4"/>
</linearGradient>
<linearGradient id="paint21_linear" x1="25.5603" y1="58.7448" x2="40.5164" y2="58.7448" gradientUnits="userSpaceOnUse">
<stop stop-color="#7C72FF"/>
<stop offset="1" stop-color="#6D64F4"/>
</linearGradient>
</defs>
</svg>
