<svg width="142" height="88" viewBox="0 0 142 88" fill="none" xmlns="http://www.w3.org/2000/svg">
<mask id="mask0" mask-type="alpha" maskUnits="userSpaceOnUse" x="73" y="43" width="69" height="45">
<path fill-rule="evenodd" clip-rule="evenodd" d="M74.5596 43.5151C74.221 43.5151 73.9473 43.7888 73.9473 44.1272C73.9473 44.4661 74.221 44.7392 74.5596 44.7392H88.7846C96.2913 44.7392 102.397 51.2836 102.397 59.3279V71.8739C102.397 80.5932 109.495 87.6872 118.218 87.6872H141.032C141.371 87.6872 141.645 87.4135 141.645 87.0751C141.645 86.7368 141.371 86.4631 141.032 86.4631H118.218C110.17 86.4631 103.622 79.9182 103.622 71.8739V59.3279C103.622 50.6085 96.966 43.5151 88.7846 43.5151H74.5596Z" fill="white"/>
</mask>
<g mask="url(#mask0)">
<path fill-rule="evenodd" clip-rule="evenodd" d="M74.5596 43.5151C74.221 43.5151 73.9473 43.7888 73.9473 44.1272C73.9473 44.4661 74.221 44.7392 74.5596 44.7392H88.7846C96.2913 44.7392 102.397 51.2836 102.397 59.3279V71.8739C102.397 80.5932 109.495 87.6872 118.218 87.6872H141.032C141.371 87.6872 141.645 87.4135 141.645 87.0751C141.645 86.7368 141.371 86.4631 141.032 86.4631H118.218C110.17 86.4631 103.622 79.9182 103.622 71.8739V59.3279C103.622 50.6085 96.966 43.5151 88.7846 43.5151H74.5596Z" fill="url(#paint0_linear)"/>
</g>
<path fill-rule="evenodd" clip-rule="evenodd" d="M43.5806 77.4482C25.1689 77.4482 10.2458 62.5296 10.2458 44.1274C10.2458 25.7252 25.1689 10.8066 43.5806 10.8066C61.9912 10.8066 76.9131 25.7252 76.9131 44.1274C76.9131 62.5296 61.9912 77.4482 43.5806 77.4482ZM43.5806 1.17944C19.8479 1.17944 0.612549 20.4072 0.612549 44.1274C0.612549 67.8471 19.8479 87.0748 43.5806 87.0748C67.3111 87.0748 86.5475 67.8471 86.5475 44.1274C86.5475 20.4072 67.3111 1.17944 43.5806 1.17944Z" fill="white"/>
<mask id="mask1" mask-type="alpha" maskUnits="userSpaceOnUse" x="0" y="0" width="88" height="88">
<path fill-rule="evenodd" clip-rule="evenodd" d="M43.5809 0.567627C19.55 0.567627 0 20.1087 0 44.1271C0 68.146 19.55 87.6871 43.5809 87.6871C67.6102 87.6871 87.1602 68.146 87.1602 44.1271C87.1602 20.1087 67.6102 0.567627 43.5809 0.567627ZM1.22471 44.1271C1.22471 20.7832 20.226 1.79225 43.581 1.79225C66.9355 1.79225 85.9351 20.7832 85.9351 44.1271C85.9351 67.4715 66.9355 86.463 43.581 86.463C20.226 86.463 1.22471 67.4715 1.22471 44.1271ZM9.6333 44.1271C9.6333 62.8376 24.8619 78.0604 43.581 78.0604C62.2983 78.0604 77.5263 62.8376 77.5263 44.1271C77.5263 25.4171 62.2983 10.1948 43.581 10.1948C24.8619 10.1948 9.6333 25.4171 9.6333 44.1271ZM10.8584 44.1271C10.8584 26.0916 25.5372 11.4189 43.5809 11.4189C61.6228 11.4189 76.3005 26.0916 76.3005 44.1271C76.3005 62.1637 61.6228 76.8364 43.5809 76.8364C25.5372 76.8364 10.8584 62.1637 10.8584 44.1271Z" fill="white"/>
</mask>
<g mask="url(#mask1)">
<path fill-rule="evenodd" clip-rule="evenodd" d="M43.5809 0.567627C19.55 0.567627 0 20.1087 0 44.1271C0 68.146 19.55 87.6871 43.5809 87.6871C67.6102 87.6871 87.1602 68.146 87.1602 44.1271C87.1602 20.1087 67.6102 0.567627 43.5809 0.567627ZM1.22471 44.1271C1.22471 20.7832 20.226 1.79225 43.581 1.79225C66.9355 1.79225 85.9351 20.7832 85.9351 44.1271C85.9351 67.4715 66.9355 86.463 43.581 86.463C20.226 86.463 1.22471 67.4715 1.22471 44.1271ZM9.6333 44.1271C9.6333 62.8376 24.8619 78.0604 43.581 78.0604C62.2983 78.0604 77.5263 62.8376 77.5263 44.1271C77.5263 25.4171 62.2983 10.1948 43.581 10.1948C24.8619 10.1948 9.6333 25.4171 9.6333 44.1271ZM10.8584 44.1271C10.8584 26.0916 25.5372 11.4189 43.5809 11.4189C61.6228 11.4189 76.3005 26.0916 76.3005 44.1271C76.3005 62.1637 61.6228 76.8364 43.5809 76.8364C25.5372 76.8364 10.8584 62.1637 10.8584 44.1271Z" fill="url(#paint1_linear)"/>
</g>
<path fill-rule="evenodd" clip-rule="evenodd" d="M48.2095 72.6385V54.5787C50.7849 53.4415 52.853 51.3749 53.9889 48.8007H72.057C70.1042 61.0151 60.4278 70.6855 48.2095 72.6385ZM36.1241 44.1271C36.1241 40.0098 39.464 36.6755 43.5808 36.6755C47.6966 36.6755 51.0359 40.0098 51.0359 44.1271C51.0359 48.2438 47.6966 51.5793 43.5808 51.5793C39.464 51.5793 36.1241 48.2438 36.1241 44.1271ZM38.9041 72.6385C26.6841 70.6855 17.0082 61.0151 15.0554 48.8007H33.1224C34.2607 51.3749 36.3276 53.4415 38.9041 54.5787V72.6385ZM38.9041 15.6628V33.7215C36.3276 34.8581 34.2607 36.9253 33.1224 39.4994H15.0554C17.0082 27.2856 26.6841 17.6147 38.9041 15.6628ZM48.2095 15.6628C60.4278 17.6147 70.1042 27.2856 72.057 39.4994H53.9889C52.853 36.9253 50.7849 34.8581 48.2095 33.7215V15.6628ZM43.5809 10.8069C25.1692 10.8069 10.2461 25.7254 10.2461 44.1271C10.2461 62.5293 25.1692 77.4484 43.5809 77.4484C61.9909 77.4484 76.9134 62.5293 76.9134 44.1271C76.9134 25.7254 61.9909 10.8069 43.5809 10.8069Z" fill="white"/>
<mask id="mask2" mask-type="alpha" maskUnits="userSpaceOnUse" x="9" y="10" width="69" height="69">
<path fill-rule="evenodd" clip-rule="evenodd" d="M9.6333 44.1271C9.6333 62.8376 24.8619 78.0604 43.581 78.0604C62.2983 78.0604 77.5263 62.8376 77.5263 44.1271C77.5263 25.4171 62.2983 10.1948 43.581 10.1948C24.8619 10.1948 9.6333 25.4171 9.6333 44.1271ZM10.8584 44.1271C10.8584 26.0916 25.5372 11.4189 43.5809 11.4189C61.6228 11.4189 76.3005 26.0916 76.3005 44.1271C76.3005 62.1636 61.6228 76.8364 43.5809 76.8364C25.5372 76.8364 10.8584 62.1636 10.8584 44.1271ZM47.8126 15.1961C47.6763 15.3136 47.5973 15.4833 47.5973 15.6627V33.7215C47.5973 33.9645 47.741 34.1831 47.9626 34.2813C50.4078 35.3611 52.3498 37.3022 53.4296 39.7469C53.5261 39.9678 53.7465 40.1114 53.989 40.1114H72.0571C72.2366 40.1114 72.407 40.0325 72.524 39.8962C72.6393 39.76 72.6904 39.5794 72.6626 39.4029C70.6542 26.8484 60.8664 17.0651 48.3062 15.0575C48.2755 15.053 48.2448 15.0507 48.2142 15.0507C48.0682 15.0507 47.9256 15.1013 47.8126 15.1961ZM48.8218 33.3309V16.3895C60.2818 18.5179 69.2005 27.4337 71.33 38.8874H54.3814C53.2079 36.4557 51.2557 34.5033 48.8218 33.3309ZM38.8074 15.0575C26.2473 17.0651 16.4583 26.8484 14.4499 39.4029C14.4226 39.5794 14.4726 39.76 14.5885 39.8962C14.7055 40.0325 14.8753 40.1114 15.0554 40.1114H33.1223C33.3649 40.1114 33.5835 39.9678 33.6818 39.7469C34.7639 37.3011 36.707 35.3606 39.1511 34.2813C39.3726 34.1831 39.5163 33.9645 39.5163 33.7215V15.6627C39.5163 15.4833 39.4374 15.3136 39.301 15.1961C39.188 15.1013 39.0454 15.0507 38.8995 15.0507C38.8688 15.0507 38.8381 15.053 38.8074 15.0575ZM38.2917 16.3895V33.3309C35.8584 34.5016 33.9056 36.4546 32.7309 38.8874H15.7824C17.9113 27.4326 26.8317 18.5179 38.2917 16.3895ZM35.5119 44.1271C35.5119 48.5742 39.1312 52.1918 43.5809 52.1918C48.0295 52.1918 51.6482 48.5742 51.6482 44.1271C51.6482 39.6811 48.0295 36.0634 43.5809 36.0634C39.1312 36.0634 35.5119 39.6811 35.5119 44.1271ZM36.7372 44.1271C36.7372 40.3561 39.8067 37.288 43.5811 37.288C47.3548 37.288 50.4237 40.3561 50.4237 44.1271C50.4237 47.8991 47.3548 50.9672 43.5811 50.9672C39.8067 50.9672 36.7372 47.8991 36.7372 44.1271ZM53.989 48.1887C53.7465 48.1887 53.5261 48.3329 53.4296 48.5532C52.3498 50.9984 50.4078 52.939 47.9626 54.0188C47.741 54.1176 47.5973 54.3362 47.5973 54.5786V72.6385C47.5973 72.8185 47.6763 72.9888 47.8126 73.1057C47.9234 73.1994 48.0654 73.2511 48.2096 73.2511C48.242 73.2511 48.2744 73.2488 48.3062 73.2443C60.8664 71.2356 70.6542 61.4506 72.6626 48.8972C72.6904 48.7207 72.6393 48.5407 72.524 48.4044C72.407 48.2682 72.2366 48.1887 72.0571 48.1887H53.989ZM48.8218 54.9698C51.2557 53.7968 53.2079 51.8449 54.3814 49.4127H71.33C69.2022 60.8669 60.2818 69.7827 48.8218 71.9123V54.9698ZM15.0554 48.1887C14.8753 48.1887 14.7055 48.2682 14.5885 48.4044C14.4726 48.5407 14.4226 48.7207 14.4499 48.8972C16.4583 61.4506 26.2461 71.2356 38.8074 73.2443C38.8393 73.2488 38.8716 73.2511 38.904 73.2511C39.0483 73.2511 39.1903 73.1994 39.301 73.1057C39.4374 72.9888 39.5163 72.8185 39.5163 72.6385V54.5786C39.5163 54.3362 39.3726 54.1176 39.1511 54.0188C36.707 52.9401 34.7639 50.9996 33.6818 48.5532C33.5835 48.3329 33.3649 48.1887 33.1223 48.1887H15.0554ZM15.7824 49.4127H32.7309C33.9056 51.8461 35.8584 53.798 38.2917 54.9698V71.9123C26.8317 69.7827 17.9113 60.8669 15.7824 49.4127Z" fill="white"/>
</mask>
<g mask="url(#mask2)">
<path fill-rule="evenodd" clip-rule="evenodd" d="M9.6333 44.1271C9.6333 62.8376 24.8619 78.0604 43.581 78.0604C62.2983 78.0604 77.5263 62.8376 77.5263 44.1271C77.5263 25.4171 62.2983 10.1948 43.581 10.1948C24.8619 10.1948 9.6333 25.4171 9.6333 44.1271ZM10.8584 44.1271C10.8584 26.0916 25.5372 11.4189 43.5809 11.4189C61.6228 11.4189 76.3005 26.0916 76.3005 44.1271C76.3005 62.1636 61.6228 76.8364 43.5809 76.8364C25.5372 76.8364 10.8584 62.1636 10.8584 44.1271ZM47.8126 15.1961C47.6763 15.3136 47.5973 15.4833 47.5973 15.6627V33.7215C47.5973 33.9645 47.741 34.1831 47.9626 34.2813C50.4078 35.3611 52.3498 37.3022 53.4296 39.7469C53.5261 39.9678 53.7465 40.1114 53.989 40.1114H72.0571C72.2366 40.1114 72.407 40.0325 72.524 39.8962C72.6393 39.76 72.6904 39.5794 72.6626 39.4029C70.6542 26.8484 60.8664 17.0651 48.3062 15.0575C48.2755 15.053 48.2448 15.0507 48.2142 15.0507C48.0682 15.0507 47.9256 15.1013 47.8126 15.1961ZM48.8218 33.3309V16.3895C60.2818 18.5179 69.2005 27.4337 71.33 38.8874H54.3814C53.2079 36.4557 51.2557 34.5033 48.8218 33.3309ZM38.8074 15.0575C26.2473 17.0651 16.4583 26.8484 14.4499 39.4029C14.4226 39.5794 14.4726 39.76 14.5885 39.8962C14.7055 40.0325 14.8753 40.1114 15.0554 40.1114H33.1223C33.3649 40.1114 33.5835 39.9678 33.6818 39.7469C34.7639 37.3011 36.707 35.3606 39.1511 34.2813C39.3726 34.1831 39.5163 33.9645 39.5163 33.7215V15.6627C39.5163 15.4833 39.4374 15.3136 39.301 15.1961C39.188 15.1013 39.0454 15.0507 38.8995 15.0507C38.8688 15.0507 38.8381 15.053 38.8074 15.0575ZM38.2917 16.3895V33.3309C35.8584 34.5016 33.9056 36.4546 32.7309 38.8874H15.7824C17.9113 27.4326 26.8317 18.5179 38.2917 16.3895ZM35.5119 44.1271C35.5119 48.5742 39.1312 52.1918 43.5809 52.1918C48.0295 52.1918 51.6482 48.5742 51.6482 44.1271C51.6482 39.6811 48.0295 36.0634 43.5809 36.0634C39.1312 36.0634 35.5119 39.6811 35.5119 44.1271ZM36.7372 44.1271C36.7372 40.3561 39.8067 37.288 43.5811 37.288C47.3548 37.288 50.4237 40.3561 50.4237 44.1271C50.4237 47.8991 47.3548 50.9672 43.5811 50.9672C39.8067 50.9672 36.7372 47.8991 36.7372 44.1271ZM53.989 48.1887C53.7465 48.1887 53.5261 48.3329 53.4296 48.5532C52.3498 50.9984 50.4078 52.939 47.9626 54.0188C47.741 54.1176 47.5973 54.3362 47.5973 54.5786V72.6385C47.5973 72.8185 47.6763 72.9888 47.8126 73.1057C47.9234 73.1994 48.0654 73.2511 48.2096 73.2511C48.242 73.2511 48.2744 73.2488 48.3062 73.2443C60.8664 71.2356 70.6542 61.4506 72.6626 48.8972C72.6904 48.7207 72.6393 48.5407 72.524 48.4044C72.407 48.2682 72.2366 48.1887 72.0571 48.1887H53.989ZM48.8218 54.9698C51.2557 53.7968 53.2079 51.8449 54.3814 49.4127H71.33C69.2022 60.8669 60.2818 69.7827 48.8218 71.9123V54.9698ZM15.0554 48.1887C14.8753 48.1887 14.7055 48.2682 14.5885 48.4044C14.4726 48.5407 14.4226 48.7207 14.4499 48.8972C16.4583 61.4506 26.2461 71.2356 38.8074 73.2443C38.8393 73.2488 38.8716 73.2511 38.904 73.2511C39.0483 73.2511 39.1903 73.1994 39.301 73.1057C39.4374 72.9888 39.5163 72.8185 39.5163 72.6385V54.5786C39.5163 54.3362 39.3726 54.1176 39.1511 54.0188C36.707 52.9401 34.7639 50.9996 33.6818 48.5532C33.5835 48.3329 33.3649 48.1887 33.1223 48.1887H15.0554ZM15.7824 49.4127H32.7309C33.9056 51.8461 35.8584 53.798 38.2917 54.9698V71.9123C26.8317 69.7827 17.9113 60.8669 15.7824 49.4127Z" fill="url(#paint2_linear)"/>
</g>
<path fill-rule="evenodd" clip-rule="evenodd" d="M43.5806 36.6755C39.4638 36.6755 36.1245 40.0099 36.1245 44.1272C36.1245 48.2439 39.4638 51.5793 43.5806 51.5793C47.6964 51.5793 51.0357 48.2439 51.0357 44.1272C51.0357 40.0099 47.6964 36.6755 43.5806 36.6755Z" fill="white"/>
<mask id="mask3" mask-type="alpha" maskUnits="userSpaceOnUse" x="35" y="36" width="17" height="17">
<path fill-rule="evenodd" clip-rule="evenodd" d="M35.512 44.1271C35.512 48.5742 39.1313 52.1919 43.581 52.1919C48.0295 52.1919 51.6483 48.5742 51.6483 44.1271C51.6483 39.6811 48.0295 36.0635 43.581 36.0635C39.1313 36.0635 35.512 39.6811 35.512 44.1271ZM36.737 44.1271C36.737 40.3562 39.8065 37.2881 43.5809 37.2881C47.3547 37.2881 50.4236 40.3562 50.4236 44.1271C50.4236 47.8992 47.3547 50.9673 43.5809 50.9673C39.8065 50.9673 36.737 47.8992 36.737 44.1271Z" fill="white"/>
</mask>
<g mask="url(#mask3)">
<path fill-rule="evenodd" clip-rule="evenodd" d="M35.512 44.1271C35.512 48.5742 39.1313 52.1919 43.581 52.1919C48.0295 52.1919 51.6483 48.5742 51.6483 44.1271C51.6483 39.6811 48.0295 36.0635 43.581 36.0635C39.1313 36.0635 35.512 39.6811 35.512 44.1271ZM36.737 44.1271C36.737 40.3562 39.8065 37.2881 43.5809 37.2881C47.3547 37.2881 50.4236 40.3562 50.4236 44.1271C50.4236 47.8992 47.3547 50.9673 43.5809 50.9673C39.8065 50.9673 36.737 47.8992 36.737 44.1271Z" fill="url(#paint3_linear)"/>
</g>
<path fill-rule="evenodd" clip-rule="evenodd" d="M48.2095 15.6626V33.7219C50.7848 34.8585 52.8529 36.9251 53.9889 39.4992H72.057C70.1042 27.286 60.4277 17.6145 48.2095 15.6626Z" fill="white"/>
<mask id="mask4" mask-type="alpha" maskUnits="userSpaceOnUse" x="47" y="15" width="26" height="26">
<path fill-rule="evenodd" clip-rule="evenodd" d="M47.8127 15.1961C47.6764 15.3136 47.5974 15.4834 47.5974 15.6628V33.7215C47.5974 33.9645 47.7411 34.1831 47.9626 34.2813C50.4079 35.3612 52.3499 37.3023 53.4296 39.747C53.5262 39.9678 53.7466 40.1115 53.9891 40.1115H72.0572C72.2367 40.1115 72.4071 40.0326 72.5241 39.8963C72.6394 39.76 72.6905 39.5795 72.6627 39.4029C70.6542 26.8485 60.8665 17.0651 48.3063 15.0576C48.2756 15.0531 48.2449 15.0508 48.2143 15.0508C48.0683 15.0508 47.9257 15.1013 47.8127 15.1961ZM48.8221 33.3309V16.3895C60.2821 18.518 69.2008 27.4338 71.3303 38.8874H54.3817C53.2082 36.4558 51.256 34.5033 48.8221 33.3309Z" fill="white"/>
</mask>
<g mask="url(#mask4)">
<path fill-rule="evenodd" clip-rule="evenodd" d="M47.8127 15.1961C47.6764 15.3136 47.5974 15.4834 47.5974 15.6628V33.7215C47.5974 33.9645 47.7411 34.1831 47.9626 34.2813C50.4079 35.3612 52.3499 37.3023 53.4296 39.747C53.5262 39.9678 53.7466 40.1115 53.9891 40.1115H72.0572C72.2367 40.1115 72.4071 40.0326 72.5241 39.8963C72.6394 39.76 72.6905 39.5795 72.6627 39.4029C70.6542 26.8485 60.8665 17.0651 48.3063 15.0576C48.2756 15.0531 48.2449 15.0508 48.2143 15.0508C48.0683 15.0508 47.9257 15.1013 47.8127 15.1961ZM48.8221 33.3309V16.3895C60.2821 18.518 69.2008 27.4338 71.3303 38.8874H54.3817C53.2082 36.4558 51.256 34.5033 48.8221 33.3309Z" fill="url(#paint4_linear)"/>
</g>
<path fill-rule="evenodd" clip-rule="evenodd" d="M38.9043 15.6626C26.6838 17.6145 17.0084 27.286 15.0557 39.4992H33.1226C34.2609 36.9251 36.3278 34.8585 38.9043 33.7219V15.6626Z" fill="white"/>
<mask id="mask5" mask-type="alpha" maskUnits="userSpaceOnUse" x="14" y="15" width="26" height="26">
<path fill-rule="evenodd" clip-rule="evenodd" d="M38.8075 15.0576C26.2473 17.0651 16.4584 26.8485 14.4499 39.4029C14.4226 39.5795 14.4726 39.76 14.5885 39.8963C14.7055 40.0326 14.8753 40.1115 15.0554 40.1115H33.1223C33.3649 40.1115 33.5836 39.9678 33.6818 39.747C34.7639 37.3012 36.707 35.3606 39.1511 34.2813C39.3726 34.1831 39.5163 33.9645 39.5163 33.7215V15.6628C39.5163 15.4834 39.4374 15.3136 39.301 15.1961C39.188 15.1013 39.0454 15.0508 38.8995 15.0508C38.8688 15.0508 38.8381 15.0531 38.8075 15.0576ZM38.2917 16.3895V33.3309C35.8584 34.5016 33.9056 36.4547 32.731 38.8874H15.7824C17.9113 27.4327 26.8317 18.518 38.2917 16.3895Z" fill="white"/>
</mask>
<g mask="url(#mask5)">
<path fill-rule="evenodd" clip-rule="evenodd" d="M38.8075 15.0576C26.2473 17.0651 16.4584 26.8485 14.4499 39.4029C14.4226 39.5795 14.4726 39.76 14.5885 39.8963C14.7055 40.0326 14.8753 40.1115 15.0554 40.1115H33.1223C33.3649 40.1115 33.5836 39.9678 33.6818 39.747C34.7639 37.3012 36.707 35.3606 39.1511 34.2813C39.3726 34.1831 39.5163 33.9645 39.5163 33.7215V15.6628C39.5163 15.4834 39.4374 15.3136 39.301 15.1961C39.188 15.1013 39.0454 15.0508 38.8995 15.0508C38.8688 15.0508 38.8381 15.0531 38.8075 15.0576ZM38.2917 16.3895V33.3309C35.8584 34.5016 33.9056 36.4547 32.731 38.8874H15.7824C17.9113 27.4327 26.8317 18.518 38.2917 16.3895Z" fill="url(#paint5_linear)"/>
</g>
<path fill-rule="evenodd" clip-rule="evenodd" d="M33.1224 48.8005H15.0554C17.0082 61.0155 26.6841 70.6853 38.904 72.6383V54.579C36.3276 53.4418 34.2606 51.3747 33.1224 48.8005Z" fill="white"/>
<mask id="mask6" mask-type="alpha" maskUnits="userSpaceOnUse" x="14" y="48" width="26" height="26">
<path fill-rule="evenodd" clip-rule="evenodd" d="M15.0554 48.1887C14.8753 48.1887 14.7055 48.2682 14.5885 48.4045C14.4726 48.5407 14.4226 48.7207 14.4499 48.8973C16.4584 61.4506 26.2461 71.2356 38.8075 73.2443C38.8393 73.2488 38.8716 73.2511 38.904 73.2511C39.0483 73.2511 39.1903 73.1995 39.301 73.1058C39.4374 72.9888 39.5163 72.8185 39.5163 72.6385V54.5787C39.5163 54.3362 39.3726 54.1176 39.1511 54.0189C36.707 52.9402 34.7639 50.9996 33.6818 48.5532C33.5836 48.3329 33.3649 48.1887 33.1223 48.1887H15.0554ZM15.7824 49.4128H32.731C33.9056 51.8461 35.8584 53.798 38.2917 54.9698V71.9124C26.8317 69.7828 17.9113 60.867 15.7824 49.4128Z" fill="white"/>
</mask>
<g mask="url(#mask6)">
<path fill-rule="evenodd" clip-rule="evenodd" d="M15.0554 48.1887C14.8753 48.1887 14.7055 48.2682 14.5885 48.4045C14.4726 48.5407 14.4226 48.7207 14.4499 48.8973C16.4584 61.4506 26.2461 71.2356 38.8075 73.2443C38.8393 73.2488 38.8716 73.2511 38.904 73.2511C39.0483 73.2511 39.1903 73.1995 39.301 73.1058C39.4374 72.9888 39.5163 72.8185 39.5163 72.6385V54.5787C39.5163 54.3362 39.3726 54.1176 39.1511 54.0189C36.707 52.9402 34.7639 50.9996 33.6818 48.5532C33.5836 48.3329 33.3649 48.1887 33.1223 48.1887H15.0554ZM15.7824 49.4128H32.731C33.9056 51.8461 35.8584 53.798 38.2917 54.9698V71.9124C26.8317 69.7828 17.9113 60.867 15.7824 49.4128Z" fill="url(#paint6_linear)"/>
</g>
<path fill-rule="evenodd" clip-rule="evenodd" d="M48.2095 72.6386C60.4277 70.6855 70.1042 61.0152 72.057 48.8008H53.9889C52.8529 51.3749 50.7848 53.4415 48.2095 54.5787V72.6386Z" fill="white"/>
<mask id="mask7" mask-type="alpha" maskUnits="userSpaceOnUse" x="47" y="48" width="26" height="26">
<path fill-rule="evenodd" clip-rule="evenodd" d="M53.9891 48.1887C53.7466 48.1887 53.5262 48.3329 53.4296 48.5532C52.3499 50.9985 50.4079 52.939 47.9626 54.0189C47.7411 54.1176 47.5974 54.3362 47.5974 54.5787V72.6385C47.5974 72.8185 47.6764 72.9888 47.8127 73.1058C47.9234 73.1995 48.0654 73.2511 48.2097 73.2511C48.2421 73.2511 48.2745 73.2488 48.3063 73.2443C60.8665 71.2356 70.6542 61.4506 72.6627 48.8973C72.6905 48.7207 72.6394 48.5407 72.5241 48.4045C72.4071 48.2682 72.2367 48.1887 72.0572 48.1887H53.9891ZM48.8221 54.9698C51.256 53.7969 53.2082 51.845 54.3817 49.4128H71.3303C69.2025 60.867 60.2821 69.7828 48.8221 71.9124V54.9698Z" fill="white"/>
</mask>
<g mask="url(#mask7)">
<path fill-rule="evenodd" clip-rule="evenodd" d="M53.9891 48.1887C53.7466 48.1887 53.5262 48.3329 53.4296 48.5532C52.3499 50.9985 50.4079 52.939 47.9626 54.0189C47.7411 54.1176 47.5974 54.3362 47.5974 54.5787V72.6385C47.5974 72.8185 47.6764 72.9888 47.8127 73.1058C47.9234 73.1995 48.0654 73.2511 48.2097 73.2511C48.2421 73.2511 48.2745 73.2488 48.3063 73.2443C60.8665 71.2356 70.6542 61.4506 72.6627 48.8973C72.6905 48.7207 72.6394 48.5407 72.5241 48.4045C72.4071 48.2682 72.2367 48.1887 72.0572 48.1887H53.9891ZM48.8221 54.9698C51.256 53.7969 53.2082 51.845 54.3817 49.4128H71.3303C69.2025 60.867 60.2821 69.7828 48.8221 71.9124V54.9698Z" fill="url(#paint7_linear)"/>
</g>
<defs>
<linearGradient id="paint0_linear" x1="73.9469" y1="87.6872" x2="141.645" y2="87.6872" gradientUnits="userSpaceOnUse">
<stop stop-color="#7C72FF"/>
<stop offset="1" stop-color="#6D64F4"/>
</linearGradient>
<linearGradient id="paint1_linear" x1="0" y1="87.687" x2="87.1602" y2="87.687" gradientUnits="userSpaceOnUse">
<stop stop-color="#7C72FF"/>
<stop offset="1" stop-color="#6D64F4"/>
</linearGradient>
<linearGradient id="paint2_linear" x1="9.63296" y1="78.0603" x2="77.5259" y2="78.0603" gradientUnits="userSpaceOnUse">
<stop stop-color="#7C72FF"/>
<stop offset="1" stop-color="#6D64F4"/>
</linearGradient>
<linearGradient id="paint3_linear" x1="35.512" y1="52.1918" x2="51.6483" y2="52.1918" gradientUnits="userSpaceOnUse">
<stop stop-color="#7C72FF"/>
<stop offset="1" stop-color="#6D64F4"/>
</linearGradient>
<linearGradient id="paint4_linear" x1="47.5973" y1="40.1116" x2="72.67" y2="40.1116" gradientUnits="userSpaceOnUse">
<stop stop-color="#7C72FF"/>
<stop offset="1" stop-color="#6D64F4"/>
</linearGradient>
<linearGradient id="paint5_linear" x1="14.4425" y1="40.1117" x2="39.5164" y2="40.1117" gradientUnits="userSpaceOnUse">
<stop stop-color="#7C72FF"/>
<stop offset="1" stop-color="#6D64F4"/>
</linearGradient>
<linearGradient id="paint6_linear" x1="14.4425" y1="73.2512" x2="39.5164" y2="73.2512" gradientUnits="userSpaceOnUse">
<stop stop-color="#7C72FF"/>
<stop offset="1" stop-color="#6D64F4"/>
</linearGradient>
<linearGradient id="paint7_linear" x1="47.5973" y1="73.2511" x2="72.67" y2="73.2511" gradientUnits="userSpaceOnUse">
<stop stop-color="#7C72FF"/>
<stop offset="1" stop-color="#6D64F4"/>
</linearGradient>
</defs>
</svg>
