<svg width="123" height="162" viewBox="0 0 123 162" fill="none" xmlns="http://www.w3.org/2000/svg">
<path fill-rule="evenodd" clip-rule="evenodd" d="M103.13 96.8506C103.13 101.557 99.2771 105.407 94.5679 105.407H18.0344C13.3251 105.407 9.47241 101.557 9.47241 96.8506V66.6143C9.47241 61.9086 13.3251 58.0583 18.0344 58.0583H94.5679C99.2771 58.0583 103.13 61.9086 103.13 66.6143V96.8506Z" fill="white"/>
<mask id="mask0" mask-type="alpha" maskUnits="userSpaceOnUse" x="8" y="57" width="96" height="50">
<path fill-rule="evenodd" clip-rule="evenodd" d="M18.0348 57.3679C12.9328 57.3679 8.78223 61.5159 8.78223 66.6141V96.8511C8.78223 101.949 12.9328 106.098 18.0348 106.098H94.5677C99.6696 106.098 103.821 101.949 103.821 96.8511V66.6141C103.821 61.5159 99.6696 57.3679 94.5677 57.3679H18.0348ZM10.1635 96.8511V66.6141C10.1635 62.2772 13.6953 58.7484 18.0349 58.7484H94.5678C98.9074 58.7484 102.44 62.2772 102.44 66.6141V96.8511C102.44 101.189 98.9074 104.717 94.5678 104.717H18.0349C13.6953 104.717 10.1635 101.189 10.1635 96.8511Z" fill="white"/>
</mask>
<g mask="url(#mask0)">
<path fill-rule="evenodd" clip-rule="evenodd" d="M18.0348 57.3679C12.9328 57.3679 8.78223 61.5159 8.78223 66.6141V96.8511C8.78223 101.949 12.9328 106.098 18.0348 106.098H94.5677C99.6696 106.098 103.821 101.949 103.821 96.8511V66.6141C103.821 61.5159 99.6696 57.3679 94.5677 57.3679H18.0348ZM10.1635 96.8511V66.6141C10.1635 62.2772 13.6953 58.7484 18.0349 58.7484H94.5678C98.9074 58.7484 102.44 62.2772 102.44 66.6141V96.8511C102.44 101.189 98.9074 104.717 94.5678 104.717H18.0349C13.6953 104.717 10.1635 101.189 10.1635 96.8511Z" fill="url(#paint0_linear)"/>
</g>
<path fill-rule="evenodd" clip-rule="evenodd" d="M111.914 32.4219C111.914 49.5926 97.9863 63.5137 80.806 63.5137C63.6264 63.5137 49.6992 49.5926 49.6992 32.4219C49.6992 15.2506 63.6264 1.33008 80.806 1.33008C97.9863 1.33008 111.914 15.2506 111.914 32.4219Z" fill="white"/>
<mask id="mask1" mask-type="alpha" maskUnits="userSpaceOnUse" x="49" y="0" width="64" height="65">
<path fill-rule="evenodd" clip-rule="evenodd" d="M80.8065 0.640381C63.2732 0.640381 49.009 14.8977 49.009 32.4225C49.009 49.9473 63.2732 64.2039 80.8065 64.2039C98.3397 64.2039 112.605 49.9473 112.605 32.4225C112.605 14.8977 98.3397 0.640381 80.8065 0.640381ZM50.3903 32.4225C50.3903 15.659 64.0356 2.0209 80.8065 2.0209C97.5781 2.0209 111.223 15.659 111.223 32.4225C111.223 49.1853 97.5781 62.8234 80.8065 62.8234C64.0356 62.8234 50.3903 49.1853 50.3903 32.4225Z" fill="white"/>
</mask>
<g mask="url(#mask1)">
<path fill-rule="evenodd" clip-rule="evenodd" d="M80.8065 0.640381C63.2732 0.640381 49.009 14.8977 49.009 32.4225C49.009 49.9473 63.2732 64.2039 80.8065 64.2039C98.3397 64.2039 112.605 49.9473 112.605 32.4225C112.605 14.8977 98.3397 0.640381 80.8065 0.640381ZM50.3903 32.4225C50.3903 15.659 64.0356 2.0209 80.8065 2.0209C97.5781 2.0209 111.223 15.659 111.223 32.4225C111.223 49.1853 97.5781 62.8234 80.8065 62.8234C64.0356 62.8234 50.3903 49.1853 50.3903 32.4225Z" fill="url(#paint1_linear)"/>
</g>
<path fill-rule="evenodd" clip-rule="evenodd" d="M45.2099 41.2654C45.2099 53.5531 35.243 63.5138 22.9494 63.5138C10.6558 63.5138 0.690918 53.5531 0.690918 41.2654C0.690918 28.9771 10.6558 19.0164 22.9494 19.0164C35.243 19.0164 45.2099 28.9771 45.2099 41.2654Z" fill="white"/>
<mask id="mask2" mask-type="alpha" maskUnits="userSpaceOnUse" x="0" y="18" width="46" height="47">
<path fill-rule="evenodd" clip-rule="evenodd" d="M0 41.2653C0 53.9135 10.2955 64.204 22.9497 64.204C35.6053 64.204 45.9008 53.9135 45.9008 41.2653C45.9008 28.6172 35.6053 18.3267 22.9497 18.3267C10.2955 18.3267 0 28.6172 0 41.2653ZM1.38127 41.2653C1.38127 29.3785 11.0566 19.7072 22.9498 19.7072C34.8424 19.7072 44.519 29.3785 44.519 41.2653C44.519 53.1522 34.8424 62.8235 22.9498 62.8235C11.0566 62.8235 1.38127 53.1522 1.38127 41.2653Z" fill="white"/>
</mask>
<g mask="url(#mask2)">
<path fill-rule="evenodd" clip-rule="evenodd" d="M0 41.2653C0 53.9135 10.2955 64.204 22.9497 64.204C35.6053 64.204 45.9008 53.9135 45.9008 41.2653C45.9008 28.6172 35.6053 18.3267 22.9497 18.3267C10.2955 18.3267 0 28.6172 0 41.2653ZM1.38127 41.2653C1.38127 29.3785 11.0566 19.7072 22.9498 19.7072C34.8424 19.7072 44.519 29.3785 44.519 41.2653C44.519 53.1522 34.8424 62.8235 22.9498 62.8235C11.0566 62.8235 1.38127 53.1522 1.38127 41.2653Z" fill="url(#paint2_linear)"/>
</g>
<path fill-rule="evenodd" clip-rule="evenodd" d="M86.3361 32.4216C86.3361 35.4746 83.8607 37.9488 80.8062 37.9488C77.7524 37.9488 75.2764 35.4746 75.2764 32.4216C75.2764 29.3692 77.7524 26.895 80.8062 26.895C83.8607 26.895 86.3361 29.3692 86.3361 32.4216Z" fill="white"/>
<mask id="mask3" mask-type="alpha" maskUnits="userSpaceOnUse" x="74" y="26" width="13" height="13">
<path fill-rule="evenodd" clip-rule="evenodd" d="M74.9717 32.4218C74.9717 35.6375 77.5893 38.2538 80.8065 38.2538C84.0237 38.2538 86.6413 35.6375 86.6413 32.4218C86.6413 29.2062 84.0237 26.5898 80.8065 26.5898C77.5893 26.5898 74.9717 29.2062 74.9717 32.4218ZM75.5822 32.4218C75.5822 29.5423 77.9256 27.2001 80.8064 27.2001C83.6873 27.2001 86.0314 29.5423 86.0314 32.4218C86.0314 35.3013 83.6873 37.6443 80.8064 37.6443C77.9256 37.6443 75.5822 35.3013 75.5822 32.4218Z" fill="white"/>
</mask>
<g mask="url(#mask3)">
<path fill-rule="evenodd" clip-rule="evenodd" d="M74.9717 32.4218C74.9717 35.6375 77.5893 38.2538 80.8065 38.2538C84.0237 38.2538 86.6413 35.6375 86.6413 32.4218C86.6413 29.2062 84.0237 26.5898 80.8065 26.5898C77.5893 26.5898 74.9717 29.2062 74.9717 32.4218ZM75.5822 32.4218C75.5822 29.5423 77.9256 27.2001 80.8064 27.2001C83.6873 27.2001 86.0314 29.5423 86.0314 32.4218C86.0314 35.3013 83.6873 37.6443 80.8064 37.6443C77.9256 37.6443 75.5822 35.3013 75.5822 32.4218Z" fill="url(#paint3_linear)"/>
</g>
<path fill-rule="evenodd" clip-rule="evenodd" d="M41.0198 105.407V105.699C41.0198 109.555 44.1467 112.681 48.0045 112.681H64.5967C68.4565 112.681 71.5834 109.555 71.5834 105.699V105.407H41.0198Z" fill="white"/>
<mask id="mask4" mask-type="alpha" maskUnits="userSpaceOnUse" x="40" y="104" width="33" height="10">
<path fill-rule="evenodd" clip-rule="evenodd" d="M41.0198 104.717C40.638 104.717 40.3286 105.026 40.3286 105.408V105.699C40.3286 109.929 43.7733 113.371 48.0046 113.371H64.5961C68.8294 113.371 72.274 109.929 72.274 105.699V105.408C72.274 105.026 71.9646 104.717 71.5834 104.717H41.0198ZM41.7227 106.098H70.8801C70.6738 109.382 67.9339 111.991 64.5962 111.991H48.0047C44.6689 111.991 41.929 109.382 41.7227 106.098Z" fill="white"/>
</mask>
<g mask="url(#mask4)">
<path fill-rule="evenodd" clip-rule="evenodd" d="M41.0198 104.717C40.638 104.717 40.3286 105.026 40.3286 105.408V105.699C40.3286 109.929 43.7733 113.371 48.0046 113.371H64.5961C68.8294 113.371 72.274 109.929 72.274 105.699V105.408C72.274 105.026 71.9646 104.717 71.5834 104.717H41.0198ZM41.7227 106.098H70.8801C70.6738 109.382 67.9339 111.991 64.5962 111.991H48.0047C44.6689 111.991 41.929 109.382 41.7227 106.098Z" fill="url(#paint4_linear)"/>
</g>
<mask id="mask5" mask-type="alpha" maskUnits="userSpaceOnUse" x="55" y="111" width="2" height="50">
<path fill-rule="evenodd" clip-rule="evenodd" d="M55.6106 112.681V160.176C55.6106 160.557 55.9194 160.866 56.3012 160.866C56.683 160.866 56.9918 160.557 56.9918 160.176V112.681C56.9918 112.299 56.683 111.991 56.3012 111.991C55.9194 111.991 55.6106 112.299 55.6106 112.681Z" fill="white"/>
</mask>
<g mask="url(#mask5)">
<path fill-rule="evenodd" clip-rule="evenodd" d="M55.6106 112.681V160.176C55.6106 160.557 55.9194 160.866 56.3012 160.866C56.683 160.866 56.9918 160.557 56.9918 160.176V112.681C56.9918 112.299 56.683 111.991 56.3012 111.991C55.9194 111.991 55.6106 112.299 55.6106 112.681Z" fill="url(#paint5_linear)"/>
</g>
<mask id="mask6" mask-type="alpha" maskUnits="userSpaceOnUse" x="7" y="111" width="50" height="51">
<path fill-rule="evenodd" clip-rule="evenodd" d="M55.813 112.192L7.73669 160.249C7.46635 160.518 7.46635 160.955 7.73669 161.225C7.87122 161.36 8.04804 161.427 8.22485 161.427C8.40166 161.427 8.57847 161.36 8.71301 161.225L56.7893 113.169C57.059 112.899 57.059 112.463 56.7893 112.192C56.6548 112.058 56.478 111.991 56.3012 111.991C56.1244 111.991 55.9476 112.058 55.813 112.192Z" fill="white"/>
</mask>
<g mask="url(#mask6)">
<path fill-rule="evenodd" clip-rule="evenodd" d="M55.813 112.192L7.73669 160.249C7.46635 160.518 7.46635 160.955 7.73669 161.225C7.87122 161.36 8.04804 161.427 8.22485 161.427C8.40166 161.427 8.57847 161.36 8.71301 161.225L56.7893 113.169C57.059 112.899 57.059 112.463 56.7893 112.192C56.6548 112.058 56.478 111.991 56.3012 111.991C56.1244 111.991 55.9476 112.058 55.813 112.192Z" fill="url(#paint6_linear)"/>
</g>
<mask id="mask7" mask-type="alpha" maskUnits="userSpaceOnUse" x="55" y="111" width="51" height="51">
<path fill-rule="evenodd" clip-rule="evenodd" d="M55.8131 112.192C55.5434 112.463 55.5434 112.899 55.8131 113.169L103.889 161.225C104.025 161.36 104.201 161.427 104.378 161.427C104.554 161.427 104.731 161.36 104.866 161.225C105.136 160.955 105.136 160.518 104.866 160.249L56.7894 112.192C56.6549 112.058 56.4781 111.991 56.3013 111.991C56.1245 111.991 55.9476 112.058 55.8131 112.192Z" fill="white"/>
</mask>
<g mask="url(#mask7)">
<path fill-rule="evenodd" clip-rule="evenodd" d="M55.8131 112.192C55.5434 112.463 55.5434 112.899 55.8131 113.169L103.889 161.225C104.025 161.36 104.201 161.427 104.378 161.427C104.554 161.427 104.731 161.36 104.866 161.225C105.136 160.955 105.136 160.518 104.866 160.249L56.7894 112.192C56.6549 112.058 56.4781 111.991 56.3013 111.991C56.1245 111.991 55.9476 112.058 55.8131 112.192Z" fill="url(#paint7_linear)"/>
</g>
<mask id="mask8" mask-type="alpha" maskUnits="userSpaceOnUse" x="17" y="92" width="28" height="7">
<path fill-rule="evenodd" clip-rule="evenodd" d="M18.2592 92.0264C17.8767 92.0264 17.5686 92.335 17.5686 92.7166V97.8488C17.5686 98.2298 17.8767 98.539 18.2592 98.539H43.7298C44.1116 98.539 44.421 98.2298 44.421 97.8488V92.7166C44.421 92.335 44.1116 92.0264 43.7298 92.0264H18.2592ZM18.9499 97.1579H43.0393V93.4069H18.9499V97.1579Z" fill="white"/>
</mask>
<g mask="url(#mask8)">
<path fill-rule="evenodd" clip-rule="evenodd" d="M18.2592 92.0264C17.8767 92.0264 17.5686 92.335 17.5686 92.7166V97.8488C17.5686 98.2298 17.8767 98.539 18.2592 98.539H43.7298C44.1116 98.539 44.421 98.2298 44.421 97.8488V92.7166C44.421 92.335 44.1116 92.0264 43.7298 92.0264H18.2592ZM18.9499 97.1579H43.0393V93.4069H18.9499V97.1579Z" fill="url(#paint8_linear)"/>
</g>
<mask id="mask9" mask-type="alpha" maskUnits="userSpaceOnUse" x="47" y="92" width="7" height="7">
<path fill-rule="evenodd" clip-rule="evenodd" d="M48.0102 92.0264C47.6284 92.0264 47.3196 92.335 47.3196 92.7166V97.8488C47.3196 98.2298 47.6284 98.539 48.0102 98.539H53.255C53.6368 98.539 53.9456 98.2298 53.9456 97.8488V92.7166C53.9456 92.335 53.6368 92.0264 53.255 92.0264H48.0102ZM48.7009 97.1579H52.5645V93.4069H48.7009V97.1579Z" fill="white"/>
</mask>
<g mask="url(#mask9)">
<path fill-rule="evenodd" clip-rule="evenodd" d="M48.0102 92.0264C47.6284 92.0264 47.3196 92.335 47.3196 92.7166V97.8488C47.3196 98.2298 47.6284 98.539 48.0102 98.539H53.255C53.6368 98.539 53.9456 98.2298 53.9456 97.8488V92.7166C53.9456 92.335 53.6368 92.0264 53.255 92.0264H48.0102ZM48.7009 97.1579H52.5645V93.4069H48.7009V97.1579Z" fill="url(#paint9_linear)"/>
</g>
<mask id="mask10" mask-type="alpha" maskUnits="userSpaceOnUse" x="17" y="84" width="28" height="2">
<path fill-rule="evenodd" clip-rule="evenodd" d="M18.2592 84.3232C17.8767 84.3232 17.5686 84.6312 17.5686 85.0135C17.5686 85.3945 17.8767 85.7038 18.2592 85.7038H43.7298C44.1116 85.7038 44.421 85.3945 44.421 85.0135C44.421 84.6312 44.1116 84.3232 43.7298 84.3232H18.2592Z" fill="white"/>
</mask>
<g mask="url(#mask10)">
<path fill-rule="evenodd" clip-rule="evenodd" d="M18.2592 84.3232C17.8767 84.3232 17.5686 84.6312 17.5686 85.0135C17.5686 85.3945 17.8767 85.7038 18.2592 85.7038H43.7298C44.1116 85.7038 44.421 85.3945 44.421 85.0135C44.421 84.6312 44.1116 84.3232 43.7298 84.3232H18.2592Z" fill="url(#paint10_linear)"/>
</g>
<mask id="mask11" mask-type="alpha" maskUnits="userSpaceOnUse" x="17" y="77" width="37" height="2">
<path fill-rule="evenodd" clip-rule="evenodd" d="M18.2592 77.3342C17.8767 77.3342 17.5686 77.6435 17.5686 78.0245C17.5686 78.4061 17.8767 78.7154 18.2592 78.7154H53.2553C53.6371 78.7154 53.9459 78.4061 53.9459 78.0245C53.9459 77.6435 53.6371 77.3342 53.2553 77.3342H18.2592Z" fill="white"/>
</mask>
<g mask="url(#mask11)">
<path fill-rule="evenodd" clip-rule="evenodd" d="M18.2592 77.3342C17.8767 77.3342 17.5686 77.6435 17.5686 78.0245C17.5686 78.4061 17.8767 78.7154 18.2592 78.7154H53.2553C53.6371 78.7154 53.9459 78.4061 53.9459 78.0245C53.9459 77.6435 53.6371 77.3342 53.2553 77.3342H18.2592Z" fill="url(#paint11_linear)"/>
</g>
<path fill-rule="evenodd" clip-rule="evenodd" d="M105.873 73.5483V89.9174L117.448 96.5972V66.8679L105.873 73.5483Z" fill="white"/>
<mask id="mask12" mask-type="alpha" maskUnits="userSpaceOnUse" x="105" y="66" width="14" height="32">
<path fill-rule="evenodd" clip-rule="evenodd" d="M117.102 66.2695L105.527 72.95C105.314 73.0742 105.182 73.3015 105.182 73.548V89.9177C105.182 90.1642 105.314 90.3915 105.527 90.5151L117.102 97.1955C117.208 97.2564 117.329 97.2877 117.448 97.2877C117.566 97.2877 117.686 97.2564 117.793 97.1955C118.006 97.0719 118.138 96.844 118.138 96.5975V66.8676C118.138 66.6211 118.006 66.3938 117.793 66.2695C117.686 66.2087 117.567 66.178 117.447 66.178C117.328 66.178 117.209 66.2087 117.102 66.2695ZM106.563 89.5188V73.9463L116.757 68.0643V95.4014L106.563 89.5188Z" fill="white"/>
</mask>
<g mask="url(#mask12)">
<path fill-rule="evenodd" clip-rule="evenodd" d="M117.102 66.2695L105.527 72.95C105.314 73.0742 105.182 73.3015 105.182 73.548V89.9177C105.182 90.1642 105.314 90.3915 105.527 90.5151L117.102 97.1955C117.208 97.2564 117.329 97.2877 117.448 97.2877C117.566 97.2877 117.686 97.2564 117.793 97.1955C118.006 97.0719 118.138 96.844 118.138 96.5975V66.8676C118.138 66.6211 118.006 66.3938 117.793 66.2695C117.686 66.2087 117.567 66.178 117.447 66.178C117.328 66.178 117.209 66.2087 117.102 66.2695ZM106.563 89.5188V73.9463L116.757 68.0643V95.4014L106.563 89.5188Z" fill="url(#paint12_linear)"/>
</g>
<path fill-rule="evenodd" clip-rule="evenodd" d="M117.448 64.9683V98.4953L122.282 101.286V62.1785L117.448 64.9683Z" fill="white"/>
<mask id="mask13" mask-type="alpha" maskUnits="userSpaceOnUse" x="116" y="61" width="7" height="41">
<path fill-rule="evenodd" clip-rule="evenodd" d="M121.937 61.5805L117.102 64.371C116.889 64.4933 116.757 64.7219 116.757 64.9684V98.4954C116.757 98.7419 116.889 98.9705 117.102 99.0934L121.937 101.885C122.044 101.946 122.164 101.977 122.282 101.977C122.401 101.977 122.521 101.946 122.628 101.885C122.84 101.761 122.973 101.534 122.973 101.286V62.1785C122.973 61.932 122.84 61.7041 122.628 61.5805C122.521 61.519 122.402 61.4883 122.282 61.4883C122.163 61.4883 122.044 61.519 121.937 61.5805ZM118.138 98.0971V65.3673L121.591 63.3753V100.09L118.138 98.0971Z" fill="white"/>
</mask>
<g mask="url(#mask13)">
<path fill-rule="evenodd" clip-rule="evenodd" d="M121.937 61.5805L117.102 64.371C116.889 64.4933 116.757 64.7219 116.757 64.9684V98.4954C116.757 98.7419 116.889 98.9705 117.102 99.0934L121.937 101.885C122.044 101.946 122.164 101.977 122.282 101.977C122.401 101.977 122.521 101.946 122.628 101.885C122.84 101.761 122.973 101.534 122.973 101.286V62.1785C122.973 61.932 122.84 61.7041 122.628 61.5805C122.521 61.519 122.402 61.4883 122.282 61.4883C122.163 61.4883 122.044 61.519 121.937 61.5805ZM118.138 98.0971V65.3673L121.591 63.3753V100.09L118.138 98.0971Z" fill="url(#paint13_linear)"/>
</g>
<path fill-rule="evenodd" clip-rule="evenodd" d="M84.7327 8.38599V23.6223C86.9057 24.5815 88.6501 26.3257 89.6091 28.497H104.853C103.206 18.1924 95.0416 10.0329 84.7327 8.38599Z" fill="white"/>
<mask id="mask14" mask-type="alpha" maskUnits="userSpaceOnUse" x="84" y="7" width="22" height="23">
<path fill-rule="evenodd" clip-rule="evenodd" d="M84.3978 7.99306C84.2824 8.09231 84.2158 8.2351 84.2158 8.38621V23.6232C84.2158 23.8274 84.3369 24.0119 84.524 24.0951C86.5874 25.0063 88.2255 26.6435 89.1371 28.706C89.2185 28.893 89.4049 29.0134 89.6086 29.0134H104.854C105.005 29.0134 105.148 28.9474 105.248 28.8328C105.345 28.7169 105.387 28.5645 105.364 28.4159C103.67 17.8238 95.412 9.56952 84.8148 7.87588C84.7885 7.87204 84.7623 7.87012 84.736 7.87012C84.613 7.87012 84.4926 7.91302 84.3978 7.99306ZM85.2492 23.2928V8.999C94.9182 10.7944 102.444 18.3175 104.24 27.9812H89.9405C88.9495 25.9296 87.3031 24.2821 85.2492 23.2928Z" fill="white"/>
</mask>
<g mask="url(#mask14)">
<path fill-rule="evenodd" clip-rule="evenodd" d="M84.3978 7.99306C84.2824 8.09231 84.2158 8.2351 84.2158 8.38621V23.6232C84.2158 23.8274 84.3369 24.0119 84.524 24.0951C86.5874 25.0063 88.2255 26.6435 89.1371 28.706C89.2185 28.893 89.4049 29.0134 89.6086 29.0134H104.854C105.005 29.0134 105.148 28.9474 105.248 28.8328C105.345 28.7169 105.387 28.5645 105.364 28.4159C103.67 17.8238 95.412 9.56952 84.8148 7.87588C84.7885 7.87204 84.7623 7.87012 84.736 7.87012C84.613 7.87012 84.4926 7.91302 84.3978 7.99306ZM85.2492 23.2928V8.999C94.9182 10.7944 102.444 18.3175 104.24 27.9812H89.9405C88.9495 25.9296 87.3031 24.2821 85.2492 23.2928Z" fill="url(#paint14_linear)"/>
</g>
<path fill-rule="evenodd" clip-rule="evenodd" d="M76.8813 8.38599C66.5711 10.0329 58.4076 18.1924 56.7593 28.497H72.003C72.9639 26.3257 74.7077 24.5815 76.8813 23.6223V8.38599Z" fill="white"/>
<mask id="mask15" mask-type="alpha" maskUnits="userSpaceOnUse" x="56" y="7" width="22" height="23">
<path fill-rule="evenodd" clip-rule="evenodd" d="M76.8001 7.87588C66.2022 9.56952 57.9433 17.8238 56.2488 28.4159C56.2251 28.5645 56.268 28.7169 56.3661 28.8328C56.4647 28.9474 56.6076 29.0134 56.76 29.0134H72.0031C72.2081 29.0134 72.3926 28.893 72.4759 28.706C73.3881 26.6429 75.0275 25.0056 77.0903 24.0951C77.2773 24.0119 77.3978 23.8274 77.3978 23.6232V8.38621C77.3978 8.2351 77.3318 8.09231 77.2165 7.99306C77.1217 7.91302 77.0012 7.87012 76.8782 7.87012C76.8526 7.87012 76.8263 7.87204 76.8001 7.87588ZM76.365 8.999V23.2928C74.3118 24.2808 72.6641 25.9277 71.6731 27.9812H57.3731C59.1694 18.3162 66.6954 10.7944 76.365 8.999Z" fill="white"/>
</mask>
<g mask="url(#mask15)">
<path fill-rule="evenodd" clip-rule="evenodd" d="M76.8001 7.87588C66.2022 9.56952 57.9433 17.8238 56.2488 28.4159C56.2251 28.5645 56.268 28.7169 56.3661 28.8328C56.4647 28.9474 56.6076 29.0134 56.76 29.0134H72.0031C72.2081 29.0134 72.3926 28.893 72.4759 28.706C73.3881 26.6429 75.0275 25.0056 77.0903 24.0951C77.2773 24.0119 77.3978 23.8274 77.3978 23.6232V8.38621C77.3978 8.2351 77.3318 8.09231 77.2165 7.99306C77.1217 7.91302 77.0012 7.87012 76.8782 7.87012C76.8526 7.87012 76.8263 7.87204 76.8001 7.87588ZM76.365 8.999V23.2928C74.3118 24.2808 72.6641 25.9277 71.6731 27.9812H57.3731C59.1694 18.3162 66.6954 10.7944 76.365 8.999Z" fill="url(#paint15_linear)"/>
</g>
<path fill-rule="evenodd" clip-rule="evenodd" d="M72.0032 36.345H56.7595C58.4072 46.6509 66.5713 54.8091 76.8816 56.4573V41.2203C74.7079 40.2605 72.9641 38.5169 72.0032 36.345Z" fill="white"/>
<mask id="mask16" mask-type="alpha" maskUnits="userSpaceOnUse" x="56" y="35" width="22" height="22">
<path fill-rule="evenodd" clip-rule="evenodd" d="M56.76 35.8289C56.6076 35.8289 56.4647 35.8955 56.3661 36.0101C56.268 36.1253 56.2251 36.2777 56.2488 36.4269C57.9433 47.0177 66.2009 55.2727 76.8001 56.9676C76.827 56.9715 76.8539 56.974 76.8814 56.974C77.0032 56.974 77.123 56.9305 77.2165 56.8511C77.3318 56.7525 77.3978 56.609 77.3978 56.4566V41.2203C77.3978 41.0154 77.2773 40.8304 77.0903 40.7478C75.0275 39.8372 73.3881 38.1999 72.4759 36.1362C72.3926 35.9499 72.2081 35.8289 72.0031 35.8289H56.76ZM57.3731 36.8611H71.6731C72.6641 38.9139 74.3118 40.5608 76.365 41.5501V55.8439C66.6954 54.0478 59.1694 46.5247 57.3731 36.8611Z" fill="white"/>
</mask>
<g mask="url(#mask16)">
<path fill-rule="evenodd" clip-rule="evenodd" d="M56.76 35.8289C56.6076 35.8289 56.4647 35.8955 56.3661 36.0101C56.268 36.1253 56.2251 36.2777 56.2488 36.4269C57.9433 47.0177 66.2009 55.2727 76.8001 56.9676C76.827 56.9715 76.8539 56.974 76.8814 56.974C77.0032 56.974 77.123 56.9305 77.2165 56.8511C77.3318 56.7525 77.3978 56.609 77.3978 56.4566V41.2203C77.3978 41.0154 77.2773 40.8304 77.0903 40.7478C75.0275 39.8372 73.3881 38.1999 72.4759 36.1362C72.3926 35.9499 72.2081 35.8289 72.0031 35.8289H56.76ZM57.3731 36.8611H71.6731C72.6641 38.9139 74.3118 40.5608 76.365 41.5501V55.8439C66.6954 54.0478 59.1694 46.5247 57.3731 36.8611Z" fill="url(#paint16_linear)"/>
</g>
<path fill-rule="evenodd" clip-rule="evenodd" d="M84.7327 56.4571C95.0416 54.8089 103.206 46.6506 104.853 36.3447H89.6091C88.6501 38.5167 86.9057 40.2609 84.7327 41.2201V56.4571Z" fill="white"/>
<mask id="mask17" mask-type="alpha" maskUnits="userSpaceOnUse" x="84" y="35" width="22" height="22">
<path fill-rule="evenodd" clip-rule="evenodd" d="M89.6086 35.8289C89.4049 35.8289 89.2185 35.9499 89.1371 36.1362C88.2255 38.1993 86.5874 39.836 84.524 40.7478C84.3369 40.8304 84.2158 41.0154 84.2158 41.2203V56.4566C84.2158 56.609 84.2824 56.7525 84.3978 56.8511C84.4919 56.9305 84.6104 56.974 84.7328 56.974C84.7597 56.974 84.7866 56.9715 84.8148 56.9676C95.412 55.2727 103.67 47.0177 105.364 36.4269C105.387 36.2777 105.345 36.1253 105.248 36.0101C105.148 35.8955 105.005 35.8289 104.854 35.8289H89.6086ZM85.2492 41.5501C87.3031 40.5602 88.9495 38.9133 89.9405 36.8611H104.24C102.445 46.5247 94.9182 54.0478 85.2492 55.8439V41.5501Z" fill="white"/>
</mask>
<g mask="url(#mask17)">
<path fill-rule="evenodd" clip-rule="evenodd" d="M89.6086 35.8289C89.4049 35.8289 89.2185 35.9499 89.1371 36.1362C88.2255 38.1993 86.5874 39.836 84.524 40.7478C84.3369 40.8304 84.2158 41.0154 84.2158 41.2203V56.4566C84.2158 56.609 84.2824 56.7525 84.3978 56.8511C84.4919 56.9305 84.6104 56.974 84.7328 56.974C84.7597 56.974 84.7866 56.9715 84.8148 56.9676C95.412 55.2727 103.67 47.0177 105.364 36.4269C105.387 36.2777 105.345 36.1253 105.248 36.0101C105.148 35.8955 105.005 35.8289 104.854 35.8289H89.6086ZM85.2492 41.5501C87.3031 40.5602 88.9495 38.9133 89.9405 36.8611H104.24C102.445 46.5247 94.9182 54.0478 85.2492 55.8439V41.5501Z" fill="url(#paint17_linear)"/>
</g>
<path fill-rule="evenodd" clip-rule="evenodd" d="M25.926 24.3933V35.1653C27.4622 35.8434 28.6961 37.0761 29.3739 38.6115H40.1517C38.9864 31.3267 33.2144 25.5574 25.926 24.3933Z" fill="white"/>
<mask id="mask18" mask-type="alpha" maskUnits="userSpaceOnUse" x="25" y="24" width="16" height="15">
<path fill-rule="evenodd" clip-rule="evenodd" d="M25.6892 24.115C25.6078 24.1854 25.561 24.286 25.561 24.3935V35.1656C25.561 35.3103 25.6462 35.4409 25.7782 35.4992C27.2376 36.1433 28.3958 37.301 29.0396 38.7597C29.0973 38.8909 29.2293 38.9767 29.3734 38.9767H40.1513C40.2583 38.9767 40.3601 38.93 40.4299 38.8487C40.4985 38.7674 40.5292 38.6591 40.5119 38.5541C39.314 31.0656 33.4766 25.2304 25.9838 24.0324C25.9653 24.0298 25.9467 24.0286 25.9281 24.0286C25.841 24.0286 25.7564 24.0587 25.6892 24.115ZM26.2913 34.9325V24.827C33.1268 26.0961 38.4478 31.4146 39.7175 38.2468H29.6078C28.9076 36.7965 27.743 35.6317 26.2913 34.9325Z" fill="white"/>
</mask>
<g mask="url(#mask18)">
<path fill-rule="evenodd" clip-rule="evenodd" d="M25.6892 24.115C25.6078 24.1854 25.561 24.286 25.561 24.3935V35.1656C25.561 35.3103 25.6462 35.4409 25.7782 35.4992C27.2376 36.1433 28.3958 37.301 29.0396 38.7597C29.0973 38.8909 29.2293 38.9767 29.3734 38.9767H40.1513C40.2583 38.9767 40.3601 38.93 40.4299 38.8487C40.4985 38.7674 40.5292 38.6591 40.5119 38.5541C39.314 31.0656 33.4766 25.2304 25.9838 24.0324C25.9653 24.0298 25.9467 24.0286 25.9281 24.0286C25.841 24.0286 25.7564 24.0587 25.6892 24.115ZM26.2913 34.9325V24.827C33.1268 26.0961 38.4478 31.4146 39.7175 38.2468H29.6078C28.9076 36.7965 27.743 35.6317 26.2913 34.9325Z" fill="url(#paint18_linear)"/>
</g>
<path fill-rule="evenodd" clip-rule="evenodd" d="M20.3753 24.3933C13.0863 25.5574 7.31422 31.3267 6.14893 38.6115H16.9268C17.6059 37.0761 18.8384 35.8434 20.3753 35.1653V24.3933Z" fill="white"/>
<mask id="mask19" mask-type="alpha" maskUnits="userSpaceOnUse" x="5" y="24" width="16" height="15">
<path fill-rule="evenodd" clip-rule="evenodd" d="M20.3173 24.0324C12.8259 25.2304 6.98592 31.0656 5.78795 38.5541C5.77193 38.6591 5.8014 38.7674 5.87123 38.8487C5.94106 38.93 6.04228 38.9767 6.14862 38.9767H16.9265C17.0706 38.9767 17.202 38.8909 17.2603 38.7597C17.9054 37.3004 19.0643 36.1427 20.523 35.4992C20.6549 35.4409 20.7408 35.3103 20.7408 35.1656V24.3935C20.7408 24.286 20.6934 24.1854 20.612 24.115C20.5447 24.0587 20.4595 24.0286 20.3731 24.0286C20.3545 24.0286 20.3359 24.0298 20.3173 24.0324ZM20.0092 24.827V34.9325C18.5588 35.6311 17.3935 36.7958 16.6927 38.2468H6.583C7.85272 31.4146 13.1737 26.0961 20.0092 24.827Z" fill="white"/>
</mask>
<g mask="url(#mask19)">
<path fill-rule="evenodd" clip-rule="evenodd" d="M20.3173 24.0324C12.8259 25.2304 6.98592 31.0656 5.78795 38.5541C5.77193 38.6591 5.8014 38.7674 5.87123 38.8487C5.94106 38.93 6.04228 38.9767 6.14862 38.9767H16.9265C17.0706 38.9767 17.202 38.8909 17.2603 38.7597C17.9054 37.3004 19.0643 36.1427 20.523 35.4992C20.6549 35.4409 20.7408 35.3103 20.7408 35.1656V24.3935C20.7408 24.286 20.6934 24.1854 20.612 24.115C20.5447 24.0587 20.4595 24.0286 20.3731 24.0286C20.3545 24.0286 20.3359 24.0298 20.3173 24.0324ZM20.0092 24.827V34.9325C18.5588 35.6311 17.3935 36.7958 16.6927 38.2468H6.583C7.85272 31.4146 13.1737 26.0961 20.0092 24.827Z" fill="url(#paint19_linear)"/>
</g>
<path fill-rule="evenodd" clip-rule="evenodd" d="M16.9264 44.1599H6.14917C7.31447 51.4454 13.0859 57.214 20.3749 58.3788V47.6067C18.838 46.928 17.6055 45.6954 16.9264 44.1599Z" fill="white"/>
<mask id="mask20" mask-type="alpha" maskUnits="userSpaceOnUse" x="5" y="43" width="16" height="16">
<path fill-rule="evenodd" clip-rule="evenodd" d="M6.14862 43.7944C6.04228 43.7944 5.94106 43.8418 5.87123 43.9231C5.8014 44.0045 5.77193 44.112 5.78795 44.2177C6.98592 51.7055 12.8246 57.542 20.3173 58.7401C20.3365 58.7426 20.3558 58.7445 20.375 58.7445C20.4615 58.7445 20.546 58.7132 20.612 58.6575C20.6934 58.5877 20.7408 58.4865 20.7408 58.3783V47.6069C20.7408 47.4615 20.6549 47.3315 20.523 47.2726C19.0643 46.6285 17.9054 45.4714 17.2603 44.0121C17.202 43.8809 17.0706 43.7944 16.9265 43.7944H6.14862ZM6.583 44.5244H16.6927C17.3935 45.9766 18.5588 47.1414 20.0092 47.8393V57.9461C13.1737 56.6757 7.85272 51.3572 6.583 44.5244Z" fill="white"/>
</mask>
<g mask="url(#mask20)">
<path fill-rule="evenodd" clip-rule="evenodd" d="M6.14862 43.7944C6.04228 43.7944 5.94106 43.8418 5.87123 43.9231C5.8014 44.0045 5.77193 44.112 5.78795 44.2177C6.98592 51.7055 12.8246 57.542 20.3173 58.7401C20.3365 58.7426 20.3558 58.7445 20.375 58.7445C20.4615 58.7445 20.546 58.7132 20.612 58.6575C20.6934 58.5877 20.7408 58.4865 20.7408 58.3783V47.6069C20.7408 47.4615 20.6549 47.3315 20.523 47.2726C19.0643 46.6285 17.9054 45.4714 17.2603 44.0121C17.202 43.8809 17.0706 43.7944 16.9265 43.7944H6.14862ZM6.583 44.5244H16.6927C17.3935 45.9766 18.5588 47.1414 20.0092 47.8393V57.9461C13.1737 56.6757 7.85272 51.3572 6.583 44.5244Z" fill="url(#paint20_linear)"/>
</g>
<path fill-rule="evenodd" clip-rule="evenodd" d="M25.926 58.379C33.2144 57.2143 38.9864 51.4457 40.1517 44.1602H29.3739C28.6961 45.6956 27.4622 46.9282 25.926 47.607V58.379Z" fill="white"/>
<mask id="mask21" mask-type="alpha" maskUnits="userSpaceOnUse" x="25" y="43" width="16" height="16">
<path fill-rule="evenodd" clip-rule="evenodd" d="M29.3734 43.7944C29.2293 43.7944 29.0973 43.8809 29.0396 44.0121C28.3958 45.4708 27.2376 46.6278 25.7782 47.2726C25.6462 47.3315 25.561 47.4615 25.561 47.6069V58.3783C25.561 58.4865 25.6078 58.5877 25.6892 58.6575C25.7558 58.7132 25.8397 58.7445 25.9256 58.7445C25.9454 58.7445 25.9646 58.7426 25.9838 58.7401C33.4766 57.542 39.314 51.7055 40.5119 44.2177C40.5292 44.112 40.4985 44.0045 40.4299 43.9231C40.3601 43.8418 40.2583 43.7944 40.1513 43.7944H29.3734ZM26.2913 47.8393C27.743 47.1401 28.9076 45.976 29.6078 44.5244H39.7175C38.4478 51.3572 33.1268 56.6757 26.2913 57.9461V47.8393Z" fill="white"/>
</mask>
<g mask="url(#mask21)">
<path fill-rule="evenodd" clip-rule="evenodd" d="M29.3734 43.7944C29.2293 43.7944 29.0973 43.8809 29.0396 44.0121C28.3958 45.4708 27.2376 46.6278 25.7782 47.2726C25.6462 47.3315 25.561 47.4615 25.561 47.6069V58.3783C25.561 58.4865 25.6078 58.5877 25.6892 58.6575C25.7558 58.7132 25.8397 58.7445 25.9256 58.7445C25.9454 58.7445 25.9646 58.7426 25.9838 58.7401C33.4766 57.542 39.314 51.7055 40.5119 44.2177C40.5292 44.112 40.4985 44.0045 40.4299 43.9231C40.3601 43.8418 40.2583 43.7944 40.1513 43.7944H29.3734ZM26.2913 47.8393C27.743 47.1401 28.9076 45.976 29.6078 44.5244H39.7175C38.4478 51.3572 33.1268 56.6757 26.2913 57.9461V47.8393Z" fill="url(#paint21_linear)"/>
</g>
<defs>
<linearGradient id="paint0_linear" x1="8.78191" y1="106.098" x2="103.821" y2="106.098" gradientUnits="userSpaceOnUse">
<stop stop-color="#7C72FF"/>
<stop offset="1" stop-color="#6D64F4"/>
</linearGradient>
<linearGradient id="paint1_linear" x1="49.0087" y1="64.2038" x2="112.604" y2="64.2038" gradientUnits="userSpaceOnUse">
<stop stop-color="#7C72FF"/>
<stop offset="1" stop-color="#6D64F4"/>
</linearGradient>
<linearGradient id="paint2_linear" x1="0" y1="64.2038" x2="45.9005" y2="64.2038" gradientUnits="userSpaceOnUse">
<stop stop-color="#7C72FF"/>
<stop offset="1" stop-color="#6D64F4"/>
</linearGradient>
<linearGradient id="paint3_linear" x1="74.9717" y1="38.2537" x2="86.6413" y2="38.2537" gradientUnits="userSpaceOnUse">
<stop stop-color="#7C72FF"/>
<stop offset="1" stop-color="#6D64F4"/>
</linearGradient>
<linearGradient id="paint4_linear" x1="40.3291" y1="113.371" x2="72.274" y2="113.371" gradientUnits="userSpaceOnUse">
<stop stop-color="#7C72FF"/>
<stop offset="1" stop-color="#6D64F4"/>
</linearGradient>
<linearGradient id="paint5_linear" x1="55.6104" y1="160.868" x2="56.9917" y2="160.868" gradientUnits="userSpaceOnUse">
<stop stop-color="#7C72FF"/>
<stop offset="1" stop-color="#6D64F4"/>
</linearGradient>
<linearGradient id="paint6_linear" x1="7.53403" y1="161.427" x2="56.9921" y2="161.427" gradientUnits="userSpaceOnUse">
<stop stop-color="#7C72FF"/>
<stop offset="1" stop-color="#6D64F4"/>
</linearGradient>
<linearGradient id="paint7_linear" x1="55.6106" y1="161.427" x2="105.069" y2="161.427" gradientUnits="userSpaceOnUse">
<stop stop-color="#7C72FF"/>
<stop offset="1" stop-color="#6D64F4"/>
</linearGradient>
<linearGradient id="paint8_linear" x1="17.5685" y1="98.5388" x2="44.4207" y2="98.5388" gradientUnits="userSpaceOnUse">
<stop stop-color="#7C72FF"/>
<stop offset="1" stop-color="#6D64F4"/>
</linearGradient>
<linearGradient id="paint9_linear" x1="47.3195" y1="98.539" x2="53.9459" y2="98.539" gradientUnits="userSpaceOnUse">
<stop stop-color="#7C72FF"/>
<stop offset="1" stop-color="#6D64F4"/>
</linearGradient>
<linearGradient id="paint10_linear" x1="17.5685" y1="85.7035" x2="44.4207" y2="85.7035" gradientUnits="userSpaceOnUse">
<stop stop-color="#7C72FF"/>
<stop offset="1" stop-color="#6D64F4"/>
</linearGradient>
<linearGradient id="paint11_linear" x1="17.5685" y1="78.7151" x2="53.9462" y2="78.7151" gradientUnits="userSpaceOnUse">
<stop stop-color="#7C72FF"/>
<stop offset="1" stop-color="#6D64F4"/>
</linearGradient>
<linearGradient id="paint12_linear" x1="105.182" y1="97.2878" x2="118.138" y2="97.2878" gradientUnits="userSpaceOnUse">
<stop stop-color="#7C72FF"/>
<stop offset="1" stop-color="#6D64F4"/>
</linearGradient>
<linearGradient id="paint13_linear" x1="116.757" y1="101.978" x2="122.973" y2="101.978" gradientUnits="userSpaceOnUse">
<stop stop-color="#7C72FF"/>
<stop offset="1" stop-color="#6D64F4"/>
</linearGradient>
<linearGradient id="paint14_linear" x1="84.2159" y1="29.0135" x2="105.37" y2="29.0135" gradientUnits="userSpaceOnUse">
<stop stop-color="#7C72FF"/>
<stop offset="1" stop-color="#6D64F4"/>
</linearGradient>
<linearGradient id="paint15_linear" x1="56.2425" y1="29.0136" x2="77.3981" y2="29.0136" gradientUnits="userSpaceOnUse">
<stop stop-color="#7C72FF"/>
<stop offset="1" stop-color="#6D64F4"/>
</linearGradient>
<linearGradient id="paint16_linear" x1="56.2425" y1="56.9739" x2="77.3981" y2="56.9739" gradientUnits="userSpaceOnUse">
<stop stop-color="#7C72FF"/>
<stop offset="1" stop-color="#6D64F4"/>
</linearGradient>
<linearGradient id="paint17_linear" x1="84.2159" y1="56.9738" x2="105.37" y2="56.9738" gradientUnits="userSpaceOnUse">
<stop stop-color="#7C72FF"/>
<stop offset="1" stop-color="#6D64F4"/>
</linearGradient>
<linearGradient id="paint18_linear" x1="25.5608" y1="38.977" x2="40.5168" y2="38.977" gradientUnits="userSpaceOnUse">
<stop stop-color="#7C72FF"/>
<stop offset="1" stop-color="#6D64F4"/>
</linearGradient>
<linearGradient id="paint19_linear" x1="5.78369" y1="38.9766" x2="20.7404" y2="38.9766" gradientUnits="userSpaceOnUse">
<stop stop-color="#7C72FF"/>
<stop offset="1" stop-color="#6D64F4"/>
</linearGradient>
<linearGradient id="paint20_linear" x1="5.78369" y1="58.7444" x2="20.7404" y2="58.7444" gradientUnits="userSpaceOnUse">
<stop stop-color="#7C72FF"/>
<stop offset="1" stop-color="#6D64F4"/>
</linearGradient>
<linearGradient id="paint21_linear" x1="25.5608" y1="58.7448" x2="40.5168" y2="58.7448" gradientUnits="userSpaceOnUse">
<stop stop-color="#7C72FF"/>
<stop offset="1" stop-color="#6D64F4"/>
</linearGradient>
</defs>
</svg>
