<svg width="142" height="88" viewBox="0 0 142 88" fill="none" xmlns="http://www.w3.org/2000/svg">
<mask id="mask0" mask-type="alpha" maskUnits="userSpaceOnUse" x="73" y="43" width="69" height="45">
<path fill-rule="evenodd" clip-rule="evenodd" d="M74.5596 43.5151C74.221 43.5151 73.9473 43.7888 73.9473 44.1272C73.9473 44.4661 74.221 44.7392 74.5596 44.7392H88.7846C96.2913 44.7392 102.397 51.2836 102.397 59.3279V71.8739C102.397 80.5932 109.495 87.6872 118.218 87.6872H141.032C141.371 87.6872 141.645 87.4135 141.645 87.0751C141.645 86.7368 141.371 86.4631 141.032 86.4631H118.218C110.17 86.4631 103.622 79.9182 103.622 71.8739V59.3279C103.622 50.6085 96.966 43.5151 88.7846 43.5151H74.5596Z" fill="white"/>
</mask>
<g mask="url(#mask0)">
<path fill-rule="evenodd" clip-rule="evenodd" d="M74.5596 43.5151C74.221 43.5151 73.9473 43.7888 73.9473 44.1272C73.9473 44.4661 74.221 44.7392 74.5596 44.7392H88.7846C96.2913 44.7392 102.397 51.2836 102.397 59.3279V71.8739C102.397 80.5932 109.495 87.6872 118.218 87.6872H141.032C141.371 87.6872 141.645 87.4135 141.645 87.0751C141.645 86.7368 141.371 86.4631 141.032 86.4631H118.218C110.17 86.4631 103.622 79.9182 103.622 71.8739V59.3279C103.622 50.6085 96.966 43.5151 88.7846 43.5151H74.5596Z" fill="url(#paint0_linear)"/>
</g>
<path fill-rule="evenodd" clip-rule="evenodd" d="M43.5814 77.4482C25.1696 77.4482 10.2466 62.5296 10.2466 44.1274C10.2466 25.7252 25.1696 10.8066 43.5814 10.8066C61.9919 10.8066 76.9139 25.7252 76.9139 44.1274C76.9139 62.5296 61.9919 77.4482 43.5814 77.4482ZM43.5813 1.17944C19.8486 1.17944 0.613281 20.4072 0.613281 44.1274C0.613281 67.8471 19.8486 87.0748 43.5813 87.0748C67.3118 87.0748 86.5483 67.8471 86.5483 44.1274C86.5483 20.4072 67.3118 1.17944 43.5813 1.17944Z" fill="#37383C"/>
<mask id="mask1" mask-type="alpha" maskUnits="userSpaceOnUse" x="0" y="0" width="88" height="88">
<path fill-rule="evenodd" clip-rule="evenodd" d="M43.5809 0.567627C19.55 0.567627 0 20.1087 0 44.1271C0 68.146 19.55 87.6871 43.5809 87.6871C67.6102 87.6871 87.1602 68.146 87.1602 44.1271C87.1602 20.1087 67.6102 0.567627 43.5809 0.567627ZM1.22471 44.1271C1.22471 20.7832 20.226 1.79225 43.581 1.79225C66.9355 1.79225 85.9351 20.7832 85.9351 44.1271C85.9351 67.4715 66.9355 86.463 43.581 86.463C20.226 86.463 1.22471 67.4715 1.22471 44.1271ZM9.6333 44.1271C9.6333 62.8376 24.8619 78.0604 43.581 78.0604C62.2983 78.0604 77.5263 62.8376 77.5263 44.1271C77.5263 25.4171 62.2983 10.1948 43.581 10.1948C24.8619 10.1948 9.6333 25.4171 9.6333 44.1271ZM10.8584 44.1271C10.8584 26.0916 25.5372 11.4189 43.5809 11.4189C61.6228 11.4189 76.3005 26.0916 76.3005 44.1271C76.3005 62.1637 61.6228 76.8364 43.5809 76.8364C25.5372 76.8364 10.8584 62.1637 10.8584 44.1271Z" fill="white"/>
</mask>
<g mask="url(#mask1)">
<path fill-rule="evenodd" clip-rule="evenodd" d="M43.5809 0.567627C19.55 0.567627 0 20.1087 0 44.1271C0 68.146 19.55 87.6871 43.5809 87.6871C67.6102 87.6871 87.1602 68.146 87.1602 44.1271C87.1602 20.1087 67.6102 0.567627 43.5809 0.567627ZM1.22471 44.1271C1.22471 20.7832 20.226 1.79225 43.581 1.79225C66.9355 1.79225 85.9351 20.7832 85.9351 44.1271C85.9351 67.4715 66.9355 86.463 43.581 86.463C20.226 86.463 1.22471 67.4715 1.22471 44.1271ZM9.6333 44.1271C9.6333 62.8376 24.8619 78.0604 43.581 78.0604C62.2983 78.0604 77.5263 62.8376 77.5263 44.1271C77.5263 25.4171 62.2983 10.1948 43.581 10.1948C24.8619 10.1948 9.6333 25.4171 9.6333 44.1271ZM10.8584 44.1271C10.8584 26.0916 25.5372 11.4189 43.5809 11.4189C61.6228 11.4189 76.3005 26.0916 76.3005 44.1271C76.3005 62.1637 61.6228 76.8364 43.5809 76.8364C25.5372 76.8364 10.8584 62.1637 10.8584 44.1271Z" fill="url(#paint1_linear)"/>
</g>
<path fill-rule="evenodd" clip-rule="evenodd" d="M48.2095 72.6385V54.5787C50.7849 53.4415 52.853 51.3749 53.9889 48.8007H72.057C70.1042 61.0151 60.4278 70.6855 48.2095 72.6385ZM36.1241 44.1271C36.1241 40.0098 39.464 36.6755 43.5808 36.6755C47.6966 36.6755 51.0359 40.0098 51.0359 44.1271C51.0359 48.2438 47.6966 51.5793 43.5808 51.5793C39.464 51.5793 36.1241 48.2438 36.1241 44.1271ZM38.9041 72.6385C26.6841 70.6855 17.0082 61.0151 15.0554 48.8007H33.1224C34.2607 51.3749 36.3276 53.4415 38.9041 54.5787V72.6385ZM38.9041 15.6628V33.7215C36.3276 34.8581 34.2607 36.9253 33.1224 39.4994H15.0554C17.0082 27.2856 26.6841 17.6147 38.9041 15.6628ZM48.2095 15.6628C60.4278 17.6147 70.1042 27.2856 72.057 39.4994H53.9889C52.853 36.9253 50.7849 34.8581 48.2095 33.7215V15.6628ZM43.5809 10.8069C25.1692 10.8069 10.2461 25.7254 10.2461 44.1271C10.2461 62.5293 25.1692 77.4484 43.5809 77.4484C61.9909 77.4484 76.9134 62.5293 76.9134 44.1271C76.9134 25.7254 61.9909 10.8069 43.5809 10.8069Z" fill="#37383C"/>
<mask id="mask2" mask-type="alpha" maskUnits="userSpaceOnUse" x="9" y="10" width="69" height="69">
<path fill-rule="evenodd" clip-rule="evenodd" d="M9.63281 44.1271C9.63281 62.8376 24.8615 78.0604 43.5805 78.0604C62.2978 78.0604 77.5258 62.8376 77.5258 44.1271C77.5258 25.4171 62.2978 10.1948 43.5805 10.1948C24.8615 10.1948 9.63281 25.4171 9.63281 44.1271ZM10.8579 44.1271C10.8579 26.0916 25.5367 11.4189 43.5804 11.4189C61.6223 11.4189 76.3 26.0916 76.3 44.1271C76.3 62.1637 61.6223 76.8364 43.5804 76.8364C25.5367 76.8364 10.8579 62.1637 10.8579 44.1271ZM47.8121 15.1961C47.6758 15.3136 47.5968 15.4833 47.5968 15.6627V33.7215C47.5968 33.9645 47.7405 34.1831 47.9621 34.2813C50.4073 35.3611 52.3493 37.3022 53.4291 39.7469C53.5256 39.9678 53.746 40.1114 53.9885 40.1114H72.0566C72.2361 40.1114 72.4065 40.0325 72.5235 39.8962C72.6388 39.76 72.6899 39.5794 72.6621 39.4029C70.6537 26.8484 60.8659 17.0651 48.3057 15.0575C48.275 15.053 48.2444 15.0507 48.2137 15.0507C48.0677 15.0507 47.9251 15.1013 47.8121 15.1961ZM48.8213 33.3309V16.3895C60.2813 18.5179 69.2 27.4337 71.3295 38.8874H54.3809C53.2074 36.4557 51.2552 34.5033 48.8213 33.3309ZM38.807 15.0575C26.2468 17.0651 16.4579 26.8484 14.4494 39.4029C14.4221 39.5794 14.4721 39.76 14.588 39.8962C14.705 40.0325 14.8748 40.1114 15.0549 40.1114H33.1218C33.3644 40.1114 33.5831 39.9678 33.6813 39.7469C34.7634 37.3011 36.7065 35.3606 39.1506 34.2813C39.3721 34.1831 39.5158 33.9645 39.5158 33.7215V15.6627C39.5158 15.4833 39.4369 15.3136 39.3005 15.1961C39.1875 15.1013 39.0449 15.0507 38.899 15.0507C38.8683 15.0507 38.8376 15.053 38.807 15.0575ZM38.2912 16.3895V33.3309C35.8579 34.5016 33.9051 36.4546 32.7305 38.8874H15.7819C17.9108 27.4326 26.8312 18.5179 38.2912 16.3895ZM35.5114 44.1271C35.5114 48.5742 39.1307 52.1918 43.5805 52.1918C48.029 52.1918 51.6478 48.5742 51.6478 44.1271C51.6478 39.6811 48.029 36.0634 43.5805 36.0634C39.1307 36.0634 35.5114 39.6811 35.5114 44.1271ZM36.7367 44.1271C36.7367 40.3561 39.8062 37.288 43.5806 37.288C47.3544 37.288 50.4233 40.3561 50.4233 44.1271C50.4233 47.8991 47.3544 50.9672 43.5806 50.9672C39.8062 50.9672 36.7367 47.8991 36.7367 44.1271ZM53.9885 48.1887C53.746 48.1887 53.5256 48.3329 53.4291 48.5532C52.3493 50.9984 50.4073 52.939 47.9621 54.0188C47.7405 54.1176 47.5968 54.3362 47.5968 54.5786V72.6385C47.5968 72.8185 47.6758 72.9888 47.8121 73.1057C47.9229 73.1994 48.0649 73.2511 48.2091 73.2511C48.2415 73.2511 48.2739 73.2488 48.3057 73.2443C60.8659 71.2356 70.6537 61.4506 72.6621 48.8972C72.6899 48.7207 72.6388 48.5407 72.5235 48.4044C72.4065 48.2682 72.2361 48.1887 72.0566 48.1887H53.9885ZM48.8213 54.9698C51.2552 53.7968 53.2074 51.8449 54.3809 49.4127H71.3295C69.2018 60.8669 60.2813 69.7827 48.8213 71.9123V54.9698ZM15.0549 48.1887C14.8748 48.1887 14.705 48.2682 14.588 48.4044C14.4721 48.5407 14.4221 48.7207 14.4494 48.8972C16.4579 61.4506 26.2456 71.2356 38.807 73.2443C38.8388 73.2488 38.8711 73.2511 38.9035 73.2511C39.0478 73.2511 39.1898 73.1994 39.3005 73.1057C39.4369 72.9888 39.5158 72.8185 39.5158 72.6385V54.5786C39.5158 54.3362 39.3721 54.1176 39.1506 54.0188C36.7065 52.9401 34.7634 50.9996 33.6813 48.5532C33.5831 48.3329 33.3644 48.1887 33.1218 48.1887H15.0549ZM15.7819 49.4127H32.7305C33.9051 51.8461 35.8579 53.798 38.2912 54.9698V71.9123C26.8312 69.7827 17.9108 60.8669 15.7819 49.4127Z" fill="white"/>
</mask>
<g mask="url(#mask2)">
<path fill-rule="evenodd" clip-rule="evenodd" d="M9.63281 44.1271C9.63281 62.8376 24.8615 78.0604 43.5805 78.0604C62.2978 78.0604 77.5258 62.8376 77.5258 44.1271C77.5258 25.4171 62.2978 10.1948 43.5805 10.1948C24.8615 10.1948 9.63281 25.4171 9.63281 44.1271ZM10.8579 44.1271C10.8579 26.0916 25.5367 11.4189 43.5804 11.4189C61.6223 11.4189 76.3 26.0916 76.3 44.1271C76.3 62.1637 61.6223 76.8364 43.5804 76.8364C25.5367 76.8364 10.8579 62.1637 10.8579 44.1271ZM47.8121 15.1961C47.6758 15.3136 47.5968 15.4833 47.5968 15.6627V33.7215C47.5968 33.9645 47.7405 34.1831 47.9621 34.2813C50.4073 35.3611 52.3493 37.3022 53.4291 39.7469C53.5256 39.9678 53.746 40.1114 53.9885 40.1114H72.0566C72.2361 40.1114 72.4065 40.0325 72.5235 39.8962C72.6388 39.76 72.6899 39.5794 72.6621 39.4029C70.6537 26.8484 60.8659 17.0651 48.3057 15.0575C48.275 15.053 48.2444 15.0507 48.2137 15.0507C48.0677 15.0507 47.9251 15.1013 47.8121 15.1961ZM48.8213 33.3309V16.3895C60.2813 18.5179 69.2 27.4337 71.3295 38.8874H54.3809C53.2074 36.4557 51.2552 34.5033 48.8213 33.3309ZM38.807 15.0575C26.2468 17.0651 16.4579 26.8484 14.4494 39.4029C14.4221 39.5794 14.4721 39.76 14.588 39.8962C14.705 40.0325 14.8748 40.1114 15.0549 40.1114H33.1218C33.3644 40.1114 33.5831 39.9678 33.6813 39.7469C34.7634 37.3011 36.7065 35.3606 39.1506 34.2813C39.3721 34.1831 39.5158 33.9645 39.5158 33.7215V15.6627C39.5158 15.4833 39.4369 15.3136 39.3005 15.1961C39.1875 15.1013 39.0449 15.0507 38.899 15.0507C38.8683 15.0507 38.8376 15.053 38.807 15.0575ZM38.2912 16.3895V33.3309C35.8579 34.5016 33.9051 36.4546 32.7305 38.8874H15.7819C17.9108 27.4326 26.8312 18.5179 38.2912 16.3895ZM35.5114 44.1271C35.5114 48.5742 39.1307 52.1918 43.5805 52.1918C48.029 52.1918 51.6478 48.5742 51.6478 44.1271C51.6478 39.6811 48.029 36.0634 43.5805 36.0634C39.1307 36.0634 35.5114 39.6811 35.5114 44.1271ZM36.7367 44.1271C36.7367 40.3561 39.8062 37.288 43.5806 37.288C47.3544 37.288 50.4233 40.3561 50.4233 44.1271C50.4233 47.8991 47.3544 50.9672 43.5806 50.9672C39.8062 50.9672 36.7367 47.8991 36.7367 44.1271ZM53.9885 48.1887C53.746 48.1887 53.5256 48.3329 53.4291 48.5532C52.3493 50.9984 50.4073 52.939 47.9621 54.0188C47.7405 54.1176 47.5968 54.3362 47.5968 54.5786V72.6385C47.5968 72.8185 47.6758 72.9888 47.8121 73.1057C47.9229 73.1994 48.0649 73.2511 48.2091 73.2511C48.2415 73.2511 48.2739 73.2488 48.3057 73.2443C60.8659 71.2356 70.6537 61.4506 72.6621 48.8972C72.6899 48.7207 72.6388 48.5407 72.5235 48.4044C72.4065 48.2682 72.2361 48.1887 72.0566 48.1887H53.9885ZM48.8213 54.9698C51.2552 53.7968 53.2074 51.8449 54.3809 49.4127H71.3295C69.2018 60.8669 60.2813 69.7827 48.8213 71.9123V54.9698ZM15.0549 48.1887C14.8748 48.1887 14.705 48.2682 14.588 48.4044C14.4721 48.5407 14.4221 48.7207 14.4494 48.8972C16.4579 61.4506 26.2456 71.2356 38.807 73.2443C38.8388 73.2488 38.8711 73.2511 38.9035 73.2511C39.0478 73.2511 39.1898 73.1994 39.3005 73.1057C39.4369 72.9888 39.5158 72.8185 39.5158 72.6385V54.5786C39.5158 54.3362 39.3721 54.1176 39.1506 54.0188C36.7065 52.9401 34.7634 50.9996 33.6813 48.5532C33.5831 48.3329 33.3644 48.1887 33.1218 48.1887H15.0549ZM15.7819 49.4127H32.7305C33.9051 51.8461 35.8579 53.798 38.2912 54.9698V71.9123C26.8312 69.7827 17.9108 60.8669 15.7819 49.4127Z" fill="url(#paint2_linear)"/>
</g>
<path fill-rule="evenodd" clip-rule="evenodd" d="M43.5811 36.6755C39.4643 36.6755 36.125 40.0099 36.125 44.1272C36.125 48.2439 39.4643 51.5793 43.5811 51.5793C47.6969 51.5793 51.0361 48.2439 51.0361 44.1272C51.0361 40.0099 47.6969 36.6755 43.5811 36.6755Z" fill="#37383C"/>
<mask id="mask3" mask-type="alpha" maskUnits="userSpaceOnUse" x="35" y="36" width="17" height="17">
<path fill-rule="evenodd" clip-rule="evenodd" d="M35.5117 44.1271C35.5117 48.5742 39.131 52.1919 43.5807 52.1919C48.0293 52.1919 51.648 48.5742 51.648 44.1271C51.648 39.6811 48.0293 36.0635 43.5807 36.0635C39.131 36.0635 35.5117 39.6811 35.5117 44.1271ZM36.7368 44.1271C36.7368 40.3562 39.8063 37.2881 43.5806 37.2881C47.3544 37.2881 50.4233 40.3562 50.4233 44.1271C50.4233 47.8992 47.3544 50.9673 43.5806 50.9673C39.8063 50.9673 36.7368 47.8992 36.7368 44.1271Z" fill="white"/>
</mask>
<g mask="url(#mask3)">
<path fill-rule="evenodd" clip-rule="evenodd" d="M35.5117 44.1271C35.5117 48.5742 39.131 52.1919 43.5807 52.1919C48.0293 52.1919 51.648 48.5742 51.648 44.1271C51.648 39.6811 48.0293 36.0635 43.5807 36.0635C39.131 36.0635 35.5117 39.6811 35.5117 44.1271ZM36.7368 44.1271C36.7368 40.3562 39.8063 37.2881 43.5806 37.2881C47.3544 37.2881 50.4233 40.3562 50.4233 44.1271C50.4233 47.8992 47.3544 50.9673 43.5806 50.9673C39.8063 50.9673 36.7368 47.8992 36.7368 44.1271Z" fill="url(#paint3_linear)"/>
</g>
<path fill-rule="evenodd" clip-rule="evenodd" d="M48.209 15.6626V33.7219C50.7843 34.8585 52.8524 36.9251 53.9884 39.4992H72.0565C70.1037 27.286 60.4272 17.6145 48.209 15.6626Z" fill="#37383C"/>
<mask id="mask4" mask-type="alpha" maskUnits="userSpaceOnUse" x="47" y="15" width="26" height="26">
<path fill-rule="evenodd" clip-rule="evenodd" d="M47.8129 15.1961C47.6766 15.3136 47.5977 15.4834 47.5977 15.6628V33.7215C47.5977 33.9645 47.7414 34.1831 47.9629 34.2813C50.4081 35.3612 52.3501 37.3023 53.4299 39.747C53.5264 39.9678 53.7468 40.1115 53.9894 40.1115H72.0574C72.2369 40.1115 72.4073 40.0326 72.5243 39.8963C72.6396 39.76 72.6908 39.5795 72.6629 39.4029C70.6545 26.8485 60.8667 17.0651 48.3065 15.0576C48.2758 15.0531 48.2452 15.0508 48.2145 15.0508C48.0685 15.0508 47.926 15.1013 47.8129 15.1961ZM48.8224 33.3309V16.3895C60.2823 18.518 69.2011 27.4338 71.3305 38.8874H54.382C53.2085 36.4558 51.2562 34.5033 48.8224 33.3309Z" fill="white"/>
</mask>
<g mask="url(#mask4)">
<path fill-rule="evenodd" clip-rule="evenodd" d="M47.8129 15.1961C47.6766 15.3136 47.5977 15.4834 47.5977 15.6628V33.7215C47.5977 33.9645 47.7414 34.1831 47.9629 34.2813C50.4081 35.3612 52.3501 37.3023 53.4299 39.747C53.5264 39.9678 53.7468 40.1115 53.9894 40.1115H72.0574C72.2369 40.1115 72.4073 40.0326 72.5243 39.8963C72.6396 39.76 72.6908 39.5795 72.6629 39.4029C70.6545 26.8485 60.8667 17.0651 48.3065 15.0576C48.2758 15.0531 48.2452 15.0508 48.2145 15.0508C48.0685 15.0508 47.926 15.1013 47.8129 15.1961ZM48.8224 33.3309V16.3895C60.2823 18.518 69.2011 27.4338 71.3305 38.8874H54.382C53.2085 36.4558 51.2562 34.5033 48.8224 33.3309Z" fill="url(#paint4_linear)"/>
</g>
<path fill-rule="evenodd" clip-rule="evenodd" d="M38.9033 15.6626C26.6828 17.6145 17.0075 27.286 15.0547 39.4992H33.1216C34.2599 36.9251 36.3269 34.8585 38.9033 33.7219V15.6626Z" fill="#37383C"/>
<mask id="mask5" mask-type="alpha" maskUnits="userSpaceOnUse" x="14" y="15" width="26" height="26">
<path fill-rule="evenodd" clip-rule="evenodd" d="M38.8082 15.0576C26.248 17.0651 16.4591 26.8485 14.4506 39.4029C14.4234 39.5795 14.4734 39.76 14.5892 39.8963C14.7062 40.0326 14.8761 40.1115 15.0561 40.1115H33.1231C33.3656 40.1115 33.5843 39.9678 33.6826 39.747C34.7646 37.3012 36.7077 35.3606 39.1518 34.2813C39.3733 34.1831 39.5171 33.9645 39.5171 33.7215V15.6628C39.5171 15.4834 39.4381 15.3136 39.3018 15.1961C39.1887 15.1013 39.0462 15.0508 38.9002 15.0508C38.8695 15.0508 38.8389 15.0531 38.8082 15.0576ZM38.2924 16.3895V33.3309C35.8591 34.5016 33.9063 36.4547 32.7317 38.8874H15.7831C17.912 27.4327 26.8324 18.518 38.2924 16.3895Z" fill="white"/>
</mask>
<g mask="url(#mask5)">
<path fill-rule="evenodd" clip-rule="evenodd" d="M38.8082 15.0576C26.248 17.0651 16.4591 26.8485 14.4506 39.4029C14.4234 39.5795 14.4734 39.76 14.5892 39.8963C14.7062 40.0326 14.8761 40.1115 15.0561 40.1115H33.1231C33.3656 40.1115 33.5843 39.9678 33.6826 39.747C34.7646 37.3012 36.7077 35.3606 39.1518 34.2813C39.3733 34.1831 39.5171 33.9645 39.5171 33.7215V15.6628C39.5171 15.4834 39.4381 15.3136 39.3018 15.1961C39.1887 15.1013 39.0462 15.0508 38.9002 15.0508C38.8695 15.0508 38.8389 15.0531 38.8082 15.0576ZM38.2924 16.3895V33.3309C35.8591 34.5016 33.9063 36.4547 32.7317 38.8874H15.7831C17.912 27.4327 26.8324 18.518 38.2924 16.3895Z" fill="url(#paint5_linear)"/>
</g>
<path fill-rule="evenodd" clip-rule="evenodd" d="M33.1216 48.8005H15.0547C17.0075 61.0155 26.6834 70.6853 38.9033 72.6383V54.579C36.3269 53.4418 34.2599 51.3747 33.1216 48.8005Z" fill="#37383C"/>
<mask id="mask6" mask-type="alpha" maskUnits="userSpaceOnUse" x="14" y="48" width="26" height="26">
<path fill-rule="evenodd" clip-rule="evenodd" d="M15.0561 48.1887C14.8761 48.1887 14.7062 48.2682 14.5892 48.4045C14.4734 48.5407 14.4234 48.7207 14.4506 48.8973C16.4591 61.4506 26.2469 71.2356 38.8082 73.2443C38.84 73.2488 38.8724 73.2511 38.9047 73.2511C39.049 73.2511 39.191 73.1995 39.3018 73.1058C39.4381 72.9888 39.5171 72.8185 39.5171 72.6385V54.5787C39.5171 54.3362 39.3733 54.1176 39.1518 54.0189C36.7077 52.9402 34.7646 50.9996 33.6826 48.5532C33.5843 48.3329 33.3656 48.1887 33.1231 48.1887H15.0561ZM15.7831 49.4128H32.7317C33.9063 51.8461 35.8591 53.798 38.2924 54.9698V71.9124C26.8324 69.7828 17.912 60.867 15.7831 49.4128Z" fill="white"/>
</mask>
<g mask="url(#mask6)">
<path fill-rule="evenodd" clip-rule="evenodd" d="M15.0561 48.1887C14.8761 48.1887 14.7062 48.2682 14.5892 48.4045C14.4734 48.5407 14.4234 48.7207 14.4506 48.8973C16.4591 61.4506 26.2469 71.2356 38.8082 73.2443C38.84 73.2488 38.8724 73.2511 38.9047 73.2511C39.049 73.2511 39.191 73.1995 39.3018 73.1058C39.4381 72.9888 39.5171 72.8185 39.5171 72.6385V54.5787C39.5171 54.3362 39.3733 54.1176 39.1518 54.0189C36.7077 52.9402 34.7646 50.9996 33.6826 48.5532C33.5843 48.3329 33.3656 48.1887 33.1231 48.1887H15.0561ZM15.7831 49.4128H32.7317C33.9063 51.8461 35.8591 53.798 38.2924 54.9698V71.9124C26.8324 69.7828 17.912 60.867 15.7831 49.4128Z" fill="url(#paint6_linear)"/>
</g>
<path fill-rule="evenodd" clip-rule="evenodd" d="M48.209 72.6386C60.4272 70.6855 70.1037 61.0152 72.0565 48.8008H53.9884C52.8524 51.3749 50.7843 53.4415 48.209 54.5787V72.6386Z" fill="#37383C"/>
<mask id="mask7" mask-type="alpha" maskUnits="userSpaceOnUse" x="47" y="48" width="26" height="26">
<path fill-rule="evenodd" clip-rule="evenodd" d="M53.9894 48.1887C53.7468 48.1887 53.5264 48.3329 53.4299 48.5532C52.3501 50.9985 50.4081 52.939 47.9629 54.0189C47.7414 54.1176 47.5977 54.3362 47.5977 54.5787V72.6385C47.5977 72.8185 47.6766 72.9888 47.8129 73.1058C47.9237 73.1995 48.0657 73.2511 48.21 73.2511C48.2423 73.2511 48.2747 73.2488 48.3065 73.2443C60.8667 71.2356 70.6545 61.4506 72.6629 48.8973C72.6908 48.7207 72.6396 48.5407 72.5243 48.4045C72.4073 48.2682 72.2369 48.1887 72.0574 48.1887H53.9894ZM48.8224 54.9698C51.2562 53.7969 53.2085 51.845 54.382 49.4128H71.3305C69.2028 60.867 60.2823 69.7828 48.8224 71.9124V54.9698Z" fill="white"/>
</mask>
<g mask="url(#mask7)">
<path fill-rule="evenodd" clip-rule="evenodd" d="M53.9894 48.1887C53.7468 48.1887 53.5264 48.3329 53.4299 48.5532C52.3501 50.9985 50.4081 52.939 47.9629 54.0189C47.7414 54.1176 47.5977 54.3362 47.5977 54.5787V72.6385C47.5977 72.8185 47.6766 72.9888 47.8129 73.1058C47.9237 73.1995 48.0657 73.2511 48.21 73.2511C48.2423 73.2511 48.2747 73.2488 48.3065 73.2443C60.8667 71.2356 70.6545 61.4506 72.6629 48.8973C72.6908 48.7207 72.6396 48.5407 72.5243 48.4045C72.4073 48.2682 72.2369 48.1887 72.0574 48.1887H53.9894ZM48.8224 54.9698C51.2562 53.7969 53.2085 51.845 54.382 49.4128H71.3305C69.2028 60.867 60.2823 69.7828 48.8224 71.9124V54.9698Z" fill="url(#paint7_linear)"/>
</g>
<defs>
<linearGradient id="paint0_linear" x1="73.9469" y1="87.6872" x2="141.645" y2="87.6872" gradientUnits="userSpaceOnUse">
<stop stop-color="#7C72FF"/>
<stop offset="1" stop-color="#6D64F4"/>
</linearGradient>
<linearGradient id="paint1_linear" x1="0" y1="87.687" x2="87.1602" y2="87.687" gradientUnits="userSpaceOnUse">
<stop stop-color="#7C72FF"/>
<stop offset="1" stop-color="#6D64F4"/>
</linearGradient>
<linearGradient id="paint2_linear" x1="9.63247" y1="78.0603" x2="77.5254" y2="78.0603" gradientUnits="userSpaceOnUse">
<stop stop-color="#7C72FF"/>
<stop offset="1" stop-color="#6D64F4"/>
</linearGradient>
<linearGradient id="paint3_linear" x1="35.5117" y1="52.1918" x2="51.6481" y2="52.1918" gradientUnits="userSpaceOnUse">
<stop stop-color="#7C72FF"/>
<stop offset="1" stop-color="#6D64F4"/>
</linearGradient>
<linearGradient id="paint4_linear" x1="47.5975" y1="40.1116" x2="72.6702" y2="40.1116" gradientUnits="userSpaceOnUse">
<stop stop-color="#7C72FF"/>
<stop offset="1" stop-color="#6D64F4"/>
</linearGradient>
<linearGradient id="paint5_linear" x1="14.4432" y1="40.1117" x2="39.5172" y2="40.1117" gradientUnits="userSpaceOnUse">
<stop stop-color="#7C72FF"/>
<stop offset="1" stop-color="#6D64F4"/>
</linearGradient>
<linearGradient id="paint6_linear" x1="14.4432" y1="73.2512" x2="39.5172" y2="73.2512" gradientUnits="userSpaceOnUse">
<stop stop-color="#7C72FF"/>
<stop offset="1" stop-color="#6D64F4"/>
</linearGradient>
<linearGradient id="paint7_linear" x1="47.5975" y1="73.2511" x2="72.6702" y2="73.2511" gradientUnits="userSpaceOnUse">
<stop stop-color="#7C72FF"/>
<stop offset="1" stop-color="#6D64F4"/>
</linearGradient>
</defs>
</svg>
