<svg width="399" height="190" viewBox="0 0 399 190" fill="none" xmlns="http://www.w3.org/2000/svg">
<mask id="mask0" mask-type="alpha" maskUnits="userSpaceOnUse" x="0" y="0" width="399" height="190">
<rect width="399" height="190" fill="white"/>
</mask>
<g mask="url(#mask0)">
<path fill-rule="evenodd" clip-rule="evenodd" d="M305.496 190H315V180.516H305.496V190Z" fill="#572EE5"/>
<path fill-rule="evenodd" clip-rule="evenodd" d="M296.67 190H306.174V180.516H296.67V190Z" fill="#572EE5"/>
<path fill-rule="evenodd" clip-rule="evenodd" d="M287.166 190H296.67V180.516H287.166V190Z" fill="#572EE5"/>
<path fill-rule="evenodd" clip-rule="evenodd" d="M278.341 190H287.845V180.516H278.341V190Z" fill="#572EE5"/>
<path fill-rule="evenodd" clip-rule="evenodd" d="M269.515 190H279.019V180.516H269.515V190Z" fill="#572EE5"/>
<path fill-rule="evenodd" clip-rule="evenodd" d="M260.69 190H270.194V180.516H260.69V190Z" fill="#572EE5"/>
<path fill-rule="evenodd" clip-rule="evenodd" d="M251.185 190H260.69V180.516H251.185V190Z" fill="#572EE5"/>
<path fill-rule="evenodd" clip-rule="evenodd" d="M242.36 190H251.864V180.516H242.36V190Z" fill="#572EE5"/>
<path fill-rule="evenodd" clip-rule="evenodd" d="M233.534 190H243.039V180.516H233.534V190Z" fill="#572EE5"/>
<path fill-rule="evenodd" clip-rule="evenodd" d="M224.709 190H234.213V180.516H224.709V190Z" fill="#572EE5"/>
<path fill-rule="evenodd" clip-rule="evenodd" d="M215.884 190H225.388V180.516H215.884V190Z" fill="#572EE5"/>
<path fill-rule="evenodd" clip-rule="evenodd" d="M206.379 190H215.884V180.516H206.379V190Z" fill="#572EE5"/>
<path fill-rule="evenodd" clip-rule="evenodd" d="M197.554 190H207.058V180.516H197.554V190Z" fill="#572EE5"/>
<path fill-rule="evenodd" clip-rule="evenodd" d="M188.729 190H198.233V180.516H188.729V190Z" fill="#572EE5"/>
<path fill-rule="evenodd" clip-rule="evenodd" d="M179.903 190H189.407V180.516H179.903V190Z" fill="#572EE5"/>
<path fill-rule="evenodd" clip-rule="evenodd" d="M170.399 190H179.903V180.516H170.399V190Z" fill="#572EE5"/>
<path fill-rule="evenodd" clip-rule="evenodd" d="M161.573 190H171.078V180.516H161.573V190Z" fill="#572EE5"/>
<path fill-rule="evenodd" clip-rule="evenodd" d="M143.922 190H153.427V180.516H143.922V190Z" fill="#572EE5"/>
<path fill-rule="evenodd" clip-rule="evenodd" d="M125.593 190H135.097V180.516H125.593V190Z" fill="#572EE5"/>
<path fill-rule="evenodd" clip-rule="evenodd" d="M107.942 190H117.446V180.516H107.942V190Z" fill="#572EE5"/>
<path fill-rule="evenodd" clip-rule="evenodd" d="M99.1165 190H108.621V180.516H99.1165V190Z" fill="#572EE5"/>
<path fill-rule="evenodd" clip-rule="evenodd" d="M80.7866 190H90.2909V180.516H80.7866V190Z" fill="#572EE5"/>
<path fill-rule="evenodd" clip-rule="evenodd" d="M63.1357 190H72.6401V180.516H63.1357V190Z" fill="#572EE5"/>
<path fill-rule="evenodd" clip-rule="evenodd" d="M44.8062 190H54.3105V180.516H44.8062V190Z" fill="#572EE5"/>
<path fill-rule="evenodd" clip-rule="evenodd" d="M27.1553 190H36.6596V180.516H27.1553V190Z" fill="#572EE5"/>
<path fill-rule="evenodd" clip-rule="evenodd" d="M8.82544 190H36.6595V180.516H8.82544V190Z" fill="#572EE5"/>
<path fill-rule="evenodd" clip-rule="evenodd" d="M8.82544 190H18.3298V180.516H8.82544V190Z" fill="#572EE5"/>
<path fill-rule="evenodd" clip-rule="evenodd" d="M305.496 181.194H315V171.71H305.496V181.194Z" fill="#572EE5"/>
<path fill-rule="evenodd" clip-rule="evenodd" d="M296.67 181.194H306.174V171.71H296.67V181.194Z" fill="#572EE5"/>
<path fill-rule="evenodd" clip-rule="evenodd" d="M287.166 181.194H296.67V171.71H287.166V181.194Z" fill="#572EE5"/>
<path fill-rule="evenodd" clip-rule="evenodd" d="M278.341 181.194H287.845V171.71H278.341V181.194Z" fill="#572EE5"/>
<path fill-rule="evenodd" clip-rule="evenodd" d="M269.515 181.194H279.019V171.71H269.515V181.194Z" fill="#572EE5"/>
<path fill-rule="evenodd" clip-rule="evenodd" d="M260.69 181.194H270.194V171.71H260.69V181.194Z" fill="#572EE5"/>
<path fill-rule="evenodd" clip-rule="evenodd" d="M251.185 181.194H260.69V171.71H251.185V181.194Z" fill="#572EE5"/>
<path fill-rule="evenodd" clip-rule="evenodd" d="M242.36 181.194H251.864V171.71H242.36V181.194Z" fill="#572EE5"/>
<path fill-rule="evenodd" clip-rule="evenodd" d="M224.709 181.194H234.213V171.71H224.709V181.194Z" fill="#572EE5"/>
<path fill-rule="evenodd" clip-rule="evenodd" d="M215.884 181.194H225.388V171.71H215.884V181.194Z" fill="#572EE5"/>
<path fill-rule="evenodd" clip-rule="evenodd" d="M206.379 181.194H215.884V171.71H206.379V181.194Z" fill="#572EE5"/>
<path fill-rule="evenodd" clip-rule="evenodd" d="M197.554 181.194H207.058V171.71H197.554V181.194Z" fill="#572EE5"/>
<path fill-rule="evenodd" clip-rule="evenodd" d="M179.903 181.194H189.407V171.71H179.903V181.194Z" fill="#572EE5"/>
<path fill-rule="evenodd" clip-rule="evenodd" d="M161.573 181.194H171.078V171.71H161.573V181.194Z" fill="#572EE5"/>
<path fill-rule="evenodd" clip-rule="evenodd" d="M152.748 181.194H162.252V171.71H152.748V181.194Z" fill="#572EE5"/>
<path fill-rule="evenodd" clip-rule="evenodd" d="M134.418 181.194H143.923V171.71H134.418V181.194Z" fill="#572EE5"/>
<path fill-rule="evenodd" clip-rule="evenodd" d="M116.767 181.194H126.272V171.71H116.767V181.194Z" fill="#572EE5"/>
<path fill-rule="evenodd" clip-rule="evenodd" d="M99.1165 181.194H108.621V171.71H99.1165V181.194Z" fill="#572EE5"/>
<path fill-rule="evenodd" clip-rule="evenodd" d="M80.7866 181.194H90.2909V171.71H80.7866V181.194Z" fill="#572EE5"/>
<path fill-rule="evenodd" clip-rule="evenodd" d="M63.1357 181.194H72.6401V171.71H63.1357V181.194Z" fill="#572EE5"/>
<path fill-rule="evenodd" clip-rule="evenodd" d="M44.8062 181.194H54.3105V171.71H44.8062V181.194Z" fill="#572EE5"/>
<path fill-rule="evenodd" clip-rule="evenodd" d="M27.1553 181.194H36.6596V171.71H27.1553V181.194Z" fill="#572EE5"/>
<path fill-rule="evenodd" clip-rule="evenodd" d="M8.82544 181.194H18.3298V171.71H8.82544V181.194Z" fill="#572EE5"/>
<path fill-rule="evenodd" clip-rule="evenodd" d="M0 181.194H9.50431V171.71H0V181.194Z" fill="#572EE5"/>
<path fill-rule="evenodd" clip-rule="evenodd" d="M305.496 172.387H315V162.903H305.496V172.387Z" fill="#572EE5"/>
<path fill-rule="evenodd" clip-rule="evenodd" d="M287.166 172.387H296.67V162.903H287.166V172.387Z" fill="#572EE5"/>
<path fill-rule="evenodd" clip-rule="evenodd" d="M269.515 172.387H279.019V162.903H269.515V172.387Z" fill="#572EE5"/>
<path fill-rule="evenodd" clip-rule="evenodd" d="M260.69 172.387H270.194V162.903H260.69V172.387Z" fill="#572EE5"/>
<path fill-rule="evenodd" clip-rule="evenodd" d="M251.185 172.387H260.69V162.903H251.185V172.387Z" fill="#572EE5"/>
<path fill-rule="evenodd" clip-rule="evenodd" d="M242.36 172.387H251.864V162.903H242.36V172.387Z" fill="#572EE5"/>
<path fill-rule="evenodd" clip-rule="evenodd" d="M233.534 172.387H243.039V162.903H233.534V172.387Z" fill="#572EE5"/>
<path fill-rule="evenodd" clip-rule="evenodd" d="M224.709 172.387H234.213V162.903H224.709V172.387Z" fill="#572EE5"/>
<path fill-rule="evenodd" clip-rule="evenodd" d="M215.884 172.387H225.388V162.903H215.884V172.387Z" fill="#572EE5"/>
<path fill-rule="evenodd" clip-rule="evenodd" d="M206.379 172.387H215.884V162.903H206.379V172.387Z" fill="#572EE5"/>
<path fill-rule="evenodd" clip-rule="evenodd" d="M197.554 172.387H207.058V162.903H197.554V172.387Z" fill="#572EE5"/>
<path fill-rule="evenodd" clip-rule="evenodd" d="M188.729 172.387H198.233V162.903H188.729V172.387Z" fill="#572EE5"/>
<path fill-rule="evenodd" clip-rule="evenodd" d="M170.399 172.387H179.903V162.903H170.399V172.387Z" fill="#572EE5"/>
<path fill-rule="evenodd" clip-rule="evenodd" d="M152.748 172.387H162.252V162.903H152.748V172.387Z" fill="#572EE5"/>
<path fill-rule="evenodd" clip-rule="evenodd" d="M125.593 172.387H135.097V162.903H125.593V172.387Z" fill="#572EE5"/>
<path fill-rule="evenodd" clip-rule="evenodd" d="M107.942 172.387H117.446V162.903H107.942V172.387Z" fill="#572EE5"/>
<path fill-rule="evenodd" clip-rule="evenodd" d="M89.6121 172.387H99.1164V162.903H89.6121V172.387Z" fill="#572EE5"/>
<path fill-rule="evenodd" clip-rule="evenodd" d="M71.9612 172.387H81.4655V162.903H71.9612V172.387Z" fill="#572EE5"/>
<path fill-rule="evenodd" clip-rule="evenodd" d="M53.6313 172.387H63.1357V162.903H53.6313V172.387Z" fill="#572EE5"/>
<path fill-rule="evenodd" clip-rule="evenodd" d="M35.9807 172.387H45.485V162.903H35.9807V172.387Z" fill="#572EE5"/>
<path fill-rule="evenodd" clip-rule="evenodd" d="M17.6509 172.387H27.1552V162.903H17.6509V172.387Z" fill="#572EE5"/>
<path fill-rule="evenodd" clip-rule="evenodd" d="M305.496 162.903H315V153.419H305.496V162.903Z" fill="#572EE5"/>
<path fill-rule="evenodd" clip-rule="evenodd" d="M296.67 162.903H306.174V153.419H296.67V162.903Z" fill="#572EE5"/>
<path fill-rule="evenodd" clip-rule="evenodd" d="M287.166 162.903H296.67V153.419H287.166V162.903Z" fill="#572EE5"/>
<path fill-rule="evenodd" clip-rule="evenodd" d="M278.341 162.903H287.845V153.419H278.341V162.903Z" fill="#572EE5"/>
<path fill-rule="evenodd" clip-rule="evenodd" d="M269.515 162.903H279.019V153.419H269.515V162.903Z" fill="#572EE5"/>
<path fill-rule="evenodd" clip-rule="evenodd" d="M251.185 162.903H260.69V153.419H251.185V162.903Z" fill="#572EE5"/>
<path fill-rule="evenodd" clip-rule="evenodd" d="M233.534 162.903H243.039V153.419H233.534V162.903Z" fill="#572EE5"/>
<path fill-rule="evenodd" clip-rule="evenodd" d="M215.884 162.903H225.388V153.419H215.884V162.903Z" fill="#572EE5"/>
<path fill-rule="evenodd" clip-rule="evenodd" d="M206.379 162.903H215.884V153.419H206.379V162.903Z" fill="#572EE5"/>
<path fill-rule="evenodd" clip-rule="evenodd" d="M197.554 162.903H207.058V153.419H197.554V162.903Z" fill="#572EE5"/>
<path fill-rule="evenodd" clip-rule="evenodd" d="M188.729 162.903H198.233V153.419H188.729V162.903Z" fill="#572EE5"/>
<path fill-rule="evenodd" clip-rule="evenodd" d="M170.399 162.903H179.903V153.419H170.399V162.903Z" fill="#572EE5"/>
<path fill-rule="evenodd" clip-rule="evenodd" d="M143.922 162.903H153.427V153.419H143.922V162.903Z" fill="#572EE5"/>
<path fill-rule="evenodd" clip-rule="evenodd" d="M116.767 162.903H126.272V153.419H116.767V162.903Z" fill="#572EE5"/>
<path fill-rule="evenodd" clip-rule="evenodd" d="M80.7866 162.903H90.2909V153.419H80.7866V162.903Z" fill="#572EE5"/>
<path fill-rule="evenodd" clip-rule="evenodd" d="M63.1357 162.903H72.6401V153.419H63.1357V162.903Z" fill="#572EE5"/>
<path fill-rule="evenodd" clip-rule="evenodd" d="M44.8062 162.903H54.3105V153.419H44.8062V162.903Z" fill="#572EE5"/>
<path fill-rule="evenodd" clip-rule="evenodd" d="M27.1553 162.903H36.6596V153.419H27.1553V162.903Z" fill="#572EE5"/>
<path fill-rule="evenodd" clip-rule="evenodd" d="M296.67 154.097H306.174V144.613H296.67V154.097Z" fill="#572EE5"/>
<path fill-rule="evenodd" clip-rule="evenodd" d="M278.341 154.097H287.845V144.613H278.341V154.097Z" fill="#572EE5"/>
<path fill-rule="evenodd" clip-rule="evenodd" d="M269.515 154.097H279.019V144.613H269.515V154.097Z" fill="#572EE5"/>
<path fill-rule="evenodd" clip-rule="evenodd" d="M260.69 154.097H270.194V144.613H260.69V154.097Z" fill="#572EE5"/>
<path fill-rule="evenodd" clip-rule="evenodd" d="M242.36 154.097H251.864V144.613H242.36V154.097Z" fill="#572EE5"/>
<path fill-rule="evenodd" clip-rule="evenodd" d="M224.709 154.097H234.213V144.613H224.709V154.097Z" fill="#572EE5"/>
<path fill-rule="evenodd" clip-rule="evenodd" d="M206.379 154.097H215.884V144.613H206.379V154.097Z" fill="#572EE5"/>
<path fill-rule="evenodd" clip-rule="evenodd" d="M188.729 154.097H198.233V144.613H188.729V154.097Z" fill="#572EE5"/>
<path fill-rule="evenodd" clip-rule="evenodd" d="M170.399 154.097H179.903V144.613H170.399V154.097Z" fill="#572EE5"/>
<path fill-rule="evenodd" clip-rule="evenodd" d="M152.748 154.097H162.252V144.613H152.748V154.097Z" fill="#572EE5"/>
<path fill-rule="evenodd" clip-rule="evenodd" d="M134.418 154.097H143.923V144.613H134.418V154.097Z" fill="#572EE5"/>
<path fill-rule="evenodd" clip-rule="evenodd" d="M99.1165 154.097H108.621V144.613H99.1165V154.097Z" fill="#572EE5"/>
<path fill-rule="evenodd" clip-rule="evenodd" d="M80.7866 154.097H90.2909V144.613H80.7866V154.097Z" fill="#572EE5"/>
<path fill-rule="evenodd" clip-rule="evenodd" d="M63.1357 154.097H72.6401V144.613H63.1357V154.097Z" fill="#572EE5"/>
<path fill-rule="evenodd" clip-rule="evenodd" d="M44.8062 154.097H54.3105V144.613H44.8062V154.097Z" fill="#572EE5"/>
<path fill-rule="evenodd" clip-rule="evenodd" d="M296.67 145.29H306.174V135.806H296.67V145.29Z" fill="#572EE5"/>
<path fill-rule="evenodd" clip-rule="evenodd" d="M278.341 145.29H287.845V135.806H278.341V145.29Z" fill="#572EE5"/>
<path fill-rule="evenodd" clip-rule="evenodd" d="M260.69 145.29H270.194V135.806H260.69V145.29Z" fill="#572EE5"/>
<path fill-rule="evenodd" clip-rule="evenodd" d="M251.185 145.29H260.69V135.806H251.185V145.29Z" fill="#572EE5"/>
<path fill-rule="evenodd" clip-rule="evenodd" d="M233.534 145.29H243.039V135.806H233.534V145.29Z" fill="#572EE5"/>
<path fill-rule="evenodd" clip-rule="evenodd" d="M215.884 145.29H225.388V135.806H215.884V145.29Z" fill="#572EE5"/>
<path fill-rule="evenodd" clip-rule="evenodd" d="M197.554 145.29H207.058V135.806H197.554V145.29Z" fill="#572EE5"/>
<path fill-rule="evenodd" clip-rule="evenodd" d="M170.399 145.29H179.903V135.806H170.399V145.29Z" fill="#572EE5"/>
<path fill-rule="evenodd" clip-rule="evenodd" d="M116.767 145.29H126.272V135.806H116.767V145.29Z" fill="#572EE5"/>
<path fill-rule="evenodd" clip-rule="evenodd" d="M71.9612 145.29H81.4655V135.806H71.9612V145.29Z" fill="#572EE5"/>
<path fill-rule="evenodd" clip-rule="evenodd" d="M53.6313 145.29H63.1357V135.806H53.6313V145.29Z" fill="#572EE5"/>
<path fill-rule="evenodd" clip-rule="evenodd" d="M35.9807 145.29H45.485V135.806H35.9807V145.29Z" fill="#572EE5"/>
<path fill-rule="evenodd" clip-rule="evenodd" d="M17.6509 145.29H27.1552V135.806H17.6509V145.29Z" fill="#572EE5"/>
<path fill-rule="evenodd" clip-rule="evenodd" d="M296.67 136.484H306.174V127H296.67V136.484Z" fill="#572EE5"/>
<path fill-rule="evenodd" clip-rule="evenodd" d="M278.341 136.484H287.845V127H278.341V136.484Z" fill="#572EE5"/>
<path fill-rule="evenodd" clip-rule="evenodd" d="M269.515 136.484H279.019V127H269.515V136.484Z" fill="#572EE5"/>
<path fill-rule="evenodd" clip-rule="evenodd" d="M251.185 136.484H260.69V127H251.185V136.484Z" fill="#572EE5"/>
<path fill-rule="evenodd" clip-rule="evenodd" d="M233.534 136.484H243.039V127H233.534V136.484Z" fill="#572EE5"/>
<path fill-rule="evenodd" clip-rule="evenodd" d="M215.884 136.484H225.388V127H215.884V136.484Z" fill="#572EE5"/>
<path fill-rule="evenodd" clip-rule="evenodd" d="M152.748 136.484H162.252V127H152.748V136.484Z" fill="#572EE5"/>
<path fill-rule="evenodd" clip-rule="evenodd" d="M134.418 136.484H143.923V127H134.418V136.484Z" fill="#572EE5"/>
<path fill-rule="evenodd" clip-rule="evenodd" d="M89.6121 136.484H99.1164V127H89.6121V136.484Z" fill="#572EE5"/>
<path fill-rule="evenodd" clip-rule="evenodd" d="M63.1357 136.484H72.6401V127H63.1357V136.484Z" fill="#572EE5"/>
<path fill-rule="evenodd" clip-rule="evenodd" d="M44.8062 136.484H54.3105V127H44.8062V136.484Z" fill="#572EE5"/>
<path fill-rule="evenodd" clip-rule="evenodd" d="M8.82544 136.484H18.3298V127H8.82544V136.484Z" fill="#572EE5"/>
<path fill-rule="evenodd" clip-rule="evenodd" d="M296.67 127H306.174V117.516H296.67V127Z" fill="#572EE5"/>
<path fill-rule="evenodd" clip-rule="evenodd" d="M278.341 127H287.845V117.516H278.341V127Z" fill="#572EE5"/>
<path fill-rule="evenodd" clip-rule="evenodd" d="M260.69 127H270.194V117.516H260.69V127Z" fill="#572EE5"/>
<path fill-rule="evenodd" clip-rule="evenodd" d="M242.36 127H251.864V117.516H242.36V127Z" fill="#572EE5"/>
<path fill-rule="evenodd" clip-rule="evenodd" d="M224.709 127H234.213V117.516H224.709V127Z" fill="#572EE5"/>
<path fill-rule="evenodd" clip-rule="evenodd" d="M206.379 127H215.884V117.516H206.379V127Z" fill="#572EE5"/>
<path fill-rule="evenodd" clip-rule="evenodd" d="M125.593 127H135.097V117.516H125.593V127Z" fill="#572EE5"/>
<path fill-rule="evenodd" clip-rule="evenodd" d="M107.942 127H117.446V117.516H107.942V127Z" fill="#572EE5"/>
<path fill-rule="evenodd" clip-rule="evenodd" d="M80.7866 127H90.2909V117.516H80.7866V127Z" fill="#572EE5"/>
<path fill-rule="evenodd" clip-rule="evenodd" d="M53.6313 127H63.1357V117.516H53.6313V127Z" fill="#572EE5"/>
<path fill-rule="evenodd" clip-rule="evenodd" d="M35.9807 127H45.485V117.516H35.9807V127Z" fill="#572EE5"/>
<path fill-rule="evenodd" clip-rule="evenodd" d="M287.166 118.194H296.67V108.71H287.166V118.194Z" fill="#572EE5"/>
<path fill-rule="evenodd" clip-rule="evenodd" d="M269.515 118.194H279.019V108.71H269.515V118.194Z" fill="#572EE5"/>
<path fill-rule="evenodd" clip-rule="evenodd" d="M251.185 118.194H260.69V108.71H251.185V118.194Z" fill="#572EE5"/>
<path fill-rule="evenodd" clip-rule="evenodd" d="M233.534 118.194H243.039V108.71H233.534V118.194Z" fill="#572EE5"/>
<path fill-rule="evenodd" clip-rule="evenodd" d="M215.884 118.194H225.388V108.71H215.884V118.194Z" fill="#572EE5"/>
<path fill-rule="evenodd" clip-rule="evenodd" d="M143.922 118.194H153.427V108.71H143.922V118.194Z" fill="#572EE5"/>
<path fill-rule="evenodd" clip-rule="evenodd" d="M99.1165 118.194H108.621V108.71H99.1165V118.194Z" fill="#572EE5"/>
<path fill-rule="evenodd" clip-rule="evenodd" d="M71.9612 118.194H81.4655V108.71H71.9612V118.194Z" fill="#572EE5"/>
<path fill-rule="evenodd" clip-rule="evenodd" d="M8.82544 118.194H18.3298V108.71H8.82544V118.194Z" fill="#572EE5"/>
<path fill-rule="evenodd" clip-rule="evenodd" d="M260.69 109.387H270.194V99.9033H260.69V109.387Z" fill="#572EE5"/>
<path fill-rule="evenodd" clip-rule="evenodd" d="M242.36 109.387H251.864V99.9033H242.36V109.387Z" fill="#572EE5"/>
<path fill-rule="evenodd" clip-rule="evenodd" d="M188.729 109.387H198.233V99.9033H188.729V109.387Z" fill="#572EE5"/>
<path fill-rule="evenodd" clip-rule="evenodd" d="M161.573 109.387H171.078V99.9033H161.573V109.387Z" fill="#572EE5"/>
<path fill-rule="evenodd" clip-rule="evenodd" d="M63.1357 109.387H72.6401V99.9033H63.1357V109.387Z" fill="#572EE5"/>
<path fill-rule="evenodd" clip-rule="evenodd" d="M44.8062 109.387H54.3105V99.9033H44.8062V109.387Z" fill="#572EE5"/>
<path fill-rule="evenodd" clip-rule="evenodd" d="M233.534 100.581H243.039V91.0967H233.534V100.581Z" fill="#572EE5"/>
<path fill-rule="evenodd" clip-rule="evenodd" d="M215.884 100.581H225.388V91.0967H215.884V100.581Z" fill="#572EE5"/>
<path fill-rule="evenodd" clip-rule="evenodd" d="M152.748 100.581H162.252V91.0967H152.748V100.581Z" fill="#572EE5"/>
<path fill-rule="evenodd" clip-rule="evenodd" d="M134.418 100.581H143.923V91.0967H134.418V100.581Z" fill="#572EE5"/>
<path fill-rule="evenodd" clip-rule="evenodd" d="M35.9807 100.581H45.485V91.0967H35.9807V100.581Z" fill="#572EE5"/>
<path fill-rule="evenodd" clip-rule="evenodd" d="M27.1552 91.1089L17.6509 91.0967V100.568L27.1552 100.581V91.1089Z" fill="#572EE5"/>
<path fill-rule="evenodd" clip-rule="evenodd" d="M233.534 73.4839H243.039V64H233.534V73.4839Z" fill="#572EE5"/>
<path fill-rule="evenodd" clip-rule="evenodd" d="M251.974 105.318C253.219 107.113 254.514 108.907 255.375 110.996C256.48 113.68 257.154 116.447 256.536 119.381C255.878 122.516 253.982 124.805 252.346 127.581C249.903 131.723 248.378 135.945 251.989 139.912C253.564 141.641 255.917 142.393 257.703 143.843C262.467 147.714 261.518 153.892 264.841 158.631C268.03 163.181 273.993 163.786 279.007 162.225C284.36 160.557 288.154 156.823 292.658 153.701C297.163 150.58 301.697 147.864 307.333 147.721C311.543 147.615 315.039 149.475 318.736 151.204C322.432 152.933 325.918 154.818 330.067 155.176C334.217 155.535 338.42 153.444 340.181 149.974C341.942 146.503 340.647 140.545 338.863 138.35C331.391 129.154 334.439 111.992 338.731 106.09C348.622 92.4925 343.828 85.2542 330.672 77.3655C322.841 72.6698 298.363 64.395 287.853 66.2724C277.924 68.0456 266.27 72.0994 256.085 75.3786C250.352 77.225 244.986 80.7334 244.096 87.4461C243.67 90.659 244.716 93.9297 246.214 96.903C247.712 99.8764 250.042 102.536 251.974 105.318Z" fill="#4A1EE3"/>
<path fill-rule="evenodd" clip-rule="evenodd" d="M278.753 93.9968C278.45 94.0243 278.152 93.8714 278.042 93.6108C277.912 93.3035 278.094 92.9636 278.449 92.8515C281.608 91.8486 284.911 91.2259 288.264 91.0017C288.641 90.9772 288.97 91.2207 288.998 91.5465C289.027 91.8731 288.745 92.1693 288.37 92.1834C285.139 92.3979 281.961 92.9977 278.918 93.9642C278.864 93.9812 278.808 93.9924 278.753 93.9968Z" fill="#431E41"/>
<path fill-rule="evenodd" clip-rule="evenodd" d="M307.4 91.9956C307.346 92.0024 307.291 92.0015 307.234 91.9916C304.093 91.4557 300.905 91.4272 297.756 91.909C297.401 91.9759 297.054 91.6632 297.006 91.2334C296.958 90.8027 297.216 90.4094 297.583 90.3533C300.852 89.8557 304.164 89.8833 307.427 90.4389C307.793 90.4998 308.047 90.8991 307.993 91.3278C307.948 91.6907 307.698 91.9592 307.4 91.9956Z" fill="#431E41"/>
<mask id="mask1" mask-type="alpha" maskUnits="userSpaceOnUse" x="247" y="58" width="117" height="134">
<path fill-rule="evenodd" clip-rule="evenodd" d="M247.737 58.5503H363.256V191.702H247.737V58.5503Z" fill="white"/>
</mask>
<g mask="url(#mask1)">
<path fill-rule="evenodd" clip-rule="evenodd" d="M284.531 130.561C284.529 130.592 284.529 130.624 284.528 130.654C284.238 136.065 281.377 141.177 276.783 144.197C268.714 149.502 247.494 198.034 247.739 198.805L363.256 186.847C363.245 185.589 362.788 183.975 362.453 181.58C361.472 174.555 323.298 140.741 319.359 138.499C315.895 136.528 313.243 133.389 311.814 129.733C311.701 129.442 311.594 129.149 311.496 128.851C311.477 128.795 311.459 128.739 311.441 128.682C311.346 128.386 311.26 128.084 311.181 127.779C311.162 127.704 311.141 127.63 311.122 127.554C311.051 127.268 310.991 126.976 310.935 126.683C310.919 126.594 310.897 126.506 310.883 126.416C310.819 126.05 310.765 125.68 310.726 125.306C310.725 125.3 310.724 125.294 310.724 125.287L310.619 124.279C322.872 113.057 320.429 89.4503 319.782 83.2193C318.212 68.1108 304.674 57.1331 289.542 58.699C274.411 60.2658 263.416 73.7826 264.985 88.8911C265.662 95.4159 268.322 120.998 284.488 128.299C284.499 128.431 284.503 128.56 284.511 128.691C284.55 129.316 284.56 129.94 284.531 130.561Z" fill="white"/>
</g>
<mask id="mask2" mask-type="alpha" maskUnits="userSpaceOnUse" x="247" y="58" width="117" height="134">
<path fill-rule="evenodd" clip-rule="evenodd" d="M247.737 58.5503H363.256V191.702H247.737V58.5503Z" fill="white"/>
</mask>
<g mask="url(#mask2)">
<path fill-rule="evenodd" clip-rule="evenodd" d="M284.531 130.561C284.529 130.592 284.529 130.624 284.528 130.654C284.238 136.065 281.377 141.177 276.783 144.197C268.714 149.502 247.494 198.034 247.739 198.805L363.256 186.847C363.245 185.589 362.788 183.975 362.453 181.58C361.472 174.555 323.298 140.741 319.359 138.499C315.895 136.528 313.243 133.389 311.814 129.733C311.701 129.442 311.594 129.149 311.496 128.851C311.477 128.795 311.459 128.739 311.441 128.682C311.346 128.386 311.26 128.084 311.181 127.779C311.162 127.704 311.141 127.63 311.122 127.554C311.051 127.268 310.991 126.976 310.935 126.683C310.919 126.594 310.897 126.506 310.883 126.416C310.819 126.05 310.765 125.68 310.726 125.306C310.725 125.3 310.724 125.294 310.724 125.287L310.619 124.279C322.872 113.057 320.429 89.4503 319.782 83.2193C318.212 68.1108 304.674 57.1331 289.542 58.699C274.411 60.2658 263.416 73.7826 264.985 88.8911C265.662 95.4159 268.322 120.998 284.488 128.299C284.499 128.431 284.503 128.56 284.511 128.691C284.55 129.316 284.56 129.94 284.531 130.561Z" stroke="#4A1EE3"/>
</g>
<path fill-rule="evenodd" clip-rule="evenodd" d="M364.631 181.213C363.623 174.203 362.749 167.147 360.232 160.457C355.669 148.326 346.545 140.94 333.279 140.657C328.828 140.561 324.422 140.461 320.378 138.226C320.344 138.206 320.311 138.185 320.276 138.165C316.328 144.01 309.35 148.259 301.041 149.094C292.456 149.957 284.487 146.976 279.401 141.731C278.57 142.54 277.654 143.273 276.656 143.91C268.369 149.204 257.065 147.715 250.442 155.897C247.231 159.863 246.186 165.068 245.732 170.092C244.97 178.536 251.173 245.989 251.173 245.989L370.667 234.965C370.654 233.709 364.976 183.604 364.631 181.213Z" fill="#50E3C2"/>
<path fill-rule="evenodd" clip-rule="evenodd" d="M298.959 153C311.149 153 321.472 147.455 325 139.796C323.327 139.458 321.691 138.925 320.112 138.058C320.078 138.04 320.046 138.018 320.013 138C316.142 143.685 309.3 147.819 301.152 148.632C292.736 149.472 284.923 146.571 279.936 141.47C279.122 142.255 278.223 142.969 277.245 143.589C276.837 143.847 276.42 144.085 276 144.311C280.871 149.539 289.331 153 298.959 153Z" fill="#50E3C2"/>
<path fill-rule="evenodd" clip-rule="evenodd" d="M385.625 94.6814C382.743 64.0222 364.173 39.3965 335.766 28.3112C335.674 28.0345 335.573 27.7586 335.456 27.481C333.044 21.8009 327.263 13.2087 320.638 7.76476C319.759 7.04408 318.529 6.3277 317.573 6.94149C316.425 7.67683 316.691 9.57165 317.508 10.6656C319.836 13.7828 324.008 19.6492 323.64 19.9242C323.155 20.2854 311.021 8.10528 308.275 6.56219C307.131 5.91909 305.588 5.69495 304.645 6.61046C302.488 8.70527 304.875 10.907 305.444 11.4501C309.8 15.6138 313.562 19.6828 317.363 24.4871C312.039 21.2267 305.493 16.6388 298.857 12.6544C297.643 11.9251 295.966 11.4889 294.852 12.3639C293.907 13.1052 293.84 14.5845 294.375 15.6604C294.911 16.7371 295.899 17.5018 296.855 18.2242C302.025 22.1242 307.284 26.6155 312.639 30.2534C307.431 27.7233 298.123 23.8509 294.808 23.9897C292.014 24.1069 291.938 26.4931 292.017 27.1707C292.123 28.0664 293.047 28.5914 293.864 28.9646C299.257 31.4224 303.739 33.5965 307.9 35.5172C307.981 35.5542 314.065 38.418 314.156 38.449C311 39.3447 307.695 40.268 305.872 41.7801C304.684 42.7645 303.404 44.2309 303.991 45.6602C304.468 46.8171 305.898 47.1835 307.136 47.324C310.219 47.6731 323.916 45.7214 324.883 45.5507C326.43 45.2774 328.116 44.5335 329.643 43.5456C352.264 52.3076 367.056 71.8652 369.347 96.2262C371.189 115.816 364.322 133.735 352.258 140.818L360.508 155C378.234 144.591 388.091 120.917 385.625 94.6814Z" fill="white"/>
<path fill-rule="evenodd" clip-rule="evenodd" d="M385.625 94.6814C382.743 64.0222 364.173 39.3965 335.766 28.3112C335.674 28.0345 335.573 27.7586 335.456 27.481C333.044 21.8009 327.263 13.2087 320.638 7.76476C319.759 7.04408 318.529 6.3277 317.573 6.94149C316.425 7.67683 316.691 9.57165 317.508 10.6656C319.836 13.7828 324.008 19.6492 323.64 19.9242C323.155 20.2854 311.021 8.10528 308.275 6.56219C307.131 5.91909 305.588 5.69495 304.645 6.61046C302.488 8.70527 304.875 10.907 305.444 11.4501C309.8 15.6138 313.562 19.6828 317.363 24.4871C312.039 21.2267 305.493 16.6388 298.857 12.6544C297.643 11.9251 295.966 11.4889 294.852 12.3639C293.907 13.1052 293.84 14.5845 294.375 15.6604C294.911 16.7371 295.899 17.5018 296.855 18.2242C302.025 22.1242 307.284 26.6155 312.639 30.2534C307.431 27.7233 298.123 23.8509 294.808 23.9897C292.014 24.1069 291.938 26.4931 292.017 27.1707C292.123 28.0664 293.047 28.5914 293.864 28.9646C299.257 31.4224 303.739 33.5965 307.9 35.5172C307.981 35.5542 314.065 38.418 314.156 38.449C311 39.3447 307.695 40.268 305.872 41.7801C304.684 42.7645 303.404 44.2309 303.991 45.6602C304.468 46.8171 305.898 47.1835 307.136 47.324C310.219 47.6731 323.916 45.7214 324.883 45.5507C326.43 45.2774 328.116 44.5335 329.643 43.5456C352.264 52.3076 367.056 71.8652 369.347 96.2262C371.189 115.816 364.322 133.735 352.258 140.818L360.508 155C378.234 144.591 388.091 120.917 385.625 94.6814Z" stroke="#4A1EE3"/>
<path fill-rule="evenodd" clip-rule="evenodd" d="M341.655 167L341 142.139C358.458 141.672 363.223 124.308 364.508 114L389 117.101C385.245 147.2 367.104 166.319 341.655 167Z" fill="#50E3C2"/>
<path fill-rule="evenodd" clip-rule="evenodd" d="M287.974 101.802C288.15 103.455 287.411 104.884 286.32 104.993C285.23 105.103 284.203 103.853 284.026 102.199C283.849 100.546 284.59 99.1162 285.68 99.0067C286.771 98.8971 287.798 100.149 287.974 101.802Z" fill="#431E41"/>
<path fill-rule="evenodd" clip-rule="evenodd" d="M304.974 100.801C305.15 102.455 304.411 103.884 303.321 103.993C302.23 104.103 301.202 102.853 301.026 101.199C300.849 99.5457 301.591 98.1162 302.68 98.0067C303.771 97.8971 304.799 99.1482 304.974 100.801Z" fill="#431E41"/>
<path fill-rule="evenodd" clip-rule="evenodd" d="M284 112.126C285.24 116.5 290.255 119.479 295.876 118.936C301.496 118.393 305.749 114.517 306 110L284 112.126Z" fill="#4A1EE3"/>
<mask id="mask3" mask-type="alpha" maskUnits="userSpaceOnUse" x="128" y="134" width="139" height="58">
<path fill-rule="evenodd" clip-rule="evenodd" d="M128.781 134.321H266.374V191.704H128.781V134.321Z" fill="white"/>
</mask>
<g mask="url(#mask3)">
<path fill-rule="evenodd" clip-rule="evenodd" d="M264.992 249.311C265.177 247.864 264.902 245.938 264.892 243.133C264.863 234.908 270.193 158.815 260.809 153.791C247.904 146.882 226.736 140.546 222.519 137.358C217.856 133.833 184.258 133.836 175.765 135.067C175.765 135.067 172.403 137.155 172.173 137.263C161.964 142.1 135.765 142.7 135.765 142.7C131.506 146.778 129.36 231.759 128.816 241.596C128.74 242.98 128.788 244.11 128.951 245.035L264.992 249.311Z" fill="#4A1EE3"/>
</g>
<path fill-rule="evenodd" clip-rule="evenodd" d="M198.517 150.979C209.637 151.337 219.782 147.013 227 139.843C225.696 139.257 223.013 137.314 221.814 136.388C217.14 132.78 184.889 134.004 176.378 135.263C176.378 135.263 173.008 137.4 172.778 137.511C172.193 137.794 171.6 138.047 171 138.279C177.746 145.763 187.512 150.626 198.517 150.979Z" fill="#4A1EE3"/>
<path fill-rule="evenodd" clip-rule="evenodd" d="M199.556 145C199.221 145 198.884 144.995 198.546 144.983C190.308 144.72 182.481 141.131 177 135.12C181.914 131.006 182.737 124.642 182.898 119.518C182.899 119.511 183.075 113.952 183.42 103L216.982 104.077L216.461 120.597C216.293 125.927 216.71 131.924 221 136.198C215.303 141.878 207.706 145 199.557 145H199.556Z" fill="white"/>
<path fill-rule="evenodd" clip-rule="evenodd" d="M182.594 103C182.594 103 182.063 119.587 182.062 119.604C181.871 125.586 180.682 131.238 176 134.849C181.361 140.819 189.2 144.704 198.041 144.984C198.38 144.995 198.719 145 199.057 145C207.661 145 215.467 141.534 221 135.946C216.759 132.044 216.116 126.468 216.302 120.687L216.833 104.083L182.594 103ZM183.424 103.878L215.949 104.907L215.445 120.66C215.279 125.847 215.683 131.673 219.78 135.946C214.23 141.241 206.904 144.148 199.057 144.148C198.729 144.148 198.398 144.143 198.068 144.133C190.139 143.882 182.6 140.54 177.242 134.931C181.953 130.794 182.76 124.62 182.919 119.63C182.922 119.558 183.315 107.259 183.424 103.878Z" fill="#4A1EE3"/>
<path fill-rule="evenodd" clip-rule="evenodd" d="M226.706 77.0533C227.203 61.6079 218.49 50.4977 203.198 50.0153C187.907 49.5338 178.69 60.4505 178.194 75.8958C178.022 81.2359 172.375 100.229 179.905 112.034C182.715 116.44 187.985 119.985 192.978 122.13C198.776 124.622 204.605 124.64 210.127 122.082C215.074 119.79 220.735 116.34 223.613 111.605C225.922 107.806 225.556 104.423 226.491 100.106C227.532 95.3002 226.644 79.0152 226.706 77.0533Z" fill="white"/>
<path fill-rule="evenodd" clip-rule="evenodd" d="M194.998 92.0614C194.942 93.7177 194.004 95.0328 192.901 94.9994C191.797 94.966 190.947 93.5949 191.003 91.9386C191.057 90.2823 191.996 88.9672 193.099 89.0006C194.203 89.034 195.052 90.4051 194.998 92.0614Z" fill="#431E41"/>
<path fill-rule="evenodd" clip-rule="evenodd" d="M211.998 93.0614C211.942 94.7177 211.003 96.0328 209.901 95.9994C208.798 95.966 207.948 94.5949 208.002 92.9386C208.058 91.2823 208.997 89.9672 210.1 90.0006C211.202 90.034 212.052 91.4042 211.998 93.0614Z" fill="#431E41"/>
<path fill-rule="evenodd" clip-rule="evenodd" d="M186.696 81.9997C186.374 81.9899 186.088 81.7857 186.017 81.4889C185.932 81.1378 186.177 80.7912 186.565 80.7136C189.813 80.0694 194.178 79.9504 196.308 80.0159C196.705 80.0295 197.014 80.3316 196.999 80.6902C196.984 81.0481 196.654 81.3277 196.258 81.3163C196.218 81.3163 196.17 81.3133 196.124 81.3118C194.019 81.2516 189.926 81.3796 186.873 81.9847C186.814 81.9967 186.754 82.0012 186.696 81.9997Z" fill="#431E41"/>
<path fill-rule="evenodd" clip-rule="evenodd" d="M214.254 83.9996C214.196 83.9978 214.136 83.988 214.077 83.9702C210.991 83.0269 206.772 82.5968 204.704 82.5397H204.701C204.303 82.5272 203.989 82.1738 204 81.7499C204.01 81.3242 204.343 80.9887 204.742 81.0003C206.888 81.0494 211.26 81.5063 214.477 82.4888C214.86 82.6057 215.082 83.0332 214.972 83.4419C214.879 83.7881 214.577 84.0103 214.254 83.9996Z" fill="#431E41"/>
<path fill-rule="evenodd" clip-rule="evenodd" d="M226.288 63.0025C226.249 62.5631 224.004 63.5449 223.943 63.6063C222.303 65.2508 219.915 60.4506 220.013 62.852C220.196 67.2742 222.929 94.5409 219.755 97.6794C216.056 101.335 184.989 100.461 181.846 96.3056C178.746 92.2035 181.272 74.7483 181.763 70.0857C182.013 67.6946 182.036 63.9679 180.504 62.224C178.286 61.5544 179.123 62.5994 179.123 62.5994C176.94 68.5778 161.83 129.583 196.692 134.603C234.24 140.009 228.572 88.8817 226.288 63.0025Z" fill="#4A1EE3"/>
<path fill-rule="evenodd" clip-rule="evenodd" d="M190 101C190.593 105.9 195.111 109.81 200.731 109.993C206.352 110.176 211.102 106.567 212 101.716L190 101Z" fill="white"/>
<path fill-rule="evenodd" clip-rule="evenodd" d="M207.835 70.21C205.218 71.6947 202.125 72.9524 199.256 72.0371C196.556 71.176 194.739 68.5928 192.119 67.5141C188.509 66.0276 184.425 67.7223 180.986 69.5648C177.625 71.3661 174.334 73.3455 170.745 74.6418C167.156 75.9382 163.171 76.5163 159.512 75.4289C155.853 74.3408 152.63 71.3343 152.072 67.5812C151.515 63.8289 154.246 59.6741 158.05 59.3317C159.917 59.164 161.749 59.8487 163.615 60.0302C168.708 60.5248 173.425 57.2405 176.815 53.4341C180.207 49.6276 182.843 45.1295 186.734 41.8289C190.627 38.5282 196.433 36.6486 200.883 39.1579C205.252 41.6215 207.004 47.4977 211.635 49.4323C216.384 51.416 225.616 47.4986 226.964 62.4767C227.32 66.4388 225.041 70.1464 221.069 68.3433C215.713 65.9132 212.813 67.3851 207.835 70.21Z" fill="#4A1EE3"/>
<path fill-rule="evenodd" clip-rule="evenodd" d="M111.89 19.7173C108.557 19.9098 99.6228 24.6763 94.6589 27.7036C99.6591 23.5635 104.479 18.5856 109.266 14.2023C110.153 13.3912 111.065 12.5336 111.494 11.4131C111.923 10.2926 111.708 8.83175 110.689 8.19072C109.486 7.43368 107.851 8.03261 106.708 8.8773C100.459 13.4891 94.3628 18.6913 89.3566 22.4541C92.6834 17.3104 96.0456 12.9005 99.9941 8.33766C100.508 7.74217 102.679 5.32154 100.311 3.45773C99.2766 2.64398 97.7535 3.01949 96.6716 3.77137C94.077 5.57503 83.1398 18.8631 82.6183 18.5529C82.222 18.3175 85.8156 12.0833 87.8361 8.75957C88.5449 7.59351 88.6227 5.6876 87.4009 5.07234C86.382 4.55849 85.2216 5.39114 84.4143 6.19458C78.9038 11.6734 74.351 19.6322 72.1604 25.4505C43.0739 39.3676 25.8294 66.7593 26.0013 98.8789C26.1455 125.914 38.8284 149.121 58.3127 158L66.8235 139.505C54.9211 134.081 46.5398 117.33 46.4413 98.7706C46.3118 74.5772 59.3842 53.9576 81.4156 43.5876C82.2712 43.8557 83.1217 44.0344 83.9238 44.0946C84.9082 44.1676 98.8163 44.7408 101.869 44.0877C103.094 43.8256 104.49 43.3195 104.851 42.1251C105.296 40.6488 103.869 39.3212 102.584 38.4636C100.606 37.1446 97.206 36.5577 93.9569 35.9829C94.0441 35.9442 99.8516 32.4984 99.9284 32.4529C103.903 30.1345 108.175 27.5326 113.329 24.5577C114.11 24.1066 114.983 23.4939 115 22.5951C115.012 21.9154 114.698 19.5557 111.89 19.7173Z" fill="white"/>
<path fill-rule="evenodd" clip-rule="evenodd" d="M111.89 19.7173C108.557 19.9098 99.6228 24.6763 94.6589 27.7036C99.6591 23.5635 104.479 18.5856 109.266 14.2023C110.153 13.3912 111.065 12.5336 111.494 11.4131C111.923 10.2926 111.708 8.83175 110.689 8.19072C109.486 7.43368 107.851 8.03261 106.708 8.8773C100.459 13.4891 94.3628 18.6913 89.3566 22.4541C92.6834 17.3104 96.0456 12.9005 99.9941 8.33766C100.508 7.74217 102.679 5.32154 100.311 3.45773C99.2766 2.64398 97.7535 3.01949 96.6716 3.77137C94.077 5.57503 83.1398 18.8631 82.6183 18.5529C82.222 18.3175 85.8156 12.0833 87.8361 8.75957C88.5449 7.59351 88.6226 5.6876 87.4009 5.07234C86.382 4.55849 85.2216 5.39114 84.4143 6.19458C78.9038 11.6734 74.351 19.6322 72.1604 25.4505C43.0739 39.3676 25.8294 66.7593 26.0013 98.8789C26.1455 125.914 38.8284 149.121 58.3127 158L66.8235 139.505C54.9211 134.081 46.5398 117.33 46.4413 98.7706C46.3118 74.5772 59.3842 53.9576 81.4156 43.5876C82.2712 43.8557 83.1217 44.0344 83.9238 44.0946C84.9082 44.1676 98.8163 44.7408 101.869 44.0877C103.094 43.8256 104.49 43.3195 104.851 42.1251C105.296 40.6488 103.869 39.3212 102.584 38.4636C100.606 37.1446 97.206 36.5577 93.9569 35.9829C94.0441 35.9442 99.8516 32.4984 99.9284 32.4529C103.903 30.1345 108.175 27.5326 113.329 24.5577C114.11 24.1066 114.983 23.4939 115 22.5951C115.012 21.9154 114.698 19.5557 111.89 19.7173Z" stroke="#4A1EE3"/>
<mask id="mask4" mask-type="alpha" maskUnits="userSpaceOnUse" x="24" y="113" width="177" height="79">
<path fill-rule="evenodd" clip-rule="evenodd" d="M24.3154 113.715H200.318V191.702H24.3154V113.715Z" fill="white"/>
</mask>
<g mask="url(#mask4)">
<path fill-rule="evenodd" clip-rule="evenodd" d="M200.318 201.311C194.97 183.175 171.844 155.329 153.834 148.901C151.856 147.973 149.736 147.187 147.437 146.591C142.519 145.32 137.652 144.055 133.766 140.453C129.022 136.053 86.1843 134.581 83.6657 135.495C78.992 137.19 74.0274 137.244 69.1172 137.414C61.1962 134.077 55.8378 120.224 53.7121 113.715L24.3154 123.213C29.3595 138.655 35.8429 149.021 42.6794 155.925C42.5266 156.356 42.3703 156.787 42.227 157.217C39.0919 166.632 32.9953 210.891 31.487 220.695C31.2746 222.075 31.2124 223.212 31.2832 224.155L166.269 241.58C166.597 240.149 171.004 203.774 171.27 200.962C171.409 199.497 178.457 208.336 178.594 206.87L200.318 201.311Z" fill="white"/>
</g>
<mask id="mask5" mask-type="alpha" maskUnits="userSpaceOnUse" x="24" y="113" width="177" height="79">
<path fill-rule="evenodd" clip-rule="evenodd" d="M24.3154 113.715H200.318V191.702H24.3154V113.715Z" fill="white"/>
</mask>
<g mask="url(#mask5)">
<path fill-rule="evenodd" clip-rule="evenodd" d="M200.318 201.311C194.97 183.175 171.844 155.329 153.834 148.901C151.856 147.973 149.736 147.187 147.437 146.591C142.519 145.32 137.652 144.055 133.766 140.453C129.022 136.053 86.1843 134.581 83.6657 135.495C78.992 137.19 74.0274 137.244 69.1172 137.414C61.1962 134.077 55.8378 120.224 53.7121 113.715L24.3154 123.213C29.3595 138.655 35.8429 149.021 42.6794 155.925C42.5266 156.356 42.3703 156.787 42.227 157.217C39.0919 166.632 32.9953 210.891 31.487 220.695C31.2746 222.075 31.2124 223.212 31.2832 224.155L166.269 241.58C166.597 240.149 171.004 203.774 171.27 200.962C171.409 199.497 178.457 208.336 178.594 206.87L200.318 201.311Z" stroke="#50E3C2"/>
</g>
<path fill-rule="evenodd" clip-rule="evenodd" d="M83 135.925L83.5706 136.69C89.2771 144.356 98.1312 149.463 107.861 150.704C117.79 151.97 127.824 149.132 135.393 142.918L136 142.42C135.147 141.873 134.325 141.256 133.543 140.541C132.157 139.272 130.982 137.818 130.025 136.244C123.829 139.943 114.272 141.836 109.12 141.179C104.222 140.555 94.4379 136.987 90.0366 132C88.2045 133.573 86.0858 134.838 83.75 135.675C83.5011 135.764 83.2506 135.844 83 135.925Z" fill="#50E3C2"/>
<path fill-rule="evenodd" clip-rule="evenodd" d="M108.096 146.734C117.094 147.9 125.665 145.164 132 139.883C128.132 135.545 128.037 129.874 128.793 124.078L130.959 107.429L96.7447 103C96.7447 103 94.58 119.631 94.5774 119.649C93.7971 125.646 92.0484 131.217 87 134.39C91.786 140.918 99.2616 145.591 108.096 146.734Z" fill="white"/>
<path fill-rule="evenodd" clip-rule="evenodd" d="M108.096 146.734C117.094 147.9 125.665 145.164 132 139.883C128.132 135.545 128.037 129.874 128.793 124.078L130.959 107.429L96.7447 103C96.7447 103 94.58 119.631 94.5774 119.649C93.7971 125.646 92.0484 131.217 87 134.39C91.786 140.918 99.2616 145.591 108.096 146.734Z" stroke="#4A1EE3"/>
<path fill-rule="evenodd" clip-rule="evenodd" d="M143.757 86.5491C145.768 71.2034 135.087 57.1799 119.902 55.2272C104.716 53.2737 90.7748 64.1316 88.7649 79.4764C88.0695 84.7818 84.2661 102.302 90.6077 114.794C93.8992 121.276 100.992 126.54 110.385 127.747C118.549 128.798 126.21 126.495 130.87 122.255C141.901 112.217 143.015 92.2148 143.757 86.5491Z" fill="white"/>
<path fill-rule="evenodd" clip-rule="evenodd" d="M143.757 86.5491C145.768 71.2034 135.087 57.1799 119.902 55.2272C104.716 53.2737 90.7748 64.1316 88.7649 79.4764C88.0695 84.7818 84.2661 102.302 90.6077 114.794C93.8992 121.276 100.992 126.54 110.385 127.747C118.549 128.798 126.21 126.495 130.87 122.255C141.901 112.217 143.015 92.2148 143.757 86.5491Z" stroke="#4A1EE3"/>
<path fill-rule="evenodd" clip-rule="evenodd" d="M138.842 110.949L87.3996 104.378C84.0053 103.944 81.6117 100.886 82.0523 97.5461L82.2146 96.3131C82.6552 92.9732 85.7634 90.6179 89.1577 91.0514L140.6 97.6213C143.995 98.0557 146.388 101.114 145.948 104.453L145.785 105.686C145.345 109.026 142.237 111.382 138.842 110.949Z" fill="white"/>
<path fill-rule="evenodd" clip-rule="evenodd" d="M107.96 97.248C107.741 98.8994 106.685 100.127 105.602 99.9894C104.52 99.8525 103.821 98.4024 104.04 96.752C104.26 95.1006 105.315 93.8727 106.398 94.0106C107.48 94.1475 108.179 95.5976 107.96 97.248Z" fill="#431E41"/>
<path fill-rule="evenodd" clip-rule="evenodd" d="M124.96 99.2489C124.741 100.899 123.685 102.127 122.603 101.989C121.521 101.853 120.82 100.402 121.04 98.7519C121.261 97.1005 122.316 95.8735 123.398 96.0104C124.48 96.1474 125.179 97.5975 124.96 99.2489Z" fill="#431E41"/>
<path fill-rule="evenodd" clip-rule="evenodd" d="M100.583 85.7848C100.286 85.7396 100.042 85.4633 100.005 85.0994C99.9611 84.6687 100.223 84.2783 100.59 84.2272C103.911 83.763 108.282 84.1003 110.42 84.4376C110.787 84.4956 111.043 84.8909 110.994 85.3207C110.944 85.7484 110.61 86.0493 110.245 85.9933C110.212 85.9893 110.157 85.9795 110.111 85.9716C108.004 85.6511 103.88 85.3492 100.749 85.7858C100.692 85.7937 100.637 85.7927 100.583 85.7848Z" fill="#431E41"/>
<path fill-rule="evenodd" clip-rule="evenodd" d="M130.225 89.9939C130.17 89.9865 130.115 89.9717 130.061 89.9486C127.034 88.6627 123.859 87.8295 120.616 87.4701C120.244 87.4396 119.965 87.0664 120.004 86.6609C120.043 86.2563 120.38 85.9616 120.757 86.0041C124.123 86.3782 127.422 87.2419 130.566 88.5777C130.919 88.7274 131.091 89.156 130.952 89.5338C130.834 89.8544 130.53 90.0364 130.225 89.9939Z" fill="#431E41"/>
<path fill-rule="evenodd" clip-rule="evenodd" d="M94.4469 57.0339C90.9848 61.4456 85.6528 84.0071 87.3122 91C93.12 89.668 96.2188 84.7145 97.7657 76.4958C111.467 83.8027 126.859 87.5157 141.919 85.4021C142.756 85.2848 146.556 78.1668 146.556 78.1668C148.285 70.1043 147.542 42.8213 94.4469 57.0339Z" fill="#50E3C2"/>
<path fill-rule="evenodd" clip-rule="evenodd" d="M146 77.8351C144.62 76.8849 139.712 76.7891 138.295 76C137.135 77.7349 135.012 81.1595 135.111 81.1368C134.518 89.5588 136.254 95.1973 141.526 98C143.541 93.2542 145.404 87.7238 146 77.8351Z" fill="#50E3C2"/>
<path fill-rule="evenodd" clip-rule="evenodd" d="M102 105C102.127 109.875 106.283 114.162 111.904 114.893C117.525 115.624 122.635 112.543 124 107.861L102 105Z" fill="#4A1EE3"/>
<path fill-rule="evenodd" clip-rule="evenodd" d="M86.9603 149.434C87.0468 149.954 87.0528 150.571 86.3275 150.894C85.7777 151.136 83.6648 151.814 82.1615 150.458C80.378 148.846 79.0752 143.042 78.662 139.685C78.1856 143.448 76.9191 147.419 76.1212 151.168C75.9742 151.862 75.8039 152.583 75.1365 153.173C74.4691 153.763 73.149 154.174 72.0312 153.926C70.7111 153.633 70.2495 152.667 70.2746 151.841C70.4094 147.336 71.1148 142.695 71.2782 139.061C69.0072 142.399 67.3577 145.496 65.9226 148.919C65.7359 149.365 65.0184 151.217 62.1154 150.771C60.8463 150.575 60.2671 149.739 60.2524 148.975C60.2169 147.142 64.7193 137.435 64.1617 137.301C63.7389 137.2 60.7304 141.042 59.1882 143.138C58.647 143.874 57.1332 144.576 55.9169 144.225C54.9046 143.932 54.9097 143.103 55.0965 142.449C56.5048 137.511 61.0762 132.049 64.8057 129.14C68.0009 126.648 75.7175 128.783 81.737 130.413C87.0545 131.853 86.3923 146.007 86.9603 149.434Z" fill="white"/>
<path fill-rule="evenodd" clip-rule="evenodd" d="M86.9603 149.434C87.0468 149.954 87.0528 150.571 86.3275 150.894C85.7777 151.136 83.6648 151.814 82.1615 150.458C80.378 148.846 79.0752 143.042 78.662 139.685C78.1856 143.448 76.9191 147.419 76.1212 151.168C75.9742 151.862 75.8039 152.583 75.1365 153.173C74.4691 153.763 73.149 154.174 72.0312 153.926C70.7111 153.633 70.2495 152.667 70.2746 151.841C70.4094 147.336 71.1148 142.695 71.2782 139.061C69.0072 142.399 67.3577 145.496 65.9226 148.919C65.7359 149.365 65.0184 151.217 62.1154 150.771C60.8463 150.575 60.2671 149.739 60.2524 148.975C60.2169 147.142 64.7193 137.435 64.1617 137.301C63.7389 137.2 60.7304 141.042 59.1882 143.138C58.647 143.874 57.1332 144.576 55.9169 144.225C54.9046 143.932 54.9097 143.103 55.0965 142.449C56.5048 137.511 61.0762 132.049 64.8057 129.14C68.0009 126.648 75.7175 128.783 81.737 130.413C87.0545 131.853 86.3923 146.007 86.9603 149.434Z" stroke="#4A1EE3"/>
<path fill-rule="evenodd" clip-rule="evenodd" d="M395.575 209.05C408.094 202.98 406.642 243.648 405.308 246.518C388.976 281.674 345.97 271.438 308.682 249.63C286.02 236.375 241.175 205.086 254.532 174.412C257.483 167.631 288.38 165.948 288.404 177.535C288.446 198.204 327.469 242.067 395.575 209.05Z" fill="white"/>
<path fill-rule="evenodd" clip-rule="evenodd" d="M302 191C286.042 200.537 265.171 214.669 264.566 217.031C264.566 217.031 234.982 192.372 261 154C261 154 298.571 177.569 304 190L302 191Z" fill="#4A1EE3"/>
<path fill-rule="evenodd" clip-rule="evenodd" d="M271.528 96.7151C271.423 93.3892 267.364 88.0439 271.704 86.4305C275.845 84.8923 280.51 89.2052 284.625 89.2881C289.951 89.395 293.435 84.2761 296.897 82.0039C302.124 78.5711 306.439 80.2025 310.468 83.9617C313.934 87.1945 311.274 92.6081 316.502 95.2871C321.975 98.0918 330.04 95.4956 334.608 91.4741C337.91 88.5694 337.512 85.4606 335.126 82.4055C333.845 80.7648 331.898 79.988 330.419 78.6694C328.177 76.6714 327.48 75.0461 328.033 72.0124C328.444 69.7581 329.763 67.9259 329.924 65.446C330.674 53.9736 320.624 59.5871 314.072 55.8391C306.868 51.7175 308.613 41.0458 298.596 44.7794C292.115 47.1952 291.443 54.4991 284.551 56.1621C276.268 58.1609 256.144 45.2819 254.729 61.7466C254.371 65.9151 256.8 68.6805 255.212 72.5166C254.151 75.0794 251.521 75.5451 249.92 77.585C246.119 82.4269 246.031 87.5089 249.642 93.0166C253.486 98.878 262.378 104.318 269.394 100.982C271.368 100.044 271.573 98.1601 271.528 96.7151Z" fill="#4A1EE3"/>
<path fill-rule="evenodd" clip-rule="evenodd" d="M291.324 69.3051C305.028 67.9102 317.432 76.5332 321 89.1481C320.857 86.7279 320.65 84.7679 320.518 83.5164C318.933 68.5018 305.252 57.5908 289.964 59.148C274.674 60.7042 263.564 74.1387 265.151 89.1541C265.338 90.9323 265.678 94.1379 266.406 98C265.58 83.5215 276.482 70.817 291.324 69.3051Z" fill="#50E3C2"/>
</g>
</svg>
